<svg width="45" height="67" viewBox="0 0 45 67" fill="none" xmlns="http://www.w3.org/2000/svg">
<path fill-rule="evenodd" clip-rule="evenodd" d="M12.6471 30.0302V25.8572C12.6471 24.6517 14.4863 24.6517 14.4863 25.8572V27.8665L17.8093 23.9562L19.1539 10.9271C18.8912 9.73704 18.3193 5.53312 21.735 0.401864C22.1059 -0.139082 22.9096 -0.139082 23.2651 0.401864C26.7117 5.57949 26.0935 9.81432 25.8462 10.958L27.1908 23.9562L30.5138 27.8665C30.5138 26.5373 30.2201 24.9453 31.4257 24.9453C31.9357 24.9453 32.353 25.3472 32.353 25.8572V30.0302L36.7888 35.2542V32.0704C36.7888 30.8648 38.6125 30.8648 38.6125 32.0704V37.4026L42.8783 42.4102V37.6653C42.8783 36.4598 44.702 36.4598 44.702 37.6653V57.8503C44.702 58.5149 44.0065 58.9631 43.4037 58.6849L29.3701 52.1936L27.299 54.8828L37.2679 59.2104C37.5924 59.3495 37.8088 59.6741 37.8088 60.045V66.0881C37.8088 66.5827 37.407 67 36.8969 67H8.10317C7.59314 67 7.19129 66.5827 7.19129 66.0881V60.045C7.19129 59.6741 7.40767 59.3495 7.73224 59.2104L17.7011 54.8828L15.63 52.1936L1.59637 58.6849C0.962686 58.9786 0.298096 58.4994 0.298096 57.8503V38.2681C0.298096 37.0625 2.13731 37.0625 2.13731 38.2681V42.4102L6.3876 37.4026V32.0704C6.3876 30.8648 8.21136 30.8648 8.21136 32.0704V35.2542L12.6471 30.0302ZM16.8665 50.7871L22.4923 58.1131L28.1336 50.7871L24.0997 11.8081H20.9159L16.8665 50.7871ZM15.0582 50.4316L16.5883 35.7179L2.13731 52.7345V56.4129L15.0582 50.4316ZM16.9129 32.5031L17.4693 27.171L2.13731 45.2385V49.9061L16.9129 32.5031ZM27.5309 27.171L28.0718 32.4877L42.8783 49.9061V45.2385L27.5309 27.171ZM28.4118 35.7179L29.9419 50.4316L42.8783 56.4129V52.7345L28.4118 35.7179ZM21.5804 65.1608V59.9214L18.8603 56.382L9.01505 60.6478V65.1608H21.5804ZM35.9851 65.1608V60.6478L26.1398 56.3666L23.4197 59.9214V65.1608H35.9851ZM20.854 9.96888H24.1461C24.3006 8.73243 24.3315 6.01225 22.4923 2.67384C20.6686 6.01225 20.6995 8.73243 20.854 9.96888ZM22.4923 36.1661C21.9977 36.1661 21.5804 35.7643 21.5804 35.2542V20.6178C21.5804 19.4122 23.4197 19.4122 23.4197 20.6178V35.2542C23.4197 35.7488 23.0024 36.1661 22.4923 36.1661Z" fill="white"/>
</svg>
