<svg width="47" height="53" viewBox="0 0 47 53" fill="none" xmlns="http://www.w3.org/2000/svg">
<path d="M10.0945 22.9168C9.50903 23.7492 9.00274 24.6347 8.58228 25.5615M11.7952 43.7585C12.5477 44.5281 13.3743 45.2216 14.263 45.829L13.4902 47.953C13.1265 48.9518 13.6457 50.0674 14.6445 50.4299L18.6385 51.8844C19.6382 52.2475 20.7526 51.7272 21.1152 50.7291L21.8886 48.6048M35.2058 43.7573C34.4531 44.527 33.6264 45.2209 32.7379 45.8287M39.8229 33.555C39.7429 34.6291 39.5567 35.6926 39.2671 36.73L41.2211 37.859C42.1417 38.391 42.4608 39.5778 41.9285 40.4989L39.8034 44.1798C39.2729 45.1014 38.0846 45.4193 37.1635 44.8873L35.2059 43.7576M21.8884 48.604C22.9601 48.7087 24.0393 48.7087 25.1109 48.604M7.17692 33.555C7.25644 34.6292 7.44258 35.6927 7.73261 36.73L5.77904 37.859C4.8578 38.391 4.5402 39.5778 5.07145 40.4989L7.19668 44.1798C7.72747 45.1014 8.91556 45.4193 9.83645 44.8883L11.7949 43.7576M38.4179 25.5615C37.9965 24.6344 37.4898 23.7486 36.9044 22.9154M7.17657 33.555L4.95018 33.1621C3.90312 32.9779 3.19868 31.9706 3.3831 30.9246L4.12098 26.7382C4.30527 25.6914 5.31269 24.9873 6.36011 25.1705L8.58182 25.5618M32.7377 45.829L33.5101 47.953C33.8732 48.9523 33.3547 50.0674 32.3563 50.4299L28.3619 51.8844C27.3616 52.2475 26.2484 51.7272 25.8855 50.7291L25.1118 48.6048M38.4175 25.5618L40.6402 25.1705C41.6877 24.9866 42.6947 25.6917 42.8794 26.7379L43.6172 30.9241C43.8013 31.9705 43.0961 32.9772 42.0489 33.1627L39.8229 33.5545M30.5953 26.2161C31.9334 27.8186 32.7381 29.8804 32.7381 32.1309C32.7381 37.2319 28.6023 41.3675 23.5001 41.3675C18.3991 41.3675 14.2635 37.2319 14.2635 32.1309C14.2635 29.8819 15.068 27.8199 16.405 26.2175M23.4988 33.5544V15.7659" stroke="white" stroke-width="2" stroke-miterlimit="10" stroke-linecap="round" stroke-linejoin="round"/>
<path d="M23.5 15.7658C24.6787 15.7658 25.6342 14.8103 25.6342 13.6316C25.6342 12.4528 24.6787 11.4973 23.5 11.4973C22.3213 11.4973 21.3657 12.4528 21.3657 13.6316C21.3657 14.8103 22.3213 15.7658 23.5 15.7658Z" stroke="white" stroke-width="2" stroke-miterlimit="10" stroke-linecap="round" stroke-linejoin="round"/>
<path d="M33.6302 9.22355C34.8089 9.22355 35.7643 8.26807 35.7643 7.08943C35.7643 5.91079 34.8089 4.95531 33.6302 4.95531C32.4516 4.95531 31.4961 5.91079 31.4961 7.08943C31.4961 8.26807 32.4516 9.22355 33.6302 9.22355Z" stroke="white" stroke-width="2" stroke-miterlimit="10" stroke-linecap="round" stroke-linejoin="round"/>
<path d="M43.4118 5.26848C44.5905 5.26848 45.5461 4.31295 45.5461 3.13424C45.5461 1.95553 44.5905 1 43.4118 1C42.2331 1 41.2776 1.95553 41.2776 3.13424C41.2776 4.31295 42.2331 5.26848 43.4118 5.26848Z" stroke="white" stroke-width="2" stroke-miterlimit="10" stroke-linecap="round" stroke-linejoin="round"/>
<path d="M30.5953 26.2161V14.4794M30.595 14.4789L33.6302 11.4434M33.6307 9.22438V11.4434M36.9044 22.9154V18.1078M36.9043 18.1079L43.412 11.6007M43.4114 5.26895V11.6001" stroke="white" stroke-width="2" stroke-miterlimit="10" stroke-linecap="round" stroke-linejoin="round"/>
<path d="M13.3698 9.22369C14.5485 9.22369 15.5041 8.26816 15.5041 7.08945C15.5041 5.91075 14.5485 4.95522 13.3698 4.95522C12.1911 4.95522 11.2356 5.91075 11.2356 7.08945C11.2356 8.26816 12.1911 9.22369 13.3698 9.22369Z" stroke="white" stroke-width="2" stroke-miterlimit="10" stroke-linecap="round" stroke-linejoin="round"/>
<path d="M3.58834 5.26848C4.76705 5.26848 5.72258 4.31295 5.72258 3.13424C5.72258 1.95553 4.76705 1 3.58834 1C2.40963 1 1.4541 1.95553 1.4541 3.13424C1.4541 4.31295 2.40963 5.26848 3.58834 5.26848Z" stroke="white" stroke-width="2" stroke-miterlimit="10" stroke-linecap="round" stroke-linejoin="round"/>
<path d="M16.405 26.2174V14.4794M16.4054 14.4789L13.37 11.4434M13.3697 11.4434V9.22438M10.0946 22.9168V18.1078M10.0958 18.1079L3.58838 11.6007M3.58873 11.6001V5.26895" stroke="white" stroke-width="2" stroke-miterlimit="10" stroke-linecap="round" stroke-linejoin="round"/>
</svg>
