<svg width="54" height="54" viewBox="0 0 54 54" fill="none" xmlns="http://www.w3.org/2000/svg">
<path d="M52.3399 36.8121C51.7765 36.1099 51.0926 35.5136 50.3202 35.051L48.6235 26.2847C49.0523 25.7794 49.3587 25.182 49.5187 24.539C49.6787 23.896 49.6881 23.2246 49.5462 22.5774C49.4043 21.9301 49.1148 21.3243 48.7003 20.8073C48.2859 20.2902 47.7577 19.8759 47.1568 19.5964L37.9524 6.09629C38.1956 5.54772 38.3217 4.95442 38.3226 4.35434C38.3256 3.44165 38.0408 2.55124 37.5087 1.80971C36.9765 1.06818 36.2242 0.513285 35.3586 0.223913C34.493 -0.0654603 33.5582 -0.0745783 32.6871 0.197855C31.816 0.470288 31.053 1.01041 30.5065 1.74141H16.5484C16.3174 1.74141 16.0959 1.83318 15.9325 1.99652C15.7692 2.15985 15.6774 2.38139 15.6774 2.61239V6.09629C15.6774 6.32729 15.7692 6.54883 15.9325 6.71217C16.0959 6.87551 16.3174 6.96727 16.5484 6.96727H17.4194V9.91291C16.8612 10.5417 16.5515 11.3524 16.5484 12.1931V13.0641C16.5484 13.2951 16.6401 13.5166 16.8035 13.68C16.9668 13.8433 17.1884 13.9351 17.4194 13.9351H22.6452C22.8762 13.9351 23.0977 13.8433 23.261 13.68C23.4244 13.5166 23.5161 13.2951 23.5161 13.0641V12.1931C23.513 11.3524 23.2033 10.5417 22.6452 9.91291V6.96727H30.5065C30.8987 7.49001 31.4041 7.91724 31.9848 8.21695C32.5655 8.51666 33.2065 8.68108 33.8597 8.6979L40.9912 22.9628C40.8892 23.5535 40.9232 24.1596 41.0906 24.7352C41.258 25.3108 41.5543 25.8407 41.9571 26.2847L40.6907 32.83L36.3612 29.367C34.4443 27.8372 32.0654 27.0027 29.6129 26.9997H20.6585C18.9643 26.9951 17.286 27.3264 15.7207 27.9747C14.1555 28.6229 12.7343 29.5752 11.5395 30.7763C9.98321 32.3342 7.99957 33.3951 5.83984 33.8247L3.26265 34.3403C2.34314 34.5263 1.51613 35.0242 0.921579 35.7498C0.32703 36.4755 0.00146865 37.3843 0 38.3224V45.2902C0 45.5212 0.0917624 45.7428 0.255101 45.9061C0.418439 46.0694 0.639973 46.1612 0.870968 46.1612H5.22581C5.4568 46.1612 5.67834 46.0694 5.84167 45.9061C6.00501 45.7428 6.09677 45.5212 6.09677 45.2902V44.4193C6.09677 43.4953 6.46382 42.6091 7.11718 41.9558C7.77053 41.3024 8.65666 40.9354 9.58065 40.9354C10.5046 40.9354 11.3908 41.3024 12.0441 41.9558C12.6975 42.6091 13.0645 43.4953 13.0645 44.4193V45.2902C13.0645 45.5212 13.1563 45.7428 13.3196 45.9061C13.483 46.0694 13.7045 46.1612 13.9355 46.1612H22.6452V48.7741H9.58065C9.34965 48.7741 9.12812 48.8659 8.96478 49.0292C8.80144 49.1926 8.70968 49.4141 8.70968 49.6451V53.129C8.70968 53.36 8.80144 53.5816 8.96478 53.7449C9.12812 53.9082 9.34965 54 9.58065 54H44.4194C44.6503 54 44.8719 53.9082 45.0352 53.7449C45.1986 53.5816 45.2903 53.36 45.2903 53.129V49.6451C45.2903 49.4141 45.1986 49.1926 45.0352 49.0292C44.8719 48.8659 44.6503 48.7741 44.4194 48.7741H31.3548V46.1612H37.4516C37.6826 46.1612 37.9041 46.0694 38.0675 45.9061C38.2308 45.7428 38.3226 45.5212 38.3226 45.2902V44.4193C38.3226 43.4953 38.6896 42.6091 39.343 41.9558C39.9963 41.3024 40.8825 40.9354 41.8064 40.9354C42.7304 40.9354 43.6166 41.3024 44.2699 41.9558C44.9233 42.6091 45.2903 43.4953 45.2903 44.4193V45.2902C45.2903 45.5212 45.3821 45.7428 45.5454 45.9061C45.7088 46.0694 45.9303 46.1612 46.1613 46.1612H53.129C53.36 46.1612 53.5816 46.0694 53.7449 45.9061C53.9082 45.7428 54 45.5212 54 45.2902V41.545C53.9978 39.8251 53.4126 38.1566 52.3399 36.8121ZM45.2903 27.8707C45.9084 27.8689 46.5189 27.7341 47.0802 27.4753L48.3866 34.2349C47.7463 34.0609 47.0861 33.971 46.4226 33.9675H43.5484C43.1188 33.965 42.6923 33.8947 42.2846 33.7594L43.504 27.4753C44.0642 27.7336 44.6734 27.8684 45.2903 27.8707ZM45.2903 26.1288C44.7735 26.1288 44.2684 25.9755 43.8387 25.6884C43.409 25.4013 43.0741 24.9932 42.8763 24.5157C42.6786 24.0383 42.6268 23.5129 42.7276 23.0061C42.8284 22.4992 43.0773 22.0336 43.4427 21.6682C43.8081 21.3028 44.2737 21.0539 44.7806 20.9531C45.2874 20.8523 45.8128 20.904 46.2902 21.1018C46.7677 21.2996 47.1758 21.6345 47.4629 22.0642C47.75 22.4939 47.9032 22.999 47.9032 23.5158C47.9032 24.2088 47.6279 24.8734 47.1379 25.3634C46.6479 25.8535 45.9833 26.1288 45.2903 26.1288ZM18.2903 12.1931C18.2903 11.7311 18.4738 11.2881 18.8005 10.9614C19.1272 10.6347 19.5703 10.4512 20.0323 10.4512C20.4942 10.4512 20.9373 10.6347 21.264 10.9614C21.5907 11.2881 21.7742 11.7311 21.7742 12.1931H18.2903ZM20.9032 8.8329C20.3343 8.66799 19.7302 8.66799 19.1613 8.8329V6.96727H20.9032V8.8329ZM17.4194 5.22532V3.48337H29.7C29.5827 4.05809 29.5827 4.65059 29.7 5.22532H17.4194ZM31.3548 4.35434C31.3548 3.83755 31.5081 3.33237 31.7952 2.90268C32.0823 2.47298 32.4904 2.13808 32.9678 1.94031C33.4453 1.74254 33.9706 1.6908 34.4775 1.79162C34.9843 1.89244 35.4499 2.1413 35.8153 2.50672C36.1808 2.87215 36.4296 3.33773 36.5304 3.84458C36.6313 4.35144 36.5795 4.87682 36.3817 5.35427C36.184 5.83172 35.8491 6.2398 35.4194 6.52691C34.9897 6.81402 34.4845 6.96727 33.9677 6.96727C33.2748 6.96727 32.6102 6.69198 32.1201 6.20196C31.6301 5.71194 31.3548 5.04733 31.3548 4.35434ZM35.6435 8.37216C36.0908 8.18068 36.5029 7.91573 36.8628 7.58828L44.7886 19.2149C44.2205 19.2809 43.6711 19.4588 43.1722 19.7386C42.6733 20.0183 42.2348 20.3942 41.8822 20.8445L35.6435 8.37216ZM43.5484 52.258H10.4516V50.5161H43.5484V52.258ZM29.6129 48.7741H24.3871V46.1612H29.6129V48.7741ZM52.2581 44.4193H47.0323C47.0323 43.0333 46.4817 41.7041 45.5017 40.724C44.5216 39.744 43.1924 39.1934 41.8064 39.1934C40.4205 39.1934 39.0913 39.744 38.1112 40.724C37.1312 41.7041 36.5806 43.0333 36.5806 44.4193H14.8065C14.8065 43.0333 14.2559 41.7041 13.2758 40.724C12.2958 39.744 10.9666 39.1934 9.58065 39.1934C8.19468 39.1934 6.86547 39.744 5.88544 40.724C4.90541 41.7041 4.35484 43.0333 4.35484 44.4193H1.74194V38.3224C1.74298 37.787 1.92899 37.2683 2.26847 36.8542C2.60796 36.4401 3.08008 36.1561 3.60494 36.05L6.18387 35.5353C8.68108 35.0386 10.9744 33.8112 12.7727 32.0087C13.806 30.97 15.035 30.1464 16.3885 29.5857C17.7421 29.0249 19.1934 28.738 20.6585 28.7417H29.6129C31.6702 28.7439 33.666 29.4436 35.2742 30.7266L39.9034 34.43C40.9386 35.2567 42.2236 35.7078 43.5484 35.7095H46.4226C47.9702 35.7095 49.4545 36.3243 50.5489 37.4187C51.6433 38.5131 52.2581 39.9974 52.2581 41.545V44.4193Z" fill="white"/>
<path d="M27.6863 30.24H23.6054C23.3702 30.24 23.1445 30.3376 22.9781 30.5112C22.8118 30.6848 22.7183 30.9202 22.7183 31.1657V35.7943C22.7183 36.0398 22.8118 36.2753 22.9781 36.4489C23.1445 36.6225 23.3702 36.72 23.6054 36.72H36.9125C37.0797 36.7201 37.2434 36.6709 37.385 36.578C37.5265 36.4852 37.64 36.3525 37.7124 36.1953C37.7848 36.0381 37.8132 35.8627 37.7942 35.6894C37.7753 35.5161 37.7098 35.3519 37.6053 35.2157C36.4183 33.6599 34.9095 32.4042 33.1919 31.5426C31.4742 30.681 29.5921 30.2357 27.6863 30.24ZM24.4926 34.8686V32.0915H27.6863C30.3136 32.0848 32.8543 33.0714 34.8384 34.8686H24.4926ZM20.0569 30.24C18.822 30.2433 17.6088 30.5786 16.5343 31.2136C15.4598 31.8486 14.5602 32.7618 13.9223 33.8651L13.0867 35.3176C13.0058 35.458 12.9621 35.6183 12.96 35.7822C12.958 35.946 12.9976 36.1075 13.0749 36.2501C13.1523 36.3927 13.2645 36.5113 13.4001 36.5939C13.5357 36.6765 13.6899 36.72 13.8469 36.72H20.0569C20.2922 36.72 20.5178 36.6225 20.6842 36.4489C20.8506 36.2753 20.944 36.0398 20.944 35.7943V31.1657C20.944 30.9202 20.8506 30.6848 20.6842 30.5112C20.5178 30.3376 20.2922 30.24 20.0569 30.24ZM19.1698 34.8686H15.4145L15.4438 34.8167C15.846 34.1219 16.387 33.5258 17.03 33.0689C17.673 32.612 18.4028 32.3051 19.1698 32.1692V34.8686Z" fill="white"/>
<path d="M20.5199 16.2H19.4399V24.84H20.5199V16.2Z" fill="white"/>
<path d="M15.9329 15.0614L9.40039 21.5939L10.6321 22.8257L17.1646 16.2932L15.9329 15.0614Z" fill="white"/>
<path d="M24.1321 15.062L22.9004 16.2937L29.4329 22.8263L30.6646 21.5945L24.1321 15.062Z" fill="white"/>
</svg>
