<svg width="36" height="36" viewBox="0 0 36 36" fill="none" xmlns="http://www.w3.org/2000/svg">
<g clip-path="url(#clip0_273_298)">
<path d="M36 18C36 8.05887 27.9411 0 18 0C8.05888 0 0 8.05887 0 18C0 26.9843 6.58234 34.431 15.1875 35.7812V23.2031H10.6172V18H15.1875V14.0344C15.1875 9.52312 17.8748 7.03125 21.9863 7.03125C23.9557 7.03125 26.0156 7.38281 26.0156 7.38281V11.8125H23.7458C21.5098 11.8125 20.8125 13.2 20.8125 14.6235V18H25.8047L25.0066 23.2031H20.8125V35.7812C29.4177 34.431 36 26.9843 36 18Z" fill="#535353"/>
<path d="M25.0066 23.2031L25.8047 18H20.8125V14.6235C20.8125 13.2 21.5098 11.8125 23.7458 11.8125H26.0156V7.38281C26.0156 7.38281 23.9557 7.03125 21.9863 7.03125C17.8748 7.03125 15.1875 9.52312 15.1875 14.0344V18H10.6172V23.2031H15.1875V35.7812C17.0512 36.0729 18.9488 36.0729 20.8125 35.7812V23.2031H25.0066Z" fill="#A4A4A4"/>
</g>
<defs>
<clipPath id="clip0_273_298">
<rect width="36" height="36" fill="white"/>
</clipPath>
</defs>
</svg>
