<svg width="63" height="62" viewBox="0 0 63 62" fill="none" xmlns="http://www.w3.org/2000/svg">
<path d="M54.8237 26.4334C57.9105 26.4334 60.4224 23.9221 60.4224 20.8347C60.4224 17.7446 57.9111 15.2302 54.8237 15.2302C51.7362 15.2302 49.2244 17.7446 49.2244 20.8347C49.2244 23.9215 51.7356 26.4334 54.8237 26.4334ZM54.8237 16.2035C57.3739 16.2035 59.449 18.2813 59.449 20.8347C59.449 23.3848 57.3739 25.46 54.8237 25.46C52.2735 25.46 50.1971 23.3842 50.1971 20.834C50.1971 18.2806 52.2722 16.2029 54.823 16.2029L54.8237 16.2035Z" fill="white"/>
<path d="M54.8946 22.6899C55.1388 22.6812 55.3789 22.6243 55.6011 22.5225C55.8233 22.4207 56.0232 22.2759 56.1892 22.0966C56.3552 21.9172 56.4841 21.7068 56.5685 21.4774C56.6529 21.2481 56.6912 21.0043 56.681 20.7601C56.6721 20.5159 56.615 20.2758 56.513 20.0537C56.4111 19.8316 56.2662 19.6318 56.0869 19.4659C55.9075 19.2999 55.6971 19.171 55.4678 19.0865C55.2385 19.002 54.9947 18.9637 54.7505 18.9737C54.2578 18.9933 53.793 19.2075 53.4581 19.5695C53.1231 19.9314 52.9455 20.4114 52.9641 20.9042C52.9734 21.1483 53.0307 21.3882 53.1328 21.6101C53.2348 21.832 53.3797 22.0317 53.559 22.1976C53.7383 22.3635 53.9485 22.4925 54.1777 22.577C54.4069 22.6616 54.6505 22.7002 54.8946 22.6906V22.6899ZM33.8158 26.1511C34.4548 26.151 35.0676 25.8975 35.52 25.4462C35.9724 24.9949 36.2274 24.3827 36.2291 23.7437C36.2286 23.1037 35.9741 22.49 35.5215 22.0374C35.0689 21.5848 34.4552 21.3303 33.8152 21.3298C33.1754 21.3307 32.562 21.5853 32.1097 22.0379C31.6574 22.4904 31.4031 23.1039 31.4026 23.7437C31.4043 24.3827 31.6593 24.9949 32.1117 25.4462C32.564 25.8975 33.1769 26.151 33.8158 26.1511ZM33.8158 22.3032C34.6094 22.3032 35.2557 22.9495 35.2557 23.7437C35.2557 24.5341 34.6094 25.1778 33.8152 25.1778C33.0209 25.1778 32.3759 24.5341 32.3759 23.7437C32.3759 22.9495 33.0216 22.3032 33.8158 22.3032ZM38.373 13.131V15.1744C38.373 15.3035 38.4243 15.4273 38.5156 15.5185C38.6068 15.6098 38.7306 15.6611 38.8597 15.6611C38.9888 15.6611 39.1126 15.6098 39.2038 15.5185C39.2951 15.4273 39.3464 15.3035 39.3464 15.1744V13.131C39.3464 13.0019 39.2951 12.8782 39.2038 12.7869C39.1126 12.6956 38.9888 12.6443 38.8597 12.6443C38.7306 12.6443 38.6068 12.6956 38.5156 12.7869C38.4243 12.8782 38.373 13.0019 38.373 13.131ZM36.4672 13.131V15.1744C36.4672 15.3035 36.5185 15.4273 36.6098 15.5185C36.701 15.6098 36.8248 15.6611 36.9539 15.6611C37.083 15.6611 37.2068 15.6098 37.298 15.5185C37.3893 15.4273 37.4406 15.3035 37.4406 15.1744V13.131C37.4406 13.0019 37.3893 12.8782 37.298 12.7869C37.2068 12.6956 37.083 12.6443 36.9539 12.6443C36.8248 12.6443 36.701 12.6956 36.6098 12.7869C36.5185 12.8782 36.4672 13.0019 36.4672 13.131ZM34.5608 13.131V15.1744C34.5608 15.3035 34.612 15.4273 34.7033 15.5185C34.7946 15.6098 34.9184 15.6611 35.0474 15.6611C35.1765 15.6611 35.3003 15.6098 35.3916 15.5185C35.4828 15.4273 35.5341 15.3035 35.5341 15.1744V13.131C35.5341 13.0019 35.4828 12.8782 35.3916 12.7869C35.3003 12.6956 35.1765 12.6443 35.0474 12.6443C34.9184 12.6443 34.7946 12.6956 34.7033 12.7869C34.612 12.8782 34.5608 13.0019 34.5608 13.131Z" fill="white"/>
<path d="M62.3511 28.2081H58.3318C61.087 26.8915 63 24.0857 63 20.8347C63 16.3262 59.3317 12.6586 54.8239 12.6586C50.5346 12.6586 47.0137 15.9797 46.6802 20.1839H40.5676C39.2244 17.8738 36.6502 16.6227 34.4641 16.6227C34.335 16.6227 34.2112 16.674 34.12 16.7653C34.0287 16.8565 33.9774 16.9803 33.9774 17.1094C33.9774 17.2385 34.0287 17.3622 34.12 17.4535C34.2112 17.5448 34.335 17.5961 34.4641 17.5961C36.3602 17.5961 38.7546 18.7122 39.9031 20.9963C39.9239 21.0715 39.955 21.139 39.9998 21.2013C40.6253 22.5666 40.7249 24.1147 40.2795 25.5489C40.2604 25.6099 40.2535 25.6741 40.2592 25.7378C40.2649 25.8015 40.2831 25.8634 40.3128 25.92C40.3424 25.9767 40.383 26.0269 40.432 26.0679C40.4811 26.1089 40.5377 26.1398 40.5988 26.1589C40.6598 26.178 40.7239 26.1849 40.7876 26.1791C40.8513 26.1734 40.9132 26.1552 40.9699 26.1256C41.0265 26.0959 41.0767 26.0554 41.1177 26.0064C41.1587 25.9573 41.1896 25.9006 41.2087 25.8396C41.6493 24.4179 41.6322 22.8938 41.16 21.4823H46.6802C46.9151 24.4555 48.745 26.9804 51.3153 28.2081H37.4484C38.7462 27.1504 39.578 25.5418 39.578 23.7411C39.578 20.5641 36.9928 17.9789 33.8158 17.9789C33.2682 17.9789 32.74 18.0607 32.2377 18.2041V12.1687C32.2377 11.9279 32.433 11.732 32.6738 11.732H43.6596C43.8107 11.7321 43.9571 11.6794 44.0736 11.5831C44.19 11.4868 44.2692 11.3529 44.2975 11.2044L45.9729 2.42486C45.9918 2.32508 46.0449 2.23503 46.1231 2.17023C46.2013 2.10543 46.2996 2.06995 46.4012 2.06991H56.1307C56.3403 2.06991 56.5201 2.21916 56.5597 2.42486L58.0878 10.4342H57.4292L56.3351 3.77975C56.3164 3.66594 56.2578 3.56249 56.1698 3.48786C56.0819 3.41322 55.9703 3.37225 55.8549 3.37224H46.6776C46.5623 3.37225 46.4507 3.41322 46.3627 3.48786C46.2748 3.56249 46.2162 3.66594 46.1974 3.77975L45.3928 8.67373C45.1333 10.2538 45.0027 11.8523 45.0022 13.4535C45.0025 13.9366 45.1946 14.3999 45.5362 14.7415C45.8779 15.0832 46.3411 15.2753 46.8243 15.2756C47.0721 15.2756 47.3083 15.1822 47.4855 15.016L51.0869 11.6963C51.1453 11.7132 51.2024 11.732 51.2653 11.732H58.8587C58.8632 11.732 58.8671 11.7346 58.8717 11.7346H59.9307L61.3277 14.9226C61.3612 15.0017 61.4101 15.0733 61.4715 15.1333C61.5328 15.1934 61.6055 15.2407 61.6853 15.2724C61.7651 15.3042 61.8504 15.3198 61.9362 15.3183C62.0221 15.3168 62.1068 15.2984 62.1855 15.2639C62.2641 15.2295 62.3352 15.1798 62.3945 15.1177C62.4538 15.0556 62.5002 14.9824 62.531 14.9022C62.5618 14.822 62.5764 14.7366 62.5739 14.6507C62.5714 14.5649 62.5519 14.4804 62.5165 14.4022L61.0915 11.1499C60.9986 10.9378 60.8459 10.7573 60.6521 10.6305C60.4583 10.5038 60.2317 10.4362 60.0001 10.4361H59.4096L57.8347 2.18217C57.7587 1.78584 57.5471 1.42836 57.2361 1.17115C56.9251 0.913949 56.5343 0.773084 56.1307 0.772766H46.4018C45.9983 0.773084 45.6074 0.913949 45.2965 1.17115C44.9855 1.42836 44.7738 1.78584 44.6978 2.18217L43.123 10.4348H41.9446V7.09172C41.9446 6.91962 41.8762 6.75457 41.7545 6.63288C41.6328 6.51119 41.4678 6.44282 41.2957 6.44282H40.4683V3.21197C40.4682 3.18615 40.4664 3.16036 40.4631 3.13475C40.4495 3.01795 40.3535 2.41642 39.8454 2.05628C39.6222 1.89795 39.2432 1.73508 38.6929 1.85772C38.6081 1.87446 38.5274 1.908 38.4557 1.95637C38.384 2.00474 38.3227 2.06695 38.2754 2.13936C38.228 2.21176 38.1957 2.2929 38.1802 2.37799C38.1647 2.46309 38.1663 2.55042 38.185 2.63487C38.2038 2.71931 38.2392 2.79916 38.2892 2.86972C38.3393 2.94027 38.4029 3.00011 38.4764 3.04572C38.5499 3.09132 38.6318 3.12177 38.7172 3.13528C38.8027 3.14879 38.8899 3.14508 38.9739 3.12437C39.0133 3.11311 39.0546 3.11002 39.0953 3.11528C39.118 3.13086 39.155 3.20613 39.1705 3.26712V6.44217H38.3419C38.1698 6.44217 38.0047 6.51054 37.883 6.63223C37.7614 6.75392 37.693 6.91897 37.693 7.09107V10.4342H32.6731C32.2134 10.4349 31.7727 10.6179 31.4476 10.943C31.1226 11.2682 30.9398 11.7089 30.9393 12.1687V18.7556C29.2171 19.7536 28.053 21.6121 28.053 23.7411C28.0531 24.5972 28.2442 25.4425 28.6126 26.2153C28.9809 26.9881 29.5171 27.6689 30.182 28.2081H10.2323V20.2831C11.0847 20.8179 12.0696 21.1038 13.0758 21.1085C13.2036 21.1085 13.3315 21.104 13.4593 21.0956C16.0685 20.9106 18.2092 18.8088 18.4389 16.2061C18.5407 15.0798 18.2866 13.95 17.7125 12.9756C17.1384 12.0013 16.2731 11.2316 15.2386 10.7749C15.0653 10.6983 14.9563 10.5088 14.966 10.3025C14.9706 10.2149 14.9725 10.1266 14.9725 10.0377C14.9725 7.06057 12.5534 4.63889 9.5802 4.63889C6.60696 4.63889 4.18787 7.06057 4.18787 10.0377C4.18787 10.1273 4.18982 10.2162 4.19436 10.3044C4.20475 10.5108 4.09508 10.7009 3.92183 10.7775C2.88819 11.2353 2.02408 12.0056 1.45105 12.9801C0.878015 13.9546 0.624901 15.0842 0.72731 16.21C0.958966 18.8127 3.10227 20.9132 5.71083 21.0956C6.84203 21.1755 7.96973 20.8979 8.93455 20.3019V28.2081H1.71558C1.54348 28.2081 1.37843 28.2765 1.25674 28.3982C1.13505 28.5199 1.06668 28.6849 1.06668 28.857V60.5835C1.06668 60.7556 1.13505 60.9206 1.25674 61.0423C1.37843 61.164 1.54348 61.2324 1.71558 61.2324H62.3511C62.5232 61.2324 62.6882 61.164 62.8099 61.0423C62.9316 60.9206 63 60.7556 63 60.5835V28.857C63 28.6849 62.9316 28.5199 62.8099 28.3982C62.6882 28.2765 62.5232 28.2081 62.3511 28.2081ZM55.4416 4.34559L56.4428 10.4342H51.6215L51.5294 4.34559H55.4416ZM50.5489 10.8689L46.8243 14.3016C46.5993 14.3014 46.3836 14.212 46.2245 14.0531C46.0654 13.8941 45.9758 13.6784 45.9755 13.4535C45.9755 11.9091 46.1027 10.3544 46.3532 8.83141L47.091 4.34559H50.5489V10.8689ZM38.9908 7.73932H40.6461V10.4335H38.9908V7.73932ZM29.3508 23.7411C29.3508 21.2792 31.3533 19.2767 33.8152 19.2767C36.2771 19.2767 38.2796 21.2792 38.2796 23.7411C38.2796 26.203 36.2765 28.2049 33.8152 28.2049C31.3539 28.2049 29.3508 26.2024 29.3508 23.7404V23.7411ZM5.80168 19.8004C3.8219 19.6615 2.19576 18.0684 2.02056 16.0939C1.94226 15.2384 2.13409 14.3799 2.56907 13.6392C3.00405 12.8984 3.66028 12.3127 4.44549 11.9643C5.10736 11.6723 5.5272 10.9793 5.49021 10.2402C5.48694 10.1725 5.48543 10.1048 5.48567 10.0371C5.48567 7.77566 7.32204 5.93603 9.5802 5.93603C11.8384 5.93603 13.6747 7.77566 13.6747 10.0371C13.6747 10.1045 13.6734 10.1714 13.6695 10.2382C13.6339 10.978 14.0543 11.671 14.7156 11.9617C15.5019 12.3091 16.1595 12.8944 16.5955 13.6353C17.0316 14.3761 17.2243 15.2351 17.1463 16.0913C16.9724 18.0652 15.3476 19.6602 13.3678 19.7997C11.582 19.9301 10.7962 19.0061 10.2096 18.7874C10.1852 18.6386 10.1089 18.5032 9.99435 18.4052C9.87978 18.3071 9.73425 18.2527 9.58345 18.2514C9.26484 18.2514 9.01242 18.4857 8.95726 18.7887C8.37326 19.0074 7.59263 19.9223 5.80168 19.8004ZM2.36448 34.7938H14.9946L13.8707 38.7838H2.36448V34.7938ZM13.506 40.0816L12.3821 44.071H2.36448V40.0816H13.506ZM10.8936 49.3589H2.36448V45.3688H12.0162L10.8936 49.3589ZM2.36448 50.6567H10.5276L9.40435 54.6474H2.36383V50.6567H2.36448ZM17.8108 29.5786H21.442L15.7577 59.8626H9.28366L17.8108 29.5786ZM22.7619 29.5786H26.4158L25.2128 42.3969L23.5737 59.8619H17.0782L22.7619 29.5786ZM26.153 46.2669L27.7195 29.5786H31.3844V59.8626H24.8773L26.153 46.2669ZM32.6822 29.5786H36.3465L37.913 46.2669L39.1887 59.8619H32.6822V29.5786ZM38.8532 42.3969L37.6502 29.5786H41.3035L46.9878 59.8626H40.4923L38.8532 42.3969ZM48.3083 59.8619L42.6246 29.5786H46.2558L54.7823 59.8626H48.3089L48.3083 59.8619ZM52.0492 45.3688H61.7022V49.3589H53.1731L52.0492 45.3688ZM51.6838 44.071L50.5606 40.0816H61.7022V44.071H51.6838ZM61.7022 38.7838H50.1953L49.072 34.7938H61.7022V38.7838ZM53.5384 50.6567H61.7015V54.6474H54.6616L53.5384 50.6567ZM61.7015 33.496H48.7067L47.5841 29.5059H61.7028V33.496H61.7015ZM50.4496 25.2057C50.3584 25.1145 50.2347 25.0633 50.1057 25.0633C49.9768 25.0633 49.8531 25.1145 49.7618 25.2057L49.6333 25.3335C48.6573 24.2116 48.0734 22.8022 47.9702 21.3188H48.1519C48.281 21.3188 48.4048 21.2675 48.496 21.1762C48.5873 21.085 48.6386 20.9612 48.6386 20.8321C48.6386 20.703 48.5873 20.5792 48.496 20.488C48.4048 20.3967 48.281 20.3454 48.1519 20.3454H47.9702C48.0748 18.8626 48.6595 17.4542 49.6359 16.3333L49.7612 16.4585C49.806 16.505 49.8597 16.5421 49.9191 16.5677C49.9785 16.5932 50.0423 16.6067 50.1069 16.6073C50.1715 16.6078 50.2356 16.5956 50.2955 16.5711C50.3553 16.5467 50.4096 16.5106 50.4553 16.4649C50.5011 16.4192 50.5372 16.3649 50.5617 16.3051C50.5862 16.2453 50.5986 16.1812 50.598 16.1166C50.5975 16.052 50.5841 15.9881 50.5586 15.9287C50.5332 15.8693 50.4961 15.8156 50.4496 15.7707L50.3238 15.6448C51.4451 14.669 52.8537 14.0849 54.3365 13.9811V14.1608C54.3365 14.2899 54.3878 14.4137 54.4791 14.5049C54.5703 14.5962 54.6941 14.6475 54.8232 14.6475C54.9523 14.6475 55.0761 14.5962 55.1673 14.5049C55.2586 14.4137 55.3099 14.2899 55.3099 14.1608V13.9811C56.7928 14.0844 58.2017 14.668 59.3233 15.6435L59.1968 15.7707C59.149 15.8153 59.1106 15.869 59.084 15.9287C59.0574 15.9884 59.0431 16.0528 59.0419 16.1182C59.0408 16.1835 59.0528 16.2484 59.0773 16.309C59.1018 16.3696 59.1382 16.4247 59.1844 16.4709C59.2306 16.5171 59.2857 16.5535 59.3463 16.578C59.4069 16.6025 59.4718 16.6145 59.5371 16.6134C59.6025 16.6122 59.6669 16.5979 59.7266 16.5713C59.7863 16.5447 59.84 16.5064 59.8846 16.4585L60.0118 16.332C60.9887 17.4531 61.5737 18.8621 61.6781 20.3454H61.4945C61.3654 20.3454 61.2416 20.3967 61.1504 20.488C61.0591 20.5792 61.0078 20.703 61.0078 20.8321C61.0078 20.9612 61.0591 21.085 61.1504 21.1762C61.2416 21.2675 61.3654 21.3188 61.4945 21.3188H61.6781C61.575 22.8027 60.9909 24.2126 60.0144 25.3348L59.8846 25.205C59.8397 25.1586 59.786 25.1215 59.7266 25.096C59.6672 25.0705 59.6033 25.0571 59.5387 25.0566C59.4741 25.0561 59.41 25.0684 59.3502 25.0929C59.2904 25.1174 59.2361 25.1536 59.1904 25.1993C59.1447 25.245 59.1086 25.2994 59.0842 25.3592C59.0597 25.419 59.0475 25.4831 59.048 25.5477C59.0486 25.6123 59.0621 25.6762 59.0876 25.7356C59.1132 25.7949 59.1503 25.8486 59.1968 25.8935L59.3265 26.0233C58.2044 27.0004 56.7942 27.5849 55.3099 27.6883V27.5041C55.3099 27.375 55.2586 27.2512 55.1673 27.1599C55.0761 27.0687 54.9523 27.0174 54.8232 27.0174C54.6941 27.0174 54.5703 27.0687 54.4791 27.1599C54.3878 27.2512 54.3365 27.375 54.3365 27.5041V27.6877C52.8526 27.5838 51.4429 26.999 50.3212 26.022L50.4496 25.8935C50.5408 25.8022 50.592 25.6785 50.592 25.5496C50.592 25.4206 50.5408 25.2969 50.4496 25.2057ZM16.4838 29.5059L15.3606 33.496H2.36448V29.5059H16.4832H16.4838ZM2.36448 55.9445H9.03902L7.91578 59.9346H2.36448V55.9445ZM61.7022 59.9346H56.1508L55.027 55.9445H61.7022V59.9346Z" fill="white"/>
<path d="M10.1272 11.1415C10.6483 11.1415 11.0662 10.723 11.0662 10.2019C11.0662 9.68083 10.6483 9.2558 10.1272 9.2558C9.60618 9.2558 9.18115 9.68147 9.18115 10.2019C9.18115 10.7223 9.60618 11.1415 10.1272 11.1415ZM12.5054 15.4962C12.6192 15.4966 12.7318 15.4744 12.837 15.4311C12.9421 15.3878 13.0376 15.3241 13.1181 15.2437C13.1985 15.1633 13.2623 15.0678 13.3057 14.9627C13.3491 14.8576 13.3713 14.745 13.3711 14.6313C13.3711 14.5172 13.3486 14.4043 13.305 14.2989C13.2613 14.1935 13.1973 14.0978 13.1167 14.0171C13.036 13.9364 12.9403 13.8725 12.8349 13.8288C12.7295 13.7852 12.6166 13.7627 12.5025 13.7627C12.3885 13.7627 12.2755 13.7852 12.1701 13.8288C12.0648 13.8725 11.969 13.9364 11.8884 14.0171C11.8077 14.0978 11.7437 14.1935 11.7001 14.2989C11.6564 14.4043 11.634 14.5172 11.634 14.6313C11.634 15.1114 12.0253 15.4962 12.5054 15.4962Z" fill="white"/>
</svg>
