<svg width="101" height="101" viewBox="0 0 101 101" fill="none" xmlns="http://www.w3.org/2000/svg">
<path d="M91.551 58.4469C94.2041 56.7906 95.9775 53.8515 95.9775 50.5V44.25C95.9775 39.0797 91.7729 34.875 86.6025 34.875C81.4322 34.875 77.2275 39.0797 77.2275 44.25H74.1025V47.375H77.2275V50.5C77.2275 53.8515 79.001 56.7906 81.6541 58.4469C77.3041 60.0906 73.9822 63.8218 72.915 68.4187C68.801 65.5562 64.115 63.4672 59.0635 62.3547C64.301 59.4078 67.8525 53.8015 67.8525 47.375V44.1094C68.3619 44.1953 68.8822 44.25 69.415 44.25C70.2775 44.25 70.9775 43.55 70.9775 42.6875V30.1875C70.9775 25.0453 66.815 20.8609 61.6838 20.8172C59.3775 16.1922 54.6119 13 49.1025 13H30.3525C29.49 13 28.79 13.7 28.79 14.5625C28.79 19.6656 31.5322 24.1297 35.6119 26.5953C34.2182 29.1234 33.4775 31.95 33.4775 34.875V47.375C33.4775 53.8015 37.0291 59.4078 42.2682 62.3562C37.2166 63.4672 32.5307 65.5578 28.4166 68.4203C27.4088 64.0781 24.3916 60.5015 20.3947 58.7344C22.6416 57.0187 24.1025 54.3203 24.1025 51.2812V45.0312C24.1025 42.3703 23.49 40.4265 22.176 38.9109C21.8822 38.5734 21.4604 38.3781 21.0135 38.3719C20.5869 38.4125 20.1385 38.5531 19.84 38.8828L16.3807 42.6875H7.77441C7.27441 42.6875 6.82598 42.9234 6.53848 43.2937L6.53535 43.2953C6.18223 43.5109 5.35254 44.0172 5.35254 45.0312V51.2812C5.35254 54.3203 6.81348 57.0187 9.06191 58.7328C4.12441 60.9172 0.665039 65.8562 0.665039 71.5937V100.5H3.79004V71.5937C3.79004 65.5625 8.69629 60.6562 14.7275 60.6562C20.4088 60.6562 25.0885 65.0109 25.6119 70.5593C17.0557 77.7297 11.6025 88.4875 11.6025 100.5H14.7275C14.7275 80.6828 30.8494 64.5625 50.665 64.5625C70.4807 64.5625 86.6025 80.6828 86.6025 100.5H89.7275C89.7275 88.4875 84.2744 77.7297 75.7182 70.5593C76.2416 65.0125 80.9213 60.6562 86.6025 60.6562C92.6338 60.6562 97.54 65.5625 97.54 71.5937V100.5H100.665V71.5937C100.665 65.5828 96.8666 60.4562 91.551 58.4469ZM8.47754 51.2812V45.8125H17.0713C17.5119 45.8125 17.9307 45.6265 18.2275 45.3015L20.6838 42.6015C20.8807 43.2797 20.9775 44.0812 20.9775 45.0312V51.2812C20.9775 54.7281 18.1744 57.5312 14.7275 57.5312C11.2807 57.5312 8.47754 54.7281 8.47754 51.2812ZM63.165 24.1344C65.8572 24.8297 67.8525 27.2797 67.8525 30.1875V40.9281C65.1604 40.2328 63.165 37.7828 63.165 34.875V24.1344ZM32.026 16.125H49.1025C54.6041 16.125 59.1682 20.2062 59.9291 25.5H42.8525C37.351 25.5 32.7869 21.4187 32.026 16.125ZM36.6025 47.375V34.875C36.6025 32.4078 37.2729 30.0375 38.4838 27.9219C39.8604 28.3734 41.3275 28.625 42.8525 28.625H60.04V34.875C60.04 38.3359 61.9307 41.3578 64.7275 42.9812V47.375C64.7275 55.1281 58.4182 61.4375 50.665 61.4375C42.9119 61.4375 36.6025 55.1281 36.6025 47.375ZM86.6025 38C90.0494 38 92.8525 40.8031 92.8525 44.25H80.3525C80.3525 40.8031 83.1557 38 86.6025 38ZM80.3525 47.375H92.8525V50.5C92.8525 53.9469 90.0494 56.75 86.6025 56.75C83.1557 56.75 80.3525 53.9469 80.3525 50.5V47.375Z" fill="#5DC0CC"/>
<path d="M56.6026 71.4375L51.9151 65.1875C51.326 64.4 50.0042 64.4 49.4151 65.1875L44.7276 71.4375C44.2604 72.0594 44.3229 72.9297 44.8729 73.4797L47.451 76.0594L44.4276 98.7313C44.3682 99.1766 44.5042 99.6266 44.801 99.9672C45.0995 100.306 45.5276 100.5 45.9776 100.5H55.3526C55.8026 100.5 56.2307 100.306 56.5276 99.9672C56.8245 99.6266 56.9604 99.1766 56.901 98.7313L53.8776 76.0594L56.4557 73.4797C57.0073 72.9297 57.0698 72.0594 56.6026 71.4375ZM50.6651 68.7297L53.2901 72.2297L51.1229 74.3969C50.8292 74.6907 50.6667 75.086 50.6651 75.4954C50.6635 75.086 50.501 74.6907 50.2073 74.3969L48.0401 72.2297L50.6651 68.7297ZM47.762 97.375L50.651 75.7063C50.6604 75.6391 50.6651 75.5735 50.6651 75.5063C50.6651 75.5719 50.6698 75.6391 50.6792 75.7063L53.5682 97.375H47.762Z" fill="#5DC0CC"/>
<path d="M3.79004 44.25C3.79004 38.2187 8.69629 33.3125 14.7275 33.3125C20.7588 33.3125 25.665 38.2187 25.665 44.25V59.875H28.79V44.25C28.79 36.4969 22.4807 30.1875 14.7275 30.1875C6.97441 30.1875 0.665039 36.4969 0.665039 44.25V59.875H3.79004V44.25Z" fill="#5DC0CC"/>
<path d="M10.04 0.5H6.91504V6.75H10.04V0.5Z" fill="#5DC0CC"/>
<path d="M10.04 9.875H6.91504V16.125H10.04V9.875Z" fill="#5DC0CC"/>
<path d="M16.29 6.75H10.04V9.875H16.29V6.75Z" fill="#5DC0CC"/>
<path d="M6.91504 6.75H0.665039V9.875H6.91504V6.75Z" fill="#5DC0CC"/>
<path d="M58.4775 45.8125C58.4775 50.9828 54.2729 55.1875 49.1025 55.1875V58.3125C55.9947 58.3125 61.6025 52.7047 61.6025 45.8125H58.4775Z" fill="#5DC0CC"/>
</svg>
