<svg width="54" height="52" viewBox="0 0 54 52" fill="none" xmlns="http://www.w3.org/2000/svg">
<path d="M2.65897 32.4378C2.41013 32.023 2.32718 31.6083 2.32718 31.1106V3.82028C2.24423 2.24424 3.57142 1 5.14745 1H48.2811C49.8571 1 51.1014 2.24424 51.1014 3.82028V31.1106C51.1014 31.6083 50.9355 32.106 50.7696 32.4378M20.3272 33.9309H14.7696M38.659 33.9309H33.1014" stroke="white" stroke-width="1.5" stroke-miterlimit="10" stroke-linecap="round" stroke-linejoin="round"/>
<path d="M34.0968 23.977C34.0968 25.4701 32.8525 26.6314 31.4424 26.6314H21.9862C20.4931 26.6314 19.3318 25.4701 19.3318 24.0599C19.3318 21.2397 20.9078 19.3318 23.3134 18.4194L26.7143 21.7373L30.1152 18.3364C32.5207 19.2489 34.0968 21.1567 34.0968 23.977Z" stroke="white" stroke-width="1.5" stroke-miterlimit="10" stroke-linecap="round" stroke-linejoin="round"/>
<path d="M26.7143 14.8526C28.5926 14.8526 30.1152 13.33 30.1152 11.4517C30.1152 9.57343 28.5926 8.05078 26.7143 8.05078C24.836 8.05078 23.3134 9.57343 23.3134 11.4517C23.3134 13.33 24.836 14.8526 26.7143 14.8526Z" stroke="white" stroke-width="1.5" stroke-miterlimit="10"/>
<path d="M13.1106 50.7697C14.6037 50.7697 15.765 49.6084 15.765 48.1982C15.765 44.1337 12.447 41.9771 8.38249 41.9771C4.31797 41.9771 1 44.0508 1 48.1153C1 49.6084 2.24424 50.7697 3.65438 50.7697H13.1106Z" stroke="white" stroke-width="1.5" stroke-miterlimit="10"/>
<path d="M8.38249 39.0738C10.2608 39.0738 11.7834 37.5512 11.7834 35.6729C11.7834 33.7946 10.2608 32.272 8.38249 32.272C6.50421 32.272 4.98157 33.7946 4.98157 35.6729C4.98157 37.5512 6.50421 39.0738 8.38249 39.0738Z" stroke="white" stroke-width="1.5" stroke-miterlimit="10"/>
<path d="M31.4424 50.7697C32.9355 50.7697 34.0968 49.6084 34.0968 48.1982C34.0968 44.1337 30.7788 41.9771 26.7143 41.9771C22.6498 41.9771 19.3318 44.0508 19.3318 48.1982C19.3318 49.6913 20.576 50.7697 21.9862 50.7697H31.4424Z" stroke="white" stroke-width="1.5" stroke-miterlimit="10"/>
<path d="M26.7143 39.0738C28.5926 39.0738 30.1152 37.5512 30.1152 35.6729C30.1152 33.7946 28.5926 32.272 26.7143 32.272C24.836 32.272 23.3134 33.7946 23.3134 35.6729C23.3134 37.5512 24.836 39.0738 26.7143 39.0738Z" stroke="white" stroke-width="1.5" stroke-miterlimit="10"/>
<path d="M49.7742 50.7697C51.2673 50.7697 52.4286 49.6084 52.4286 48.1982C52.4286 44.1337 49.1106 41.9771 45.0461 41.9771C40.9816 41.9771 37.6636 44.0508 37.6636 48.1982C37.6636 49.6913 38.9078 50.7697 40.318 50.7697H49.7742Z" stroke="white" stroke-width="1.5" stroke-miterlimit="10"/>
<path d="M45.0461 39.0738C46.9244 39.0738 48.447 37.5512 48.447 35.6729C48.447 33.7946 46.9244 32.272 45.0461 32.272C43.1678 32.272 41.6452 33.7946 41.6452 35.6729C41.6452 37.5512 43.1678 39.0738 45.0461 39.0738Z" stroke="white" stroke-width="1.5" stroke-miterlimit="10"/>
</svg>
