<svg width="46" height="50" viewBox="0 0 46 50" fill="none" xmlns="http://www.w3.org/2000/svg">
<path d="M43.0866 22.0601V11.7074C44.7581 10.59 45.8571 8.68753 45.8571 6.52649C45.8571 3.09099 43.0589 0.292725 39.6234 0.292725C37.2684 0.292725 35.2274 1.60412 34.1654 3.52505L14.6052 8.82606C14.0418 8.67829 13.4508 8.59518 12.8413 8.59518C8.89783 8.59518 5.68398 11.809 5.68398 15.7525C5.68398 17.581 6.37662 19.2526 7.51255 20.5178L5.82251 39.0714H4.52958C3.643 39.0714 2.91342 39.801 2.91342 40.6875V42.7655H2.68254C1.27878 42.7655 0.142853 43.9014 0.142853 45.3051V48.9992C0.142853 49.3779 0.45685 49.6919 0.835493 49.6919H24.847C25.2257 49.6919 25.5397 49.3779 25.5397 48.9992V45.3051C25.5397 43.9014 24.4037 42.7655 23 42.7655H22.7691V40.6875C22.7691 39.801 22.0395 39.0714 21.153 39.0714H19.86L18.17 20.5178C18.2993 20.3793 18.4193 20.2315 18.5302 20.0838L36.1694 12.4832V22.0509L34.3962 25.5972C34.3131 25.7634 34.3039 25.9481 34.3593 26.1236L36.2063 31.6647C36.3264 32.0249 36.7143 32.2281 37.0837 32.0988C37.4439 31.9787 37.647 31.5816 37.5177 31.2214L35.7631 25.9481L37.2869 22.8913H41.9691L43.4929 25.9481L41.7382 31.2214C41.6182 31.5816 41.8121 31.9787 42.1723 32.0988C42.2462 32.1265 42.3201 32.1357 42.3939 32.1357C42.6802 32.1357 42.9573 31.951 43.0496 31.6647L44.8967 26.1236C44.9521 25.9481 44.9429 25.7542 44.8597 25.5972L43.0866 22.0509V22.0601ZM39.6234 1.67801C42.2923 1.67801 44.4719 3.84828 44.4719 6.52649C44.4719 9.2047 42.2923 11.375 39.6234 11.375C36.9544 11.375 34.7749 9.2047 34.7749 6.52649C34.7749 3.84828 36.9544 1.67801 39.6234 1.67801ZM12.8413 9.98969C16.0274 9.98969 18.6133 12.5756 18.6133 15.7617C18.6133 18.9478 16.0274 21.5337 12.8413 21.5337C9.65512 21.5337 7.06926 18.9478 7.06926 15.7617C7.06926 12.5756 9.65512 9.98969 12.8413 9.98969ZM24.1544 45.3144V48.3158H1.52813V45.3144C1.52813 44.6771 2.04531 44.16 2.68254 44.16H23C23.6372 44.16 24.1544 44.6771 24.1544 45.3144ZM21.3838 40.6968V42.7747H4.2987V40.6968C4.2987 40.5675 4.40028 40.4659 4.52958 40.4659H21.153C21.2822 40.4659 21.3838 40.5675 21.3838 40.6968ZM7.21702 39.0806L8.79624 21.663C9.95065 22.4572 11.3359 22.919 12.8413 22.919C14.3466 22.919 15.7319 22.4572 16.8771 21.663L18.4655 39.0806H7.21702ZM16.6462 9.71264L33.5466 5.13197C33.445 5.5845 33.3804 6.04626 33.3804 6.53573C33.3804 8.41971 34.2208 10.1098 35.5506 11.2549L19.583 18.1351C19.8416 17.3963 19.9893 16.6021 19.9893 15.7709C19.9893 13.222 18.6502 10.9871 16.6369 9.72187L16.6462 9.71264ZM37.5454 21.5337V12.4001C38.2011 12.631 38.8938 12.7603 39.6234 12.7603C40.353 12.7603 41.0456 12.631 41.7013 12.4001V21.5337H37.5454ZM12.8413 18.3014C14.245 18.3014 15.3809 17.1655 15.3809 15.7617C15.3809 14.3579 14.245 13.222 12.8413 13.222C11.4375 13.222 10.3016 14.3579 10.3016 15.7617C10.3016 17.1655 11.4375 18.3014 12.8413 18.3014ZM12.8413 14.6073C13.4785 14.6073 13.9957 15.1245 13.9957 15.7617C13.9957 16.3989 13.4785 16.9161 12.8413 16.9161C12.204 16.9161 11.6869 16.3989 11.6869 15.7617C11.6869 15.1245 12.204 14.6073 12.8413 14.6073ZM39.6234 9.06617C41.0271 9.06617 42.1631 7.93024 42.1631 6.52649C42.1631 5.12274 41.0271 3.98681 39.6234 3.98681C38.2196 3.98681 37.0837 5.12274 37.0837 6.52649C37.0837 7.93024 38.2196 9.06617 39.6234 9.06617ZM39.6234 5.37209C40.2606 5.37209 40.7778 5.88926 40.7778 6.52649C40.7778 7.16372 40.2606 7.68089 39.6234 7.68089C38.9861 7.68089 38.469 7.16372 38.469 6.52649C38.469 5.88926 38.9861 5.37209 39.6234 5.37209Z" fill="white"/>
</svg>
