<svg width="54" height="58" viewBox="0 0 54 58" fill="none" xmlns="http://www.w3.org/2000/svg">
<path d="M9.35912 23.6386L1.35634 37.8594C1.21943 38.1042 1.29212 38.4131 1.52476 38.5694L4.66165 40.6752C4.92094 40.8497 5.27473 40.7661 5.42861 40.4935L13.5271 26.1866C13.6689 25.9358 13.5877 25.6184 13.3442 25.4657L10.1115 23.4459C9.85225 23.2848 9.50936 23.372 9.35912 23.6386ZM52.476 38.5706L49.3379 40.6777C49.0798 40.8497 48.7248 40.7661 48.5721 40.4947L47.9893 39.4624L41.4357 27.889L40.4736 26.1878C40.3343 25.9382 40.4143 25.6208 40.6566 25.4681L43.8892 23.4471C44.1497 23.286 44.4938 23.372 44.6416 23.641L52.6468 37.8618C52.7825 38.1054 52.7074 38.4143 52.476 38.5706Z" stroke="white" stroke-width="1.5" stroke-miterlimit="10" stroke-linecap="round" stroke-linejoin="round"/>
<path d="M41.4344 27.889C37.5923 30.299 27.3214 24.3741 21.7831 28.3894L17.1268 34.1568C16.8929 34.4439 16.7827 34.7856 16.7827 35.1212C16.7827 35.6616 17.065 36.1911 17.5812 36.4758C18.1567 36.7908 18.8655 36.7097 19.3525 36.2747C19.3525 36.2747 22.5343 34.5893 23.7241 32.3648L26.277 31.4997C32.4841 33.8672 43.0338 42.4988 43.0338 42.4988C44.4332 42.1741 47.5907 39.7714 47.9893 39.4649M12.8837 27.3256C12.8837 27.3256 14.2795 30.0469 20.4454 30.0469" stroke="white" stroke-width="1.5" stroke-miterlimit="10" stroke-linecap="round" stroke-linejoin="round"/>
<path d="M20.0403 51.0271L20.0372 51.0225" stroke="white" stroke-width="1.5" stroke-miterlimit="10" stroke-linecap="round" stroke-linejoin="round"/>
<path d="M6.28883 38.9739L9.17492 42.4961L9.52993 42.776" stroke="white" stroke-width="1.5" stroke-miterlimit="10" stroke-linecap="round" stroke-linejoin="round"/>
<path d="M13.0315 45.5256L13.0182 45.5146" stroke="white" stroke-width="1.5" stroke-miterlimit="10" stroke-linecap="round" stroke-linejoin="round"/>
<path d="M16.5404 48.2794L16.5186 48.26" stroke="white" stroke-width="1.5" stroke-miterlimit="10" stroke-linecap="round" stroke-linejoin="round"/>
<path d="M19.567 55.3649C18.5844 54.6295 18.3833 53.2349 19.1199 52.2523L21.0997 49.5939C21.8364 48.6113 23.2298 48.4102 24.2124 49.1469C25.195 49.8823 25.3961 51.2769 24.6595 52.2595L22.6797 54.9178C21.943 55.9004 20.5496 56.1016 19.567 55.3649Z" stroke="white" stroke-width="1.5" stroke-miterlimit="10" stroke-linecap="round" stroke-linejoin="round"/>
<path d="M15.5978 53.2458C14.6151 52.5103 14.414 51.1158 15.1507 50.1331L17.9907 46.3383C18.7262 45.3557 20.1208 45.1546 21.1034 45.8912C22.086 46.6267 22.2871 48.0213 21.5505 49.0039L18.7104 52.7987C17.975 53.7813 16.5816 53.9825 15.5978 53.2458Z" stroke="white" stroke-width="1.5" stroke-miterlimit="10" stroke-linecap="round" stroke-linejoin="round"/>
<path d="M11.6394 51.123C10.6567 50.3875 10.4556 48.9929 11.1923 48.0103L14.8065 43.0705C15.542 42.0879 16.9366 41.8867 17.9192 42.6234C18.903 43.3589 19.103 44.7535 18.3663 45.7361L14.752 50.6759C14.0153 51.6585 12.622 51.8584 11.6394 51.123Z" stroke="white" stroke-width="1.5" stroke-miterlimit="10" stroke-linecap="round" stroke-linejoin="round"/>
<path d="M8.99804 47.2447C8.0142 46.508 7.81428 45.1146 8.54974 44.132L10.1551 41.9135C10.8906 40.9309 12.2852 40.7298 13.2678 41.4664C14.2504 42.2031 14.4516 43.5965 13.7149 44.5791L12.1107 46.7976C11.374 47.7802 9.98067 47.9801 8.99804 47.2447Z" stroke="white" stroke-width="1.5" stroke-miterlimit="10" stroke-linecap="round" stroke-linejoin="round"/>
<path d="M27.7989 49.5334L32.8974 52.8654C34.0824 53.5924 34.3174 54.9894 33.4341 55.9732C32.9071 56.5548 32.1026 56.8674 31.2859 56.8674C30.7274 56.8674 30.1676 56.722 29.6878 56.4203L24.3663 52.9429M31.3089 46.0452L31.6446 46.2693L37.67 50.2834C38.8549 51.0213 39.09 52.4074 38.2067 53.3912C37.6809 53.9728 36.8764 54.2854 36.0597 54.2854C35.5012 54.2854 34.9305 54.14 34.4495 53.8383L27.8752 49.4559" stroke="white" stroke-width="1.5" stroke-miterlimit="10" stroke-linecap="round" stroke-linejoin="round"/>
<path d="M34.7414 42.6357L35.7035 43.2621L40.3101 46.2476L41.6065 47.0969C42.7915 47.8348 43.0265 49.2209 42.1433 50.2048C41.6174 50.7863 40.8129 51.0989 39.9963 51.0989C39.4377 51.0989 38.8779 50.9535 38.3981 50.6518L31.6457 46.2694L31.3101 46.0453" stroke="white" stroke-width="1.5" stroke-miterlimit="10" stroke-linecap="round" stroke-linejoin="round"/>
<path d="M38.1958 39.2139L43.0036 42.4453C44.1885 43.1831 44.4236 44.5692 43.5403 45.5531C43.0145 46.1347 42.2099 46.4473 41.3933 46.4473C41.025 46.4473 40.6663 46.3915 40.3198 46.257C40.3089 46.257 40.3089 46.2461 40.3089 46.2461C40.1187 46.1904 39.9515 46.1007 39.7831 46.0002L35.7811 43.3164L35.7023 43.2607L34.7524 42.6234" stroke="white" stroke-width="1.5" stroke-miterlimit="10" stroke-linecap="round" stroke-linejoin="round"/>
<path d="M35.4793 5.65435C35.128 5.12487 34.7221 4.63537 34.275 4.17496C33.7927 3.69273 33.2633 3.24564 32.6926 2.85429L30.9382 4.30581C30.3941 3.99564 29.8029 3.74847 29.1898 3.57641L28.9753 1.32522C28.3489 1.19436 27.6813 1.13257 26.9931 1.13257C26.3182 1.13257 25.6506 1.19436 25.0254 1.32522L24.8122 3.5752C24.1991 3.74725 23.6078 3.99443 23.0638 4.3046L21.3094 2.85308C20.7593 3.22504 20.2431 3.65759 19.7742 4.12649C19.3066 4.59418 18.8801 5.10427 18.5081 5.65435L19.9669 7.40273C19.6567 7.94674 19.4095 8.53802 19.2375 9.1511L16.973 9.37767C16.8494 10.0114 16.7803 10.6717 16.7803 11.3466C16.7803 12.0214 16.8494 12.6951 16.973 13.3288L19.2375 13.542C19.3138 13.8243 19.4095 14.0994 19.5198 14.3611C19.6507 14.6846 19.7948 14.9948 19.9669 15.2904L18.5081 17.0388C19.2581 18.1462 20.208 19.0961 21.3094 19.8401L23.0638 18.3873C23.6078 18.6975 24.1918 18.9374 24.8122 19.1167L25.0254 21.3667C25.6034 21.4903 26.2225 21.5593 26.8429 21.5593C26.8913 21.5666 26.9458 21.5666 27.0016 21.5666C27.6825 21.5593 28.3441 21.5048 28.9765 21.3667L29.1898 19.1167C29.8089 18.9374 30.3941 18.6963 30.9382 18.3873L32.6926 19.8401C33.794 19.0961 34.7439 18.1474 35.4793 17.0388L34.0484 15.2904C34.3513 14.7537 34.5985 14.1478 34.7705 13.536L37.0205 13.3227C37.1514 12.6963 37.2204 12.0214 37.2204 11.3478C37.2204 10.6729 37.1514 10.0126 37.0205 9.37283L34.7705 9.15958C34.5985 8.54771 34.3501 7.95523 34.0411 7.41121L35.4793 5.65435Z" stroke="white" stroke-width="1.5" stroke-miterlimit="10" stroke-linecap="round" stroke-linejoin="round"/>
<path d="M27.0004 15.5873C29.3425 15.5873 31.2411 13.6887 31.2411 11.3466C31.2411 9.00458 29.3425 7.10596 27.0004 7.10596C24.6583 7.10596 22.7597 9.00458 22.7597 11.3466C22.7597 13.6887 24.6583 15.5873 27.0004 15.5873Z" stroke="white" stroke-width="1.5" stroke-miterlimit="10" stroke-linecap="round" stroke-linejoin="round"/>
</svg>
