<svg width="57" height="56" viewBox="0 0 57 56" fill="none" xmlns="http://www.w3.org/2000/svg">
<path d="M28.1072 0C23.903 0.00373204 19.8719 1.67528 16.8987 4.64781C13.9256 7.62034 12.2531 11.6511 12.2484 15.8553C12.2522 20.0599 13.9243 24.0911 16.8977 27.0638C19.8711 30.0366 23.9027 31.7078 28.1072 31.7106C32.2808 31.7106 36.0878 30.0891 38.9218 27.4454C39.8806 26.5994 38.5588 25.1894 37.6458 26.0847C35.0604 28.5061 31.6494 29.8511 28.1072 29.8459C26.2692 29.8482 24.4487 29.4879 22.75 28.7856C21.0513 28.0834 19.5079 27.053 18.208 25.7535C16.9081 24.4539 15.8773 22.9108 15.1747 21.2123C14.472 19.5138 14.1113 17.6934 14.1131 15.8553C14.1113 14.0172 14.472 12.1968 15.1747 10.4983C15.8773 8.79981 16.9081 7.25665 18.208 5.95709C19.5079 4.65753 21.0513 3.62715 22.75 2.92492C24.4487 2.22269 26.2692 1.86236 28.1072 1.86468C29.945 1.86328 31.7651 2.22442 33.4631 2.92728C35.1612 3.63015 36.704 4.66101 38.0032 5.96085C39.3024 7.26069 40.3324 8.80395 41.0344 10.5024C41.7365 12.2008 42.0966 14.021 42.0943 15.8588C42.0943 18.3967 41.4175 20.7762 40.2366 22.8277C39.6162 23.9063 41.2342 24.837 41.8546 23.7583C43.2362 21.3468 43.9603 18.6146 43.9543 15.8353C43.9483 13.056 43.2126 10.3271 41.8206 7.92148C40.4286 5.51589 38.4293 3.51797 36.0227 2.1278C33.6161 0.737625 30.8865 0.00390195 28.1072 0ZM25.2591 6.53174C25.0209 6.54519 24.7968 6.64897 24.6324 6.82187C24.468 6.99476 24.3757 7.2238 24.3743 7.46236V12.1223H19.7108C19.5878 12.1223 19.4661 12.1466 19.3525 12.1938C19.2389 12.2409 19.1358 12.3101 19.049 12.3972C18.9622 12.4843 18.8935 12.5878 18.8468 12.7015C18.8 12.8152 18.7762 12.9371 18.7767 13.06V18.6576C18.7767 19.1723 19.1997 19.5882 19.7108 19.5882H24.3743V24.2553C24.3743 24.7664 24.7903 25.1824 25.3014 25.1859H30.9025C31.0252 25.1864 31.1468 25.1626 31.2603 25.1161C31.3738 25.0696 31.477 25.0011 31.5641 24.9147C31.6512 24.8283 31.7204 24.7256 31.7677 24.6124C31.8151 24.4993 31.8397 24.378 31.8402 24.2553V19.5882H36.5002C36.6228 19.5887 36.7444 19.565 36.8579 19.5185C36.9714 19.472 37.0747 19.4036 37.1617 19.3172C37.2488 19.2307 37.318 19.128 37.3654 19.0149C37.4127 18.9017 37.4374 18.7803 37.4378 18.6576V13.06C37.4383 12.9368 37.4143 12.8146 37.3674 12.7006C37.3204 12.5867 37.2514 12.4832 37.1642 12.396C37.0771 12.3088 36.9735 12.2397 36.8595 12.1928C36.7456 12.1458 36.6234 12.1219 36.5002 12.1223H31.8366V7.46236C31.8362 7.33969 31.8116 7.21826 31.7642 7.10511C31.7168 6.99195 31.6476 6.88924 31.5606 6.80283C31.4735 6.71641 31.3703 6.64807 31.2568 6.60156C31.1432 6.55504 31.0217 6.53128 30.899 6.53174H25.2591ZM26.239 8.39997H29.9719V13.06C29.9719 13.5712 30.3879 13.9871 30.899 13.9871H35.5696V17.7236H30.899C30.6525 17.7254 30.4167 17.8246 30.243 17.9996C30.0694 18.1746 29.9719 18.4111 29.9719 18.6576V23.3177H26.239V18.6576C26.2395 18.5344 26.2155 18.4123 26.1686 18.2983C26.1216 18.1844 26.0526 18.0807 25.9654 17.9936C25.8783 17.9064 25.7747 17.8374 25.6607 17.7905C25.5468 17.7435 25.4246 17.7195 25.3014 17.72H20.6449V13.9871H25.3049C25.552 13.988 25.7895 13.891 25.9652 13.7172C26.141 13.5434 26.2407 13.3072 26.2425 13.06L26.239 8.39997ZM2.27633 37.978L9.73162 45.4333C10.4824 46.1876 10.3873 46.4802 10.3873 48.5071H8.47321C8.235 48.5196 8.01052 48.6225 7.84549 48.7947C7.68046 48.9669 7.58728 49.1956 7.58492 49.4341V55.0317C7.58492 55.5499 8.00439 55.9728 8.52256 55.9693H25.3049C25.4282 55.9698 25.5503 55.9459 25.6643 55.899C25.7782 55.852 25.8818 55.7829 25.969 55.6957C26.0561 55.6086 26.1252 55.5051 26.1721 55.3911C26.2191 55.2771 26.243 55.155 26.2425 55.0317V49.4341C26.2407 49.187 26.141 48.9506 25.9652 48.7768C25.7895 48.6031 25.552 48.5061 25.3049 48.5071H12.2555C12.2555 46.5683 12.4635 45.5249 11.05 44.1078L3.58761 36.649L3.57351 36.642C2.16353 35.2779 1.60658 33.9137 1.9767 31.8833C2.75219 28.9576 3.70393 23.4058 4.1939 21.5199C4.48295 20.3955 5.06457 19.5918 5.90704 19.5918C6.83763 19.5918 7.58844 20.3214 7.58844 21.2696V26.4267C7.58844 27.671 9.45667 27.671 9.45667 26.4267V21.2696C9.45667 19.3203 7.90569 17.7236 5.90704 17.7236C3.88723 17.7236 2.86147 19.2921 2.3997 21.0299C1.80751 23.2401 0.88044 28.7848 0.154298 31.5096C-0.321571 34.1146 0.549094 36.3036 2.27633 37.978ZM53.8218 21.0299C53.3636 19.2604 52.2532 17.7236 50.3039 17.7236C49.3646 17.7273 48.4648 18.102 47.8005 18.7663C47.1363 19.4305 46.7615 20.3303 46.7578 21.2696V26.4267C46.7578 27.671 48.626 27.671 48.626 26.4267V21.2696C48.626 20.3214 49.4015 19.5918 50.3039 19.5918C51.3015 19.5918 51.7844 20.6351 52.0206 21.5164C52.5211 23.4058 53.4588 28.9576 54.2378 31.8869C54.6079 33.9137 53.9558 35.3201 52.6304 36.6455L45.1681 44.1149C43.7158 45.5708 43.966 46.6459 43.966 48.5071H30.8602C30.6227 48.5205 30.3991 48.6236 30.2348 48.7958C30.0705 48.9679 29.9778 49.1962 29.9755 49.4341V55.0317C29.9755 55.5463 30.3879 55.9658 30.9025 55.9693H47.6884C47.8114 55.9693 47.9331 55.945 48.0467 55.8979C48.1603 55.8507 48.2634 55.7817 48.3502 55.6946C48.437 55.6074 48.5057 55.504 48.5524 55.3902C48.5992 55.2765 48.623 55.1547 48.6225 55.0317V49.4341C48.6207 49.1876 48.5214 48.9518 48.3464 48.7781C48.1715 48.6045 47.9349 48.507 47.6884 48.5071H45.8307C45.8307 46.5049 45.7074 46.2123 46.4829 45.4333L53.9417 37.9744C55.7888 36.1838 56.5361 34.111 56.0602 31.5096C55.334 28.7883 54.3999 23.2401 53.8218 21.0299ZM21.5755 44.1255V45.7047C21.5473 46.9736 23.4684 46.9736 23.4437 45.7047V44.1255C23.4437 42.148 23.3873 39.7299 21.1948 37.5338L13.6091 29.8917C13.2471 29.5295 12.8173 29.2421 12.3442 29.046C11.8712 28.8498 11.3641 28.7488 10.852 28.7486C9.81781 28.7483 8.82582 29.1588 8.09427 29.8899C7.36273 30.621 6.95157 31.6128 6.95124 32.647C6.95091 33.6812 7.36144 34.6732 8.09251 35.4047L13.595 40.9108C14.4762 41.792 15.7981 40.4701 14.9168 39.5889L9.4179 34.09C9.22604 33.9028 9.07358 33.6791 8.96947 33.4321C8.86537 33.1851 8.81175 32.9198 8.81175 32.6517C8.81175 32.3837 8.86537 32.1184 8.96947 31.8714C9.07358 31.6244 9.22604 31.4007 9.4179 31.2136C9.60507 31.0217 9.82874 30.8692 10.0757 30.7651C10.3227 30.661 10.588 30.6074 10.8561 30.6074C11.1241 30.6074 11.3894 30.661 11.6364 30.7651C11.8834 30.8692 12.1071 31.0217 12.2943 31.2136L19.8729 38.8486C21.6354 40.6111 21.5755 42.148 21.5755 44.1255ZM43.9237 31.21C44.1109 31.0182 44.3346 30.8658 44.5816 30.7617C44.8286 30.6576 45.0939 30.6038 45.3619 30.6038C45.63 30.6038 45.8953 30.6576 46.1423 30.7617C46.3893 30.8658 46.6129 31.0182 46.8001 31.21C46.992 31.3972 47.1444 31.6208 47.2485 31.8678C47.3526 32.1148 47.4063 32.3801 47.4063 32.6482C47.4063 32.9162 47.3526 33.1816 47.2485 33.4286C47.1444 33.6756 46.992 33.8993 46.8001 34.0864L41.3012 39.5889C40.3847 40.4666 41.7347 41.8237 42.616 40.9108L48.1149 35.4047C49.6307 33.889 49.6483 31.4215 48.1149 29.8882C47.7556 29.5213 47.3266 29.2299 46.8531 29.0311C46.3796 28.8323 45.8712 28.7301 45.3577 28.7305C44.8441 28.7308 44.3358 28.8336 43.8626 29.0331C43.3894 29.2325 42.9608 29.5244 42.6019 29.8917L35.0232 37.5303C32.8236 39.7299 32.7672 42.148 32.7672 44.1255V45.7047C32.7426 46.9736 34.6637 46.9736 34.6355 45.7047V44.1255C34.6355 42.148 34.5826 40.6111 36.3416 38.8486L43.9237 31.21ZM9.44962 50.3717H24.3814V54.1046H9.44962V50.3717ZM31.8402 50.3717H46.7578V54.1046H31.8402V50.3717Z" fill="white"/>
</svg>
