<svg width="110" height="100" viewBox="0 0 110 100" fill="none" xmlns="http://www.w3.org/2000/svg">
<path d="M109.693 36.921C109.693 32.188 105.843 28.3379 101.11 28.3379C99.641 28.3379 98.2173 28.7112 96.957 29.4087L82.1042 13.3188C83.0252 11.9251 83.5347 10.2766 83.5347 8.58311C83.5347 3.85014 79.6846 0 74.9516 0C70.923 0 67.5361 2.79019 66.6164 6.53951H48.4094C47.4897 2.79019 44.1028 0 40.0742 0C35.3412 0 31.4911 3.85014 31.4911 8.58311C31.4911 9.38556 31.6042 10.1798 31.8235 10.9441L15.7786 20.1117C14.1764 18.4292 11.9312 17.4387 9.55649 17.4387C4.82352 17.4387 0.973389 21.2888 0.973389 26.0218C0.973389 30.0504 3.76358 33.4373 7.5129 34.3569V41.6649C3.76358 42.5845 0.973389 45.9714 0.973389 50C0.973389 54.733 4.82352 58.5831 9.55649 58.5831C11.4788 58.5831 13.3058 57.9482 14.7895 56.8025L23.5701 63.8283C23.0497 64.9523 22.7718 66.1867 22.7718 67.4387C22.7718 72.1717 26.6219 76.0218 31.3549 76.0218C35.3835 76.0218 38.7704 73.2316 39.69 69.4823H51.3576C52.2772 73.2316 55.6641 76.0218 59.6927 76.0218C60.8235 76.0218 61.923 75.8038 62.9448 75.3856L70.5769 85.8801C69.284 87.4142 68.5483 89.376 68.5483 91.4169C68.5483 96.1499 72.3985 100 77.1314 100C81.8644 100 85.7145 96.1499 85.7145 91.4169C85.7145 89.4946 85.0797 87.6676 83.9339 86.1839L90.9598 77.4033C92.0837 77.9237 93.3181 78.2016 94.5701 78.2016C99.3031 78.2016 103.153 74.3515 103.153 69.6185C103.153 66.2398 101.164 63.2343 98.2091 61.846L101.479 45.4945C106.04 45.3011 109.693 41.53 109.693 36.921ZM105.606 36.921C105.606 39.4005 103.589 41.4169 101.11 41.4169C100.813 41.4169 100.514 41.3883 100.228 41.3311H100.227C98.2486 40.936 96.7677 39.2561 96.626 37.2425C96.6178 37.1376 96.6151 37.0286 96.6151 36.921C96.6151 35.6526 97.1287 34.4796 98.0633 33.6172C98.8944 32.8488 99.9775 32.4251 101.111 32.4251C103.589 32.4251 105.606 34.4414 105.606 36.921ZM94.2009 61.0436C93.1028 61.0913 92.0238 61.3529 91.0279 61.8024L77.3494 44.3937C78.2295 43.2738 78.8153 41.9564 79.0538 40.545L92.9407 39.5531C93.6709 41.8134 95.3181 43.6839 97.4707 44.6935L94.2009 61.0436ZM80.7418 83.6321C79.6178 83.1117 78.3835 82.8338 77.1314 82.8338C76.0006 82.8338 74.9012 83.0518 73.8794 83.47L66.2472 72.9768C66.9884 72.1022 67.5442 71.0913 67.8848 69.9973L86.1219 71.1376C86.363 72.4959 86.9284 73.7643 87.7663 74.8501L80.7418 83.6321ZM59.6927 58.8556C58.7363 58.8556 57.7963 59.015 56.9039 59.3215L46.299 42.8256C47.1805 41.8937 47.8453 40.7725 48.2404 39.5545L62.1341 40.5463C62.5265 42.8093 63.8222 44.8352 65.6927 46.1444L60.7758 58.9251C60.4189 58.8801 60.0579 58.8556 59.6927 58.8556ZM35.6096 59.9864L39.7486 45.4973C39.8562 45.5014 39.9652 45.5041 40.0742 45.5041C41.0306 45.5041 41.972 45.3447 42.863 45.0395L53.4639 61.5313C52.4339 62.6144 51.7077 63.9441 51.3535 65.3965H39.6859C39.1246 63.1185 37.6423 61.154 35.6096 59.9864ZM26.1219 60.6349L17.3412 53.609C17.8617 52.485 18.1396 51.2507 18.1396 49.9986C18.1396 49.5232 18.1001 49.0545 18.0238 48.594L33.2159 42.0831C33.9189 43.0191 34.8031 43.7984 35.8181 44.376L31.6791 58.861C31.5715 58.8569 31.4625 58.8542 31.3549 58.8542C29.4312 58.8556 27.6042 59.4905 26.1219 60.6349ZM16.72 30.7493L31.5374 36.0409C31.5074 36.3324 31.4911 36.6253 31.4911 36.9196C31.4911 37.3951 31.5306 37.8638 31.6069 38.3243L16.4134 44.8365C15.2241 43.2548 13.5211 42.1322 11.5987 41.6621V34.3542C13.6941 33.8406 15.5292 32.549 16.72 30.7493ZM38.0306 16.9169V28.5858C35.9352 29.1022 34.1015 30.3937 32.9121 32.1921L18.0933 26.9005C18.1233 26.609 18.1396 26.3161 18.1396 26.0218C18.1396 25.2193 18.0265 24.4251 17.8072 23.6608L33.8521 14.4932C34.9843 15.6812 36.438 16.5245 38.0306 16.9169ZM48.4094 10.6267H66.6192C67.2813 13.2956 69.205 15.515 71.75 16.545L69.7472 30.5599C66.3303 30.8978 63.4584 33.2684 62.4216 36.4687L48.532 35.4768C47.957 32.1022 45.4066 29.3937 42.1164 28.5858V16.9183C45.2118 16.1594 47.6505 13.7207 48.4094 10.6267ZM79.1042 16.0954L93.957 32.1839C93.3004 33.1771 92.8549 34.2997 92.6519 35.4755L78.7568 36.4673C77.972 34.0545 76.141 32.0886 73.7922 31.139L75.7935 17.124C76.9639 17.0095 78.0878 16.658 79.1042 16.0954ZM73.3699 42.6362C72.5715 43.2643 71.611 43.5954 70.5919 43.5954C70.0361 43.5954 69.4938 43.4959 68.9802 43.297C68.9802 43.297 68.9788 43.297 68.9788 43.2956H68.9775C67.254 42.6349 66.096 40.9482 66.096 39.1008C66.096 38.9932 66.1001 38.8842 66.1069 38.7793C66.2718 36.4387 68.2418 34.6049 70.5919 34.6049C70.8072 34.6049 71.0211 34.6199 71.2309 34.6499C73.3113 34.9441 74.9284 36.6798 75.0769 38.7793C75.0851 38.8842 75.0878 38.9932 75.0878 39.1008C75.0878 40.4891 74.4611 41.7766 73.3699 42.6362ZM40.0742 41.4169C39.6532 41.4169 39.2377 41.3597 38.8372 41.2439C37.5524 40.8787 36.4693 39.9251 35.9407 38.6921V38.6907C35.7009 38.1322 35.5797 37.5368 35.5797 36.921C35.5797 36.4005 35.6668 35.8924 35.8412 35.4074C36.4775 33.624 38.1805 32.4251 40.0756 32.4251C42.5551 32.4251 44.5715 34.4414 44.5715 36.921C44.5715 37.0286 44.5674 37.1376 44.5606 37.2439C44.4625 38.6458 43.6941 39.9387 42.5061 40.7044C41.7813 41.1703 40.9407 41.4169 40.0742 41.4169ZM69.5074 47.6144C69.8658 47.6594 70.2268 47.6839 70.5919 47.6839C71.8372 47.6839 73.0361 47.4223 74.1382 46.921L87.8167 64.3283C87.1777 65.1444 86.6914 66.0695 86.3821 67.0586L68.1382 65.9169C67.7309 63.6839 66.442 61.688 64.5933 60.3937L69.5074 47.6144ZM74.9516 4.08719C77.4312 4.08719 79.4475 6.10354 79.4475 8.58311C79.4475 9.8515 78.9339 11.0245 77.9979 11.8883C77.1682 12.6567 76.0851 13.079 74.9516 13.079C74.7363 13.079 74.5224 13.064 74.3126 13.0341C72.1137 12.7221 70.4557 10.8093 70.4557 8.58311C70.4557 6.10354 72.472 4.08719 74.9516 4.08719ZM40.0742 4.08719C42.5538 4.08719 44.5701 6.10354 44.5701 8.58311C44.5701 11.0627 42.5538 13.079 40.0742 13.079C38.4666 13.079 36.9693 12.2112 36.1696 10.8134C35.7827 10.1376 35.5783 9.36648 35.5783 8.58311C35.5783 6.10354 37.5946 4.08719 40.0742 4.08719ZM5.06058 26.0218C5.06058 23.5422 7.07693 21.5259 9.55649 21.5259C11.1655 21.5259 12.6614 22.3937 13.4611 23.7916C13.848 24.4673 14.0524 25.2371 14.0524 26.0218C14.0524 26.5422 13.9652 27.0518 13.7922 27.5341C13.1546 29.3188 11.453 30.5177 9.55649 30.5177C7.07693 30.5177 5.06058 28.5014 5.06058 26.0218ZM5.06058 50C5.06058 47.5204 7.07693 45.5041 9.55649 45.5041C11.3576 45.5041 12.9802 46.5736 13.69 48.2289V48.2302C13.9298 48.7888 14.051 49.3842 14.051 50C14.051 51.0341 13.7104 52.0041 13.066 52.8065C13.066 52.8065 13.066 52.8065 13.0647 52.8079C12.205 53.8801 10.9257 54.4959 9.55513 54.4959C7.07693 54.4959 5.06058 52.4796 5.06058 50ZM31.3549 71.9346C28.8753 71.9346 26.8589 69.9183 26.8589 67.4387C26.8589 66.4046 27.1995 65.4346 27.844 64.6308C28.7023 63.5586 29.9816 62.9428 31.3549 62.9428C31.7758 62.9428 32.1927 63 32.5906 63.1131C34.5102 63.6608 35.8508 65.4401 35.8508 67.4387C35.8508 69.9183 33.8344 71.9346 31.3549 71.9346ZM55.1968 67.4387C55.1968 65.9033 55.9679 64.4905 57.2595 63.6567H57.2609L57.2622 63.6553C57.987 63.1894 58.8276 62.9428 59.6927 62.9428C60.25 62.9428 60.7908 63.0422 61.3045 63.2411C61.3045 63.2411 61.3058 63.2411 61.3058 63.2425C61.3058 63.2439 61.3072 63.2425 61.3072 63.2425C63.0306 63.906 64.1873 65.5913 64.1873 67.44C64.1873 67.5354 64.1846 67.6294 64.1791 67.7221C64.096 69.0613 63.4243 70.2847 62.3331 71.079C61.5633 71.6403 60.6505 71.9373 59.6914 71.9373C57.2132 71.9346 55.1968 69.9183 55.1968 67.4387ZM77.1314 95.9128C74.6519 95.9128 72.6355 93.8965 72.6355 91.4169C72.6355 89.9632 73.3113 88.6376 74.4897 87.7793C75.2595 87.218 76.1723 86.921 77.1314 86.921C78.1655 86.921 79.1355 87.2616 79.938 87.906C79.938 87.906 79.938 87.906 79.9393 87.9074C81.0115 88.767 81.6273 90.0463 81.6273 91.4169C81.6273 93.8965 79.611 95.9128 77.1314 95.9128ZM94.5701 74.1144C93.5374 74.1144 92.5674 73.7752 91.7636 73.1294C91.7636 73.1294 91.7636 73.1294 91.7622 73.1281C91.7622 73.1281 91.7622 73.1281 91.7609 73.1281C90.6886 72.2698 90.0742 70.9905 90.0742 69.6185C90.0742 69.5245 90.0769 69.4278 90.0824 69.3365C90.1614 68.0627 90.7854 66.876 91.7949 66.0817C92.5919 65.4537 93.551 65.1226 94.5701 65.1226C94.8658 65.1226 95.1641 65.1512 95.4529 65.2084H95.4543C97.547 65.6253 99.066 67.4796 99.066 69.6185C99.066 72.0981 97.0497 74.1144 94.5701 74.1144Z" fill="#F42535"/>
</svg>
