<svg width="100" height="100" viewBox="0 0 100 100" fill="none" xmlns="http://www.w3.org/2000/svg">
<path d="M0.00123894 17.9831C0.00123894 16.8377 0.93839 15.8993 2.08504 15.8993C3.23044 15.8993 4.16884 16.8377 4.16884 17.9831C4.16884 19.1285 3.23044 20.0669 2.08504 20.0669C0.93715 20.0657 0.00123894 19.1285 0.00123894 17.9831ZM99.9963 85.8807C100.037 90.6781 97.2592 94.3325 96.415 95.3304L94.7328 98.8199C94.3734 99.5661 93.6283 100 92.8548 100C92.5499 100 92.2437 99.9343 91.9511 99.7942C91.2024 99.4335 90.7735 98.6823 90.7785 97.9038C90.7797 97.605 90.8392 97.3014 90.9781 97.0138L92.7829 93.2689C92.8747 93.0767 92.9961 92.9007 93.1399 92.7458C93.161 92.7234 95.8609 89.7496 95.8287 85.9179L95.6117 60.6669C95.6031 59.6442 94.6771 58.8199 93.5441 58.8199C93.5379 58.8199 93.5317 58.8199 93.5242 58.8199C92.4309 58.8298 91.5036 60.15 91.5123 61.2247L91.5656 67.4055C91.5755 68.5571 90.6508 69.4967 89.5004 69.5066C89.4942 69.5066 89.488 69.5066 89.4818 69.5066C88.3401 69.5066 87.4092 68.5856 87.3993 67.4427L87.346 61.2867C87.346 61.2855 87.346 61.2855 87.346 61.2842L87.2815 58.0848C87.2803 57.9534 87.2642 57.8257 87.2356 57.7017C87.1563 57.3546 86.9741 57.0423 86.7026 56.7869C86.3035 56.415 85.7345 56.239 85.1965 56.2167C84.6225 56.2204 84.0907 56.4324 83.699 56.8117C83.4374 57.0646 83.2664 57.3732 83.1895 57.7017C83.166 57.8071 83.1536 57.9125 83.1499 58.0216L83.2775 65.3985C83.2974 66.5501 82.3801 67.4972 81.2309 67.5183C81.2185 67.5183 81.2061 67.5183 81.1937 67.5183C80.0607 67.5183 79.1323 66.6084 79.1112 65.4717L78.986 58.2199C78.9835 58.1902 78.9761 58.1629 78.9761 58.1331V58.1307L78.9724 57.7005L78.955 55.6179L78.95 54.9746C78.9451 54.3882 78.6314 53.8726 78.1554 53.5341C77.8021 53.2837 77.3633 53.1276 76.8811 53.1276C76.8749 53.1276 76.8687 53.1276 76.8625 53.1276C76.3877 53.1313 75.9551 53.2875 75.6068 53.5341C75.1593 53.8515 74.863 54.3287 74.8246 54.8705L74.837 55.6167L74.8729 57.6993L75.008 65.468C75.0279 66.6183 74.1118 67.5666 72.9627 67.5865C72.9503 67.5865 72.9367 67.5865 72.9243 67.5865C71.7912 67.5865 70.8628 66.6778 70.8417 65.5399L70.7053 57.698L70.6694 55.6155L70.6619 55.2138C70.657 55.1568 70.6434 55.101 70.6434 55.0428C70.6434 55.0415 70.6434 55.0391 70.6434 55.0378L70.631 53.5329L70.6285 53.2614V53.2069C70.6272 53.2056 70.6285 53.2032 70.6285 53.2019L70.5169 40.3087L70.4996 38.2261L70.4896 37.1129C70.4859 36.7658 70.3744 36.4324 70.1735 36.1423C70.0979 36.0332 70.0124 35.9291 69.9107 35.8349C69.5103 35.463 68.9947 35.2473 68.4034 35.2659C67.8294 35.2696 67.3001 35.4816 66.9071 35.8597C66.8167 35.9477 66.7348 36.0419 66.6654 36.1423C66.4572 36.4423 66.3468 36.7881 66.3493 37.1452L66.3592 38.2261L66.3766 40.3087L66.4906 53.5329L66.508 55.6167L66.5266 57.6993L66.6233 68.9637C66.6233 69.0157 66.6134 69.0641 66.6096 69.1161C66.6617 69.2959 66.7001 69.4806 66.7014 69.6765L66.7733 77.9199C66.7832 79.0715 65.8597 80.0112 64.7081 80.0211C64.7019 80.0211 64.6957 80.0211 64.6895 80.0211C63.5478 80.0211 62.6168 79.1 62.6069 77.9571L62.535 69.7136C62.535 69.6616 62.5462 69.6145 62.5499 69.5637C62.5301 69.4967 62.5053 69.4323 62.4916 69.3616C62.3912 68.8186 62.0677 68.3327 61.6028 68.0253C61.2718 67.8084 60.7239 67.5865 59.9752 67.7501C59.0889 67.9534 58.4257 68.8781 58.4344 69.9008L58.5509 83.3705C58.5707 85.639 59.8351 87.7055 61.8483 88.7629C61.945 88.8137 62.0342 88.8707 62.121 88.9339L67.2567 92.7408C67.6869 93.0594 67.9769 93.5317 68.0699 94.0597L68.6488 97.398C68.6699 97.522 68.6748 97.6447 68.6748 97.7674C68.6699 98.7567 67.9608 99.6318 66.9518 99.8079C65.8088 100.001 64.7403 99.2451 64.5432 98.1121L64.1068 95.5956L59.762 92.3751C56.4733 90.5789 54.4168 87.1588 54.3845 83.4089L54.268 69.9393C54.2432 66.9567 56.2539 64.3275 59.0492 63.6916C60.1959 63.4288 61.3475 63.4846 62.4148 63.8317L62.3577 57.7005H54.889C53.7387 57.7005 52.8065 56.7696 52.8065 55.6179V44.6647C52.3602 44.7502 51.9065 44.7948 51.4479 44.7948C48.4306 44.7948 45.8398 42.9404 44.7514 40.3111H40.3062V52.4755C40.3062 53.2974 39.8227 54.0449 39.0703 54.3796C38.3166 54.7105 37.4377 54.573 36.8278 54.0226C36.4212 53.6569 35.7357 53.2193 34.7812 53.2193C33.0829 53.2193 31.702 54.6002 31.702 56.2973C31.702 57.9955 33.0829 59.3765 34.7812 59.3765C35.7345 59.3765 36.42 58.9401 36.8278 58.572C37.4377 58.0203 38.3166 57.8815 39.0703 58.2149C39.8215 58.5509 40.3062 59.2971 40.3062 60.119V74.3659C40.3062 75.5175 39.374 76.4485 38.2236 76.4485H27.3918C27.2022 80.2777 24.0288 83.3333 20.1537 83.3333C16.2799 83.3333 13.1065 80.2777 12.9181 76.4485H2.08504C0.934671 76.4485 0.00123894 75.5175 0.00123894 74.3659V38.2311V38.2273V26.3159C0.00123894 25.1481 0.93839 24.2333 2.08504 24.2333C3.23044 24.2333 4.16884 25.1481 4.16884 26.3159V36.1448V36.1485H13.0433C12.959 35.6898 12.9181 35.2535 12.9181 34.7948C12.9181 30.7958 16.1683 27.5443 20.1475 27.5443C20.2306 27.5443 20.3149 27.5505 20.3979 27.553C20.5529 27.558 20.7078 27.5617 20.8603 27.5765C20.9111 27.5803 20.9632 27.5902 21.014 27.5964C21.1479 27.6113 21.2805 27.6224 21.4181 27.6484C21.4677 27.6571 21.5161 27.6708 21.5644 27.6807C21.609 27.6894 21.6524 27.6993 21.697 27.7092C21.8706 27.7464 22.0404 27.791 22.2078 27.8406C22.2611 27.8567 22.3131 27.8716 22.3664 27.8877C22.7867 28.0228 23.1908 28.1939 23.5751 28.4009C23.6036 28.4158 23.6308 28.4319 23.6594 28.4468C23.8354 28.5447 24.0077 28.6488 24.175 28.7604C24.1911 28.7715 24.2073 28.7815 24.2234 28.7926C24.6027 29.0492 24.9548 29.3405 25.2783 29.6641C25.2783 29.6641 25.2795 29.6653 25.2795 29.6665C25.4332 29.819 25.5783 29.9814 25.7171 30.1475C25.7345 30.1674 25.7518 30.1884 25.7679 30.2083C25.8993 30.3694 26.0245 30.5355 26.1423 30.7078C26.151 30.7215 26.1609 30.7326 26.1696 30.7462C26.2836 30.9148 26.389 31.0921 26.4882 31.2706C26.5365 31.3574 26.5799 31.4479 26.6245 31.5371C26.6667 31.6202 26.7076 31.7045 26.746 31.7888C26.8018 31.9115 26.8551 32.0355 26.9034 32.1619C26.9183 32.1991 26.9319 32.2375 26.9456 32.2759C27.0621 32.592 27.1588 32.9168 27.2307 33.254C27.3559 33.7746 27.398 34.2953 27.398 34.7961C27.398 35.1704 27.3608 35.5597 27.3001 35.9514C27.2902 36.0159 27.2852 36.0803 27.2741 36.146C27.2741 36.1473 27.2741 36.1485 27.2728 36.1497H36.1423V36.1435V23.9792C36.1423 23.1573 36.627 22.4098 37.3782 22.0764C37.5418 22.0032 37.7129 21.9561 37.8852 21.9276C38.4579 21.8272 39.0517 21.9772 39.5116 22.3466C39.5475 22.3751 39.5847 22.3987 39.6194 22.4297C39.6343 22.442 39.6517 22.4557 39.6665 22.4693C39.7347 22.5276 39.8091 22.5871 39.8909 22.6466C39.9045 22.6565 39.9169 22.6664 39.9306 22.6751C40.4847 23.0594 41.1318 23.2391 41.7987 23.2205C42.1743 23.2044 42.535 23.1313 42.8647 22.9912C43.0197 22.9243 43.1685 22.8424 43.3123 22.7482C43.3594 22.7185 43.4052 22.6875 43.4511 22.6553C43.5453 22.5858 43.6333 22.5115 43.7201 22.4321C43.7709 22.3863 43.8242 22.3454 43.8713 22.297C43.9903 22.1743 44.0994 22.0429 44.1961 21.9028C44.2172 21.8718 44.2358 21.8384 44.2556 21.8061C44.3449 21.671 44.4205 21.5297 44.4849 21.3847C44.4948 21.3636 44.5035 21.3425 44.5122 21.3202C44.5717 21.1739 44.6188 21.0252 44.651 20.8727C44.6721 20.7872 44.6857 20.6991 44.6994 20.6111C44.7217 20.4599 44.7453 20.3099 44.7453 20.1525C44.7453 19.5426 44.5618 18.9773 44.2544 18.4988C43.9085 17.9645 43.404 17.5418 42.8065 17.2976C42.4532 17.1563 42.0689 17.0733 41.666 17.0733C41.5619 17.0733 41.464 17.0807 41.3661 17.0906C41.3425 17.0931 41.3177 17.0943 41.2942 17.0981C41.1962 17.1104 41.1008 17.1253 41.0053 17.1476C40.8838 17.1749 40.7698 17.2109 40.6607 17.2493C40.6111 17.2679 40.5615 17.2865 40.5132 17.3075C40.3657 17.3708 40.2306 17.4402 40.1078 17.5158C40.093 17.5257 40.0781 17.5332 40.0632 17.5431C39.9107 17.641 39.7632 17.7501 39.6232 17.8753C39.576 17.9174 39.5252 17.9522 39.4744 17.9893C38.8732 18.4455 38.0699 18.5459 37.3757 18.2323C36.6233 17.8988 36.1398 17.1526 36.1398 16.3295V4.16512H4.1676V9.64423C4.1676 10.7896 3.2292 11.728 2.0838 11.728C0.937151 11.728 0 10.7896 0 9.64423V2.08256C0 1.54085 0.229329 0.997892 0.603693 0.603693C0.999132 0.22685 1.54084 0 2.08256 0H38.2224H38.2261H74.3622C75.5126 0 76.446 0.932193 76.446 2.0838V9.28722C79.1447 10.3421 81.0648 12.9639 81.0648 16.032C81.0648 16.4894 81.0202 16.9443 80.9334 17.3906H91.0301C92.1805 17.3906 93.1139 18.3228 93.1139 19.4732V33.9569C93.1139 34.7019 92.7148 35.3911 92.0689 35.7642C91.4243 36.1361 90.6272 36.1349 89.9826 35.758C87.8827 34.537 85.3675 36.1807 85.3688 38.4046C85.3675 40.626 87.8827 42.2685 89.9826 41.0512C90.626 40.6743 91.4231 40.6731 92.0689 41.045C92.7148 41.4169 93.1139 42.1073 93.1139 42.8524V54.6783C93.2391 54.6684 93.3643 54.651 93.4908 54.6498C93.5081 54.6498 93.5255 54.6498 93.5428 54.6498C96.9592 54.6498 99.7521 57.3212 99.7793 60.626L99.9963 85.8807ZM82.6044 52.5982C83.3978 52.2462 84.2655 52.0565 85.163 52.0491C86.5477 52.054 87.8592 52.4706 88.9463 53.254V45.6365C84.7899 45.9378 81.2012 42.571 81.2012 38.4083C81.2012 34.2482 84.7899 30.8752 88.9463 31.1801V21.5619H77.6435C77.2047 21.5619 76.7906 21.4218 76.4472 21.1789C76.1448 20.9669 75.8969 20.6768 75.7407 20.326C75.406 19.5736 75.5448 18.6959 76.0952 18.0848C76.2105 17.9546 76.3332 17.7947 76.4472 17.6113C76.6939 17.2121 76.8997 16.689 76.8997 16.0357C76.8997 15.4543 76.7274 14.9163 76.4472 14.4515C75.9973 13.7089 75.2485 13.1709 74.3634 13.0123C74.1862 12.98 74.0052 12.9565 73.8193 12.9565C73.2565 12.9565 72.7346 13.1201 72.2796 13.3842C71.3636 13.9184 70.74 14.9002 70.74 16.0345C70.74 16.9877 71.1776 17.6732 71.5446 18.0835C72.0949 18.6947 72.2338 19.5723 71.8991 20.3248C71.5644 21.076 70.8194 21.5594 69.9963 21.5594H56.9728V33.7238C56.9728 34.5457 56.4894 35.2932 55.7369 35.6279C54.982 35.9576 54.1081 35.8225 53.4957 35.2709C53.0891 34.9052 52.4036 34.4676 51.4491 34.4676C50.2591 34.4676 49.2364 35.1531 48.7244 36.1423C48.505 36.565 48.3687 37.0373 48.3687 37.5456C48.3687 37.7798 48.3996 38.0055 48.4492 38.2249C48.6587 39.1459 49.2823 39.9045 50.1116 40.3074C50.5182 40.5045 50.9669 40.6248 51.4479 40.6248C51.9747 40.6248 52.4172 40.4896 52.7792 40.3074C53.0718 40.1599 53.3123 39.9839 53.4945 39.819C54.1068 39.2649 54.982 39.131 55.7357 39.462C56.1386 39.643 56.4609 39.9417 56.6766 40.3062C56.8638 40.6223 56.9716 40.9843 56.9716 41.3661V53.5304H62.3206L62.209 40.3099L62.1904 38.2273L62.1817 37.1836C62.1792 36.8315 62.2127 36.4844 62.271 36.1435C62.4805 34.9076 63.0755 33.7697 64.0102 32.866C65.1742 31.7404 66.7224 31.1119 68.3687 31.0995C69.814 31.1033 71.1727 31.5483 72.2809 32.3925C72.4445 32.5164 72.6032 32.6491 72.7544 32.7904C73.5094 33.497 74.056 34.3535 74.3647 35.2944C74.5506 35.8634 74.651 36.4621 74.656 37.077L74.6833 40.2777L74.7614 49.3207C75.4072 49.0926 76.1014 48.9662 76.8266 48.9612C76.8439 48.9612 76.8613 48.9612 76.8786 48.9612C79.436 48.9612 81.6437 50.4587 82.6044 52.5982ZM44.3411 36.1435C44.9969 32.8176 47.9335 30.3025 51.4491 30.3025C51.9078 30.3025 52.3615 30.3471 52.8077 30.4326V19.4769C52.8077 18.3265 53.7399 17.3943 54.8903 17.3943H66.7063C66.6196 16.9481 66.5749 16.4931 66.5749 16.0357C66.5749 12.5685 69.0244 9.66654 72.2821 8.95872V4.17008H40.3124H40.3087V13.042C40.3099 13.042 40.3111 13.042 40.3124 13.0408C40.4053 13.0234 40.4996 13.0148 40.5925 12.9999C40.9471 12.9453 41.3053 12.9094 41.6673 12.9094C45.6626 12.9094 48.9128 16.1609 48.9128 20.1562C48.9128 20.3992 48.9005 20.6384 48.8769 20.8752C48.8744 20.8962 48.8719 20.9161 48.8695 20.9372C48.6885 22.6193 47.9311 24.1316 46.7956 25.2709C46.7881 25.2783 46.7795 25.287 46.7708 25.2944C46.6295 25.4357 46.4795 25.5684 46.327 25.6985C46.2935 25.727 46.2601 25.7555 46.2266 25.7828C46.0878 25.8956 45.944 26.0022 45.7977 26.1039C45.7617 26.1287 45.7283 26.1547 45.6923 26.1795C45.5312 26.2873 45.3651 26.3865 45.1952 26.482C45.0961 26.5377 44.9932 26.5873 44.8915 26.6382C44.8196 26.6741 44.7465 26.7101 44.6734 26.7435C44.5482 26.8005 44.4217 26.8538 44.2928 26.9047C44.2544 26.9195 44.2147 26.9332 44.1775 26.9481C43.8936 27.0534 43.6011 27.1352 43.3023 27.2047C43.2713 27.2109 43.2416 27.2245 43.2106 27.2307C43.187 27.2356 43.1623 27.2369 43.1387 27.2431C42.9912 27.2741 42.8412 27.2964 42.6912 27.3187C42.6342 27.3274 42.5772 27.3385 42.5201 27.3447C42.3094 27.3695 42.0962 27.3869 41.8805 27.3931C41.8334 27.3943 41.7875 27.4005 41.7392 27.4005C41.7156 27.4005 41.6933 27.4042 41.6685 27.4042C41.5148 27.4042 41.3611 27.3918 41.2086 27.3819C41.1429 27.377 41.076 27.3782 41.0103 27.372C40.8591 27.3571 40.7091 27.3323 40.5591 27.3075C40.476 27.2952 40.3917 27.2877 40.3087 27.2716V36.1435H40.3124H44.3411ZM36.1398 40.3149H23.9779C23.1647 40.3149 22.416 39.8364 22.0615 39.0864C21.8074 38.4976 21.8334 37.8493 22.1098 37.3075C22.1941 37.139 22.2983 36.979 22.4284 36.8353C22.4569 36.8043 22.4854 36.7683 22.5139 36.7324C22.5908 36.6406 22.6615 36.5464 22.7259 36.4497C22.7569 36.4026 22.7867 36.353 22.8164 36.3035C22.8871 36.182 22.9503 36.0555 23.0036 35.9266C23.016 35.8969 23.0284 35.8659 23.0408 35.8349C23.0978 35.6799 23.1449 35.5213 23.1759 35.3576C23.1771 35.3502 23.1784 35.3415 23.1796 35.3341C23.2106 35.1581 23.2292 34.9783 23.2292 34.7948C23.2292 34.7564 23.2255 34.7229 23.2242 34.6858C23.2205 34.5382 23.2007 34.4031 23.1821 34.2655C23.1127 33.854 22.9614 33.4722 22.7445 33.1338C22.7148 33.0879 22.685 33.042 22.6515 32.9974C22.5933 32.9168 22.5276 32.8437 22.4631 32.7693C22.2487 32.5288 21.9995 32.3218 21.728 32.1532C21.6264 32.0925 21.5235 32.033 21.4144 31.9822C21.3747 31.9636 21.3351 31.9474 21.2942 31.9313C21.1318 31.8656 20.9632 31.8098 20.7872 31.7727C20.7797 31.7714 20.7748 31.7689 20.7673 31.7677C20.5851 31.7305 20.3967 31.7144 20.2045 31.7107C20.1859 31.7107 20.1624 31.7094 20.1438 31.7094C18.4567 31.7094 17.0807 33.0842 17.0807 34.7936C17.0807 35.163 17.1476 35.5213 17.2766 35.8597C17.2815 35.8708 17.2865 35.8832 17.2902 35.8944C17.3485 36.0419 17.4216 36.1857 17.5046 36.3258C17.5257 36.3592 17.5443 36.3915 17.5666 36.4237C17.641 36.5415 17.7278 36.6543 17.8207 36.7634C17.8393 36.7869 17.8592 36.8117 17.879 36.834C17.9782 36.9443 18.0588 37.0633 18.1307 37.1898C18.2596 37.4104 18.3488 37.6497 18.3873 37.8976C18.4505 38.2893 18.4021 38.6984 18.2335 39.0765C17.9869 39.6294 17.5158 40.0359 16.9567 40.2132C16.7572 40.2777 16.5464 40.3161 16.332 40.3161H4.16636V72.2846H15.3068C15.9836 72.2846 16.6183 72.6143 17.0088 73.166C17.3993 73.7188 17.4972 74.4279 17.2704 75.0663C17.1377 75.437 17.0745 75.7717 17.0745 76.0902C17.0745 77.7885 18.4554 79.1694 20.1537 79.1694C21.8532 79.1694 23.2342 77.7885 23.2342 76.0902C23.2342 75.7729 23.1697 75.437 23.0383 75.0663C22.8115 74.4279 22.9094 73.7188 23.2999 73.166C23.6903 72.6143 24.325 72.2846 25.0019 72.2846H36.1411V63.4139C35.696 63.4994 35.2423 63.5441 34.7824 63.5441C30.7872 63.5441 27.5369 60.2938 27.5369 56.2985C27.5369 52.302 30.7872 49.0542 34.7824 49.0542C35.2411 49.0542 35.6948 49.0988 36.1411 49.1843L36.1398 40.3149Z" fill="#F42535"/>
</svg>
