<svg width="36" height="36" viewBox="0 0 36 36" fill="none" xmlns="http://www.w3.org/2000/svg">
<g clip-path="url(#clip0_273_301)">
<rect width="36" height="36" rx="18" fill="#A4A4A4"/>
<path d="M18 0.000488281C8.05879 0.000488281 0 8.05928 0 18.0005C0 27.9416 8.05879 36.0004 18 36.0004C27.9411 36.0004 36 27.9416 36 18.0005C35.9999 8.05928 27.941 0.000488281 18 0.000488281ZM13.1975 26.7026H9.24546V13.9346H13.1975V26.7026ZM11.2027 12.2625C9.91196 12.2625 8.86562 11.2076 8.86562 9.9066C8.86562 8.60541 9.91211 7.5506 11.2027 7.5506C12.4932 7.5506 13.5396 8.60541 13.5396 9.9066C13.5396 11.2077 12.4933 12.2625 11.2027 12.2625ZM28.0079 26.7026H24.075V20.0005C24.075 18.1623 23.3768 17.1362 21.9233 17.1362C20.3414 17.1362 19.5149 18.2048 19.5149 20.0005V26.7026H15.7244V13.9346H19.5149V15.6542C19.5149 15.6542 20.6551 13.5451 23.3625 13.5451C26.0699 13.5451 28.008 15.1982 28.008 18.6181L28.0079 26.7026Z" fill="#535353"/>
</g>
<defs>
<clipPath id="clip0_273_301">
<rect width="36" height="36" rx="18" fill="white"/>
</clipPath>
</defs>
</svg>
