<svg width="52" height="52" viewBox="0 0 52 52" fill="none" xmlns="http://www.w3.org/2000/svg">
<g clip-path="url(#clip0_261_243)">
<path d="M1.4497 10.1321L2.39515 10.3448C2.53697 10.8648 2.7497 11.3691 3.01758 11.8418L2.4897 12.6612C2.34 12.8975 2.37151 13.1969 2.56848 13.3939L3.86848 14.6939C4.06545 14.8909 4.37273 14.9224 4.60121 14.7727L5.43636 14.2606C5.90909 14.5284 6.41333 14.7412 6.93333 14.883L7.14606 15.8284C7.20909 16.0963 7.44545 16.2933 7.72121 16.2933H9.56485C9.84061 16.2933 10.0848 16.1042 10.14 15.8284L10.3527 14.883C10.8727 14.7412 11.377 14.5284 11.8497 14.2606L12.6691 14.7884C12.9055 14.9381 13.2127 14.9066 13.4018 14.7097L14.7018 13.4097C14.8988 13.2127 14.9303 12.9054 14.7806 12.6769L14.2527 11.8575C14.5206 11.3848 14.7333 10.8806 14.8752 10.3606L15.8206 10.1478C16.0885 10.0848 16.2855 9.84845 16.2855 9.57269V7.72118C16.2864 7.58634 16.2406 7.45534 16.1559 7.35047C16.0711 7.2456 15.9526 7.17335 15.8206 7.14602L14.8752 6.9333C14.7333 6.4133 14.5206 5.90905 14.2527 5.43633L14.7806 4.61693C14.9303 4.38057 14.8988 4.08118 14.7018 3.88421L13.4018 2.58421C13.3072 2.4891 13.1828 2.42938 13.0494 2.41504C12.916 2.4007 12.7818 2.43261 12.6691 2.50542L11.8497 3.02542C11.377 2.75754 10.8727 2.54481 10.3527 2.40299L10.14 1.45754C10.1103 1.32672 10.0374 1.20971 9.93303 1.12538C9.82869 1.04105 9.699 0.994312 9.56485 0.992691H7.72121C7.58638 0.991715 7.45537 1.0375 7.35051 1.12226C7.24564 1.20702 7.17339 1.3255 7.14606 1.45754L6.93333 2.39512C6.41333 2.53693 5.90909 2.74966 5.43636 3.01754L4.60909 2.49754C4.49642 2.42473 4.36216 2.39282 4.22877 2.40716C4.09539 2.42151 3.97098 2.48123 3.87636 2.57633L2.57636 3.87633C2.37939 4.0733 2.34788 4.38057 2.49758 4.60905L3.01758 5.43633C2.7497 5.90905 2.53697 6.40542 2.39515 6.9333L1.4497 7.14602C1.17394 7.20118 0.984848 7.43754 0.984848 7.72118V9.56481C0.984848 9.83269 1.17394 10.0769 1.4497 10.1321ZM2.16667 8.1939L3.0097 8.00481C3.12201 7.98125 3.22504 7.92548 3.30619 7.84433C3.38734 7.76318 3.4431 7.66016 3.46667 7.54784C3.59273 6.90966 3.84485 6.30299 4.20727 5.75148C4.33333 5.55451 4.33333 5.31027 4.20727 5.1133L3.7503 4.38057L4.38061 3.75027L5.11333 4.21512C5.3103 4.34118 5.56242 4.34118 5.75151 4.21512C6.30303 3.84481 6.9097 3.59269 7.54788 3.46663C7.77636 3.41936 7.9497 3.24602 8.00485 3.01754L8.19394 2.17451H9.08424L9.27333 3.01754C9.32061 3.24602 9.50182 3.41936 9.7303 3.46663C10.3685 3.60057 10.9752 3.85269 11.5267 4.21512C11.7236 4.34118 11.9679 4.34118 12.1648 4.21512L12.8976 3.75027L13.5279 4.38057L13.063 5.1133C12.937 5.31027 12.937 5.56239 13.063 5.75148C13.4255 6.31087 13.6776 6.90966 13.8115 7.54784C13.8588 7.77633 14.0321 7.95754 14.2606 8.00481L15.1036 8.1939V9.08421L14.2606 9.2733C14.0321 9.32057 13.8588 9.50178 13.8115 9.73027C13.6776 10.3684 13.4255 10.9751 13.063 11.5266C12.937 11.7236 12.937 11.9678 13.063 12.1648L13.5279 12.8975L12.8976 13.5278L12.1648 13.063C12.0699 13.0012 11.959 12.9684 11.8458 12.9684C11.7325 12.9684 11.6216 13.0012 11.5267 13.063C10.9752 13.4254 10.3685 13.6775 9.7303 13.8115C9.50182 13.8588 9.32848 14.0321 9.27333 14.2606L9.08424 15.1036H8.19394L8.00485 14.2606C7.98094 14.1492 7.92491 14.0473 7.84369 13.9675C7.76247 13.8877 7.65962 13.8334 7.54788 13.8115C6.9097 13.6775 6.30303 13.4254 5.75151 13.063C5.65655 13.0012 5.5457 12.9684 5.43242 12.9684C5.31915 12.9684 5.2083 13.0012 5.11333 13.063L4.38061 13.5278L3.7503 12.8975L4.21515 12.1648C4.34121 11.9678 4.34121 11.7157 4.21515 11.5266C3.85273 10.9751 3.60061 10.3684 3.46667 9.73027C3.4447 9.61853 3.39045 9.51568 3.31063 9.43446C3.23081 9.35323 3.12892 9.2972 3.01758 9.2733L2.17455 9.08421V8.1939H2.16667Z" fill="white"/>
<path d="M8.63515 12.0861C10.5339 12.0861 12.0861 10.5419 12.0861 8.63524C12.0861 6.72857 10.5418 5.18433 8.63515 5.18433C6.72848 5.18433 5.18424 6.72857 5.18424 8.63524C5.18424 10.5419 6.73636 12.0861 8.63515 12.0861ZM8.63515 6.37402C9.08393 6.37402 9.52264 6.5071 9.89579 6.75643C10.2689 7.00577 10.5598 7.36015 10.7315 7.77477C10.9033 8.18939 10.9482 8.64563 10.8606 9.08579C10.7731 9.52595 10.557 9.93027 10.2396 10.2476C9.9223 10.5649 9.51799 10.7811 9.07783 10.8686C8.63767 10.9562 8.18143 10.9112 7.76681 10.7395C7.35219 10.5677 6.9978 10.2769 6.74847 9.90375C6.49914 9.5306 6.36606 9.0919 6.36606 8.64311C6.36606 7.39039 7.3903 6.37402 8.63515 6.37402ZM48.8485 38.7164H31.8776C31.8855 38.6534 31.9012 38.5904 31.9012 38.5195V25.8977C31.9012 25.1413 31.2788 24.5189 30.5224 24.5189H15.143C14.3867 24.5189 13.7642 25.1413 13.7642 25.8977V38.5195C13.7642 38.5904 13.7721 38.6534 13.7879 38.7164H3.15151C1.95394 38.7164 0.984848 39.6855 0.984848 40.8831V48.8486C0.984848 50.0461 1.95394 51.0152 3.15151 51.0152H48.8485C50.0461 51.0152 51.0152 50.0461 51.0152 48.8486V40.8831C51.0152 39.6855 50.0461 38.7164 48.8485 38.7164ZM25.0073 25.7007V28.3243L23.1006 27.3789C23.0139 27.3395 22.9273 27.3158 22.8406 27.3158C22.7539 27.3158 22.6594 27.3395 22.5806 27.3789L20.6739 28.3243V25.7007H25.0073ZM14.9461 38.5195V25.8977C14.9461 25.7874 15.0327 25.7007 15.143 25.7007H19.4764V29.2698C19.4764 29.4746 19.5788 29.6637 19.7521 29.774C19.9255 29.8843 20.1382 29.8922 20.3273 29.8055L22.8248 28.5686L25.3224 29.8055C25.4036 29.8449 25.4922 29.8664 25.5824 29.8686C25.6927 29.8686 25.7952 29.8371 25.8976 29.7819C26.0709 29.6716 26.1733 29.4825 26.1733 29.2777V25.7086H30.5067C30.617 25.7086 30.7036 25.7952 30.7036 25.9055V38.5274C30.7036 38.6377 30.617 38.7243 30.5067 38.7243H15.143C15.0406 38.7164 14.9461 38.6298 14.9461 38.5195ZM49.8333 48.8486C49.8333 49.3922 49.3921 49.8334 48.8485 49.8334H3.15151C2.60788 49.8334 2.16667 49.3922 2.16667 48.8486V40.8831C2.16667 40.3395 2.60788 39.8983 3.15151 39.8983H48.8485C49.3921 39.8983 49.8333 40.3395 49.8333 40.8831V48.8486Z" fill="white"/>
<path d="M7.13819 41.8679C5.48364 41.8679 4.13637 43.2152 4.13637 44.8698C4.13637 46.5243 5.48364 47.8716 7.13819 47.8716C8.79273 47.8716 10.14 46.5243 10.14 44.8698C10.14 43.2152 8.78485 41.8679 7.13819 41.8679ZM7.13819 46.6819C6.89908 46.6818 6.66233 46.6346 6.44146 46.543C6.22059 46.4514 6.01993 46.3172 5.85093 46.148C5.68192 45.9789 5.54789 45.7781 5.45648 45.5571C5.36508 45.3362 5.31808 45.0994 5.31819 44.8603C5.31829 44.6212 5.36549 44.3844 5.45709 44.1636C5.54869 43.9427 5.68289 43.742 5.85204 43.573C6.02119 43.404 6.22197 43.27 6.44292 43.1786C6.66386 43.0872 6.90065 43.0402 7.13976 43.0403C7.62266 43.0405 8.08571 43.2325 8.42702 43.5742C8.76834 43.9158 8.95997 44.379 8.95976 44.8619C8.95955 45.3448 8.76752 45.8078 8.42591 46.1491C8.0843 46.4905 7.62109 46.6821 7.13819 46.6819ZM16.5691 41.8679C14.9146 41.8679 13.5673 43.2152 13.5673 44.8698C13.5673 46.5243 14.9146 47.8716 16.5691 47.8716C18.2236 47.8716 19.5709 46.5243 19.5709 44.8698C19.5709 43.2152 18.2236 41.8679 16.5691 41.8679ZM16.5691 46.6819C16.33 46.6818 16.0932 46.6346 15.8724 46.543C15.6515 46.4514 15.4508 46.3172 15.2818 46.148C15.1128 45.9789 14.9788 45.7781 14.8874 45.5571C14.796 45.3362 14.749 45.0994 14.7491 44.8603C14.7492 44.6212 14.7964 44.3844 14.888 44.1636C14.9796 43.9427 15.1138 43.742 15.2829 43.573C15.4521 43.404 15.6529 43.27 15.8738 43.1786C16.0948 43.0872 16.3316 43.0402 16.5707 43.0403C17.0536 43.0405 17.5166 43.2325 17.8579 43.5742C18.1992 43.9158 18.3909 44.379 18.3907 44.8619C18.3905 45.3448 18.1984 45.8078 17.8568 46.1491C17.5152 46.4905 17.052 46.6821 16.5691 46.6819ZM26 41.8679C24.3455 41.8679 22.9982 43.2152 22.9982 44.8698C22.9982 46.5243 24.3455 47.8716 26 47.8716C27.6546 47.8716 29.0018 46.5243 29.0018 44.8698C29.0018 43.2152 27.6546 41.8679 26 41.8679ZM26 46.6819C25.7609 46.6818 25.5241 46.6346 25.3033 46.543C25.0824 46.4514 24.8817 46.3172 24.7127 46.148C24.5437 45.9789 24.4097 45.7781 24.3183 45.5571C24.2269 45.3362 24.1799 45.0994 24.18 44.8603C24.1801 44.6212 24.2273 44.3844 24.3189 44.1636C24.4105 43.9427 24.5447 43.742 24.7139 43.573C24.883 43.404 25.0838 43.27 25.3047 43.1786C25.5257 43.0872 25.7625 43.0402 26.0016 43.0403C26.4845 43.0405 26.9475 43.2325 27.2888 43.5742C27.6302 43.9158 27.8218 44.379 27.8216 44.8619C27.8214 45.3448 27.6293 45.8078 27.2877 46.1491C26.9461 46.4905 26.4829 46.6821 26 46.6819ZM35.4309 41.8679C33.7764 41.8679 32.4291 43.2152 32.4291 44.8698C32.4291 46.5243 33.7764 47.8716 35.4309 47.8716C37.0855 47.8716 38.4327 46.5243 38.4327 44.8698C38.4327 43.2152 37.0855 41.8679 35.4309 41.8679ZM35.4309 46.6819C35.1918 46.6818 34.9551 46.6346 34.7342 46.543C34.5133 46.4514 34.3127 46.3172 34.1437 46.148C33.9747 45.9789 33.8406 45.7781 33.7492 45.5571C33.6578 45.3362 33.6108 45.0994 33.6109 44.8603C33.611 44.6212 33.6582 44.3844 33.7498 44.1636C33.8414 43.9427 33.9756 43.742 34.1448 43.573C34.3139 43.404 34.5147 43.27 34.7356 43.1786C34.9566 43.0872 35.1934 43.0402 35.4325 43.0403C35.9154 43.0405 36.3784 43.2325 36.7197 43.5742C37.0611 43.9158 37.2527 44.379 37.2525 44.8619C37.2523 45.3448 37.0602 45.8078 36.7186 46.1491C36.377 46.4905 35.9138 46.6821 35.4309 46.6819ZM44.8618 41.8679C43.2073 41.8679 41.86 43.2152 41.86 44.8698C41.86 46.5243 43.2073 47.8716 44.8618 47.8716C46.5164 47.8716 47.8636 46.5243 47.8636 44.8698C47.8636 43.2152 46.5164 41.8679 44.8618 41.8679ZM44.8618 46.6819C44.6227 46.6818 44.386 46.6346 44.1651 46.543C43.9442 46.4514 43.7436 46.3172 43.5746 46.148C43.4056 45.9789 43.2715 45.7781 43.1801 45.5571C43.0887 45.3362 43.0417 45.0994 43.0418 44.8603C43.0419 44.6212 43.0891 44.3844 43.1807 44.1636C43.2723 43.9427 43.4065 43.742 43.5757 43.573C43.7448 43.404 43.9456 43.27 44.1666 43.1786C44.3875 43.0872 44.6243 43.0402 44.8634 43.0403C45.3463 43.0405 45.8093 43.2325 46.1507 43.5742C46.492 43.9158 46.6836 44.379 46.6834 44.8619C46.6832 45.3448 46.4912 45.8078 46.1495 46.1491C45.8079 46.4905 45.3447 46.6821 44.8618 46.6819ZM38.5194 15.3873L30.7352 10.6128C30.6692 10.5714 30.5957 10.5437 30.5189 10.5312C30.442 10.5187 30.3635 10.5218 30.2879 10.5401C30.2122 10.5585 30.141 10.5918 30.0785 10.6381C30.0159 10.6844 29.9633 10.7428 29.9236 10.8098C29.7503 11.0855 29.837 11.4479 30.1206 11.6213L38.4249 16.7188C38.5982 19.0116 40.5206 20.8316 42.8606 20.8316C43.5146 20.8316 44.1291 20.6898 44.6885 20.4376V28.0407H41.0327V22.1158C41.0327 21.7928 40.7649 21.5249 40.4418 21.5249C40.1188 21.5249 39.8509 21.7928 39.8509 22.1158V28.0407H39.1655C37.7236 28.0407 36.5497 29.2146 36.5497 30.6564V36.9516C36.5497 37.2746 36.8176 37.5425 37.1406 37.5425C37.4636 37.5425 37.7315 37.2746 37.7315 36.9516V30.6485C37.7315 29.8607 38.3776 29.2146 39.1655 29.2146H46.5558C47.3436 29.2146 47.9897 29.8607 47.9897 30.6485V36.9437C47.9897 37.2667 48.2576 37.5346 48.5806 37.5346C48.9036 37.5346 49.1715 37.2667 49.1715 36.9437V30.6485C49.1715 29.2067 47.9976 28.0328 46.5558 28.0328H45.8703V19.6498C46.3249 19.2334 46.6879 18.727 46.9361 18.1627C47.1843 17.5984 47.3124 16.9886 47.3121 16.3722C47.3121 13.914 45.3109 11.9207 42.8606 11.9207C40.7412 11.9207 38.9685 13.4019 38.5194 15.3873ZM42.8606 13.1025C44.6649 13.1025 46.1303 14.5679 46.1303 16.3722C46.1303 18.1764 44.6649 19.6419 42.8606 19.6419C41.0564 19.6419 39.5909 18.1764 39.5909 16.3722C39.5909 14.5679 41.0564 13.1025 42.8606 13.1025Z" fill="white"/>
<path d="M19.9333 17.357H13.7879C12.5903 17.357 11.6212 18.3261 11.6212 19.5237V23.6758C11.6212 23.9988 11.8891 24.2667 12.2121 24.2667C12.5352 24.2667 12.803 23.9988 12.803 23.6758V19.5237C12.803 18.98 13.2442 18.5388 13.7879 18.5388H19.9412C20.0767 19.2057 20.4386 19.8053 20.9656 20.236C21.4925 20.6666 22.1522 20.9019 22.8327 20.9019C23.5133 20.9019 24.1729 20.6666 24.6999 20.236C25.2268 19.8053 25.5887 19.2057 25.7242 18.5388H31.8776C32.4212 18.5388 32.8624 18.98 32.8624 19.5237V23.6758C32.8624 23.9988 33.1303 24.2667 33.4533 24.2667C33.7764 24.2667 34.0442 23.9988 34.0442 23.6758V19.5237C34.0442 18.3261 33.0752 17.357 31.8776 17.357H25.7242C25.6218 16.837 25.3697 16.3722 25.0309 15.994L27.1976 11.0776C27.9453 10.8964 28.6189 10.489 29.1265 9.9109C29.6341 9.33279 29.951 8.61215 30.0339 7.8473L39.0236 11.834C39.1681 11.8944 39.3304 11.8961 39.476 11.8387C39.6217 11.7813 39.7392 11.6694 39.8036 11.5267C39.9376 11.2273 39.8036 10.8806 39.5042 10.7467L29.9394 6.51579C29.5218 4.90851 28.0721 3.71094 26.3309 3.71094C24.2667 3.71094 22.5885 5.38912 22.5885 7.45336C22.5885 8.43033 22.9746 9.31276 23.5891 9.98245L22.1158 15.0958C21.5764 15.2299 21.0857 15.5131 20.6998 15.913C20.3138 16.3128 20.0482 16.8133 19.9333 17.357ZM22.8327 19.7206C21.8558 19.7206 21.06 18.9249 21.06 17.9479C21.06 17.0576 21.7218 16.3249 22.5806 16.1988C22.6594 16.1831 22.7461 16.1752 22.8327 16.1752C23.8097 16.1752 24.6055 16.9709 24.6055 17.9479C24.6055 18.9249 23.8097 19.7206 22.8327 19.7206ZM25.8739 11.1485L24.0539 15.2691C23.8333 15.1667 23.597 15.0958 23.3527 15.0485L24.5897 10.7467C24.9836 10.9515 25.417 11.0934 25.8739 11.1485ZM26.323 4.89276C27.5442 4.89276 28.5685 5.75942 28.8206 6.90973C28.8206 6.96488 28.8285 7.02003 28.8442 7.07518C28.86 7.20124 28.8836 7.3273 28.8836 7.45336C28.8836 8.86367 27.7333 10.014 26.323 10.014C25.6691 10.014 25.0782 9.76185 24.6212 9.35215C24.6133 9.34427 24.6133 9.34427 24.6055 9.34427C24.0855 8.87154 23.7545 8.20185 23.7545 7.45336C23.7624 6.03518 24.9127 4.89276 26.323 4.89276Z" fill="white"/>
</g>
<defs>
<clipPath id="clip0_261_243">
<rect width="52" height="52" fill="white"/>
</clipPath>
</defs>
</svg>
