<svg width="98" height="97" viewBox="0 0 98 97" fill="none" xmlns="http://www.w3.org/2000/svg">
<path d="M15.2428 40.251C19.0154 40.251 22.0737 37.1926 22.0737 33.42C22.0737 29.6474 19.0154 26.5891 15.2428 26.5891C11.4702 26.5891 8.41187 29.6474 8.41187 33.42C8.41187 37.1926 11.4702 40.251 15.2428 40.251Z" stroke="white" stroke-width="2.5" stroke-miterlimit="10" stroke-linecap="round" stroke-linejoin="round"/>
<path d="M17.0278 43.6386L20.6858 52.6008H31.7521C33.2164 52.6008 34.4035 53.788 34.4035 55.2522C34.4035 56.7165 33.2164 57.9036 31.7521 57.9036H19.3977C18.5876 57.9036 17.7957 57.6638 17.1217 57.2143C16.4478 56.7649 15.922 56.1259 15.6107 55.378L12.8017 48.5632M4.69043 61.7641L5.17638 50.845C5.48536 46.1961 7.1181 41.7326 9.88182 37.9817" stroke="white" stroke-width="2.5" stroke-miterlimit="10" stroke-linecap="round" stroke-linejoin="round"/>
<path d="M83.2958 40.251C87.0684 40.251 90.1267 37.1926 90.1267 33.42C90.1267 29.6474 87.0684 26.5891 83.2958 26.5891C79.5232 26.5891 76.4648 29.6474 76.4648 33.42C76.4648 37.1926 79.5232 40.251 83.2958 40.251Z" stroke="white" stroke-width="2.5" stroke-miterlimit="10" stroke-linecap="round" stroke-linejoin="round"/>
<path d="M81.5107 43.6386L77.8527 52.6008H66.7864C65.3221 52.6008 64.135 53.788 64.135 55.2522C64.135 56.7165 65.3221 57.9036 66.7864 57.9036H79.1408C79.9509 57.9036 80.7429 57.6638 81.4168 57.2143C82.0908 56.7649 82.6165 56.1259 82.9278 55.378L85.7368 48.5632M93.8481 61.7641L93.3621 50.845C93.0532 46.1961 91.4204 41.7326 88.6567 37.9817" stroke="white" stroke-width="2.5" stroke-miterlimit="10" stroke-linecap="round" stroke-linejoin="round"/>
<path d="M49.1269 19.6513C52.4495 19.6513 55.143 16.9578 55.143 13.6352C55.143 10.3126 52.4495 7.61914 49.1269 7.61914C45.8043 7.61914 43.1108 10.3126 43.1108 13.6352C43.1108 16.9578 45.8043 19.6513 49.1269 19.6513Z" stroke="white" stroke-width="2.5" stroke-miterlimit="10" stroke-linecap="round" stroke-linejoin="round"/>
<path d="M60.1255 37.3463L58.9844 29.4397C58.9708 29.3516 58.9555 29.2638 58.9386 29.1764C58.3079 25.9125 55.3765 23.5996 52.0523 23.5996H46.2679C42.9438 23.5996 40.0124 25.9126 39.3817 29.1764C39.3648 29.2637 39.3495 29.3514 39.3359 29.4397L38.1287 37.7188" stroke="white" stroke-width="2.5" stroke-miterlimit="10" stroke-linecap="round" stroke-linejoin="round"/>
<path d="M49.1269 65.6887C52.4495 65.6887 55.143 62.9952 55.143 59.6726C55.143 56.35 52.4495 53.6565 49.1269 53.6565C45.8043 53.6565 43.1108 56.35 43.1108 59.6726C43.1108 62.9952 45.8043 65.6887 49.1269 65.6887Z" stroke="white" stroke-width="2.5" stroke-miterlimit="10" stroke-linecap="round" stroke-linejoin="round"/>
<path d="M58.9843 75.477C58.9706 75.389 58.9553 75.3012 58.9384 75.2137C58.3077 71.9498 55.3763 69.637 52.0522 69.637H46.2678C42.9436 69.637 40.0122 71.95 39.3815 75.2137C39.3647 75.301 39.3493 75.3888 39.3357 75.477" stroke="white" stroke-width="2.5" stroke-miterlimit="10" stroke-linecap="round" stroke-linejoin="round"/>
<path d="M28.771 89.719L29.4403 82.7378C29.8128 78.8539 33.0757 75.8889 36.9775 75.8889H61.8605C65.684 75.8889 68.9074 78.7394 69.3753 82.5342L70.2612 89.719M75.3765 45.9553L72.7247 40.7188C72.3268 39.903 71.7078 39.2154 70.938 38.7344C70.1683 38.2534 69.2789 37.9983 68.3712 37.9983H29.1522C28.1974 37.9983 27.2639 38.2805 26.469 38.8095C25.6741 39.3384 25.0532 40.0905 24.6845 40.9712L22.7087 45.5764M73.0473 76.4573H86.1025C87.9736 76.4573 89.198 74.4978 88.3779 72.816L83.1069 62.0077M15.6987 62.0077L11.2951 72.9478C10.5966 74.616 11.8217 76.4573 13.6303 76.4573H26.1226" stroke="white" stroke-width="2.5" stroke-miterlimit="10" stroke-linecap="round" stroke-linejoin="round"/>
</svg>
