<svg width="97" height="97" viewBox="0 0 97 97" fill="none" xmlns="http://www.w3.org/2000/svg">
<path d="M14.7429 40.251C18.5155 40.251 21.5738 37.1926 21.5738 33.42C21.5738 29.6474 18.5155 26.5891 14.7429 26.5891C10.9703 26.5891 7.91196 29.6474 7.91196 33.42C7.91196 37.1926 10.9703 40.251 14.7429 40.251Z" stroke="#2E2E2E" stroke-width="2.5" stroke-miterlimit="10" stroke-linecap="round" stroke-linejoin="round"/>
<path d="M16.5279 43.6386L20.1859 52.6008H31.2522C32.7165 52.6008 33.9036 53.788 33.9036 55.2522C33.9036 56.7165 32.7165 57.9036 31.2522 57.9036H18.8978C18.0877 57.9036 17.2957 57.6638 16.6218 57.2143C15.9479 56.7649 15.4221 56.1259 15.1108 55.378L12.3018 48.5632M4.19052 61.7641L4.67647 50.845C4.98545 46.1961 6.61819 41.7326 9.38192 37.9817" stroke="#2E2E2E" stroke-width="2.5" stroke-miterlimit="10" stroke-linecap="round" stroke-linejoin="round"/>
<path d="M82.7958 40.251C86.5684 40.251 89.6267 37.1926 89.6267 33.42C89.6267 29.6474 86.5684 26.5891 82.7958 26.5891C79.0232 26.5891 75.9648 29.6474 75.9648 33.42C75.9648 37.1926 79.0232 40.251 82.7958 40.251Z" stroke="#2E2E2E" stroke-width="2.5" stroke-miterlimit="10" stroke-linecap="round" stroke-linejoin="round"/>
<path d="M81.0107 43.6386L77.3528 52.6008H66.2864C64.8222 52.6008 63.635 53.788 63.635 55.2522C63.635 56.7165 64.8222 57.9036 66.2864 57.9036H78.6409C79.4509 57.9036 80.2429 57.6638 80.9168 57.2143C81.5908 56.7649 82.1166 56.1259 82.4278 55.378L85.2369 48.5632M93.3481 61.7641L92.8622 50.845C92.5532 46.1961 90.9204 41.7326 88.1567 37.9817" stroke="#2E2E2E" stroke-width="2.5" stroke-miterlimit="10" stroke-linecap="round" stroke-linejoin="round"/>
<path d="M48.6269 19.6513C51.9495 19.6513 54.643 16.9578 54.643 13.6352C54.643 10.3126 51.9495 7.61914 48.6269 7.61914C45.3043 7.61914 42.6108 10.3126 42.6108 13.6352C42.6108 16.9578 45.3043 19.6513 48.6269 19.6513Z" stroke="#2E2E2E" stroke-width="2.5" stroke-miterlimit="10" stroke-linecap="round" stroke-linejoin="round"/>
<path d="M59.6254 37.3463L58.4844 29.4397C58.4707 29.3516 58.4555 29.2638 58.4385 29.1764C57.8078 25.9125 54.8764 23.5996 51.5523 23.5996H45.7679C42.4437 23.5996 39.5123 25.9126 38.8816 29.1764C38.8648 29.2637 38.8494 29.3514 38.8358 29.4397L37.6286 37.7188" stroke="#2E2E2E" stroke-width="2.5" stroke-miterlimit="10" stroke-linecap="round" stroke-linejoin="round"/>
<path d="M48.627 65.6887C51.9496 65.6887 54.643 62.9952 54.643 59.6726C54.643 56.35 51.9496 53.6565 48.627 53.6565C45.3044 53.6565 42.6109 56.35 42.6109 59.6726C42.6109 62.9952 45.3044 65.6887 48.627 65.6887Z" stroke="#2E2E2E" stroke-width="2.5" stroke-miterlimit="10" stroke-linecap="round" stroke-linejoin="round"/>
<path d="M58.4842 75.477C58.4706 75.389 58.4553 75.3012 58.4383 75.2137C57.8077 71.9498 54.8762 69.637 51.5521 69.637H45.7677C42.4436 69.637 39.5122 71.95 38.8815 75.2137C38.8646 75.301 38.8493 75.3888 38.8356 75.477" stroke="#2E2E2E" stroke-width="2.5" stroke-miterlimit="10" stroke-linecap="round" stroke-linejoin="round"/>
<path d="M28.271 89.719L28.9403 82.7378C29.3128 78.8539 32.5757 75.8889 36.4775 75.8889H61.3605C65.184 75.8889 68.4074 78.7394 68.8753 82.5342L69.7612 89.719M74.8764 45.9553L72.2247 40.7188C71.8268 39.903 71.2077 39.2154 70.438 38.7344C69.6683 38.2534 68.7789 37.9983 67.8712 37.9983H28.6521C27.6973 37.9983 26.7638 38.2805 25.9689 38.8095C25.174 39.3384 24.5532 40.0905 24.1845 40.9712L22.2086 45.5764M72.5473 76.4573H85.6025C87.4735 76.4573 88.698 74.4978 87.8778 72.816L82.6069 62.0077M15.1987 62.0077L10.795 72.9478C10.0965 74.616 11.3217 76.4573 13.1302 76.4573H25.6226" stroke="#2E2E2E" stroke-width="2.5" stroke-miterlimit="10" stroke-linecap="round" stroke-linejoin="round"/>
</svg>
