<svg width="97" height="97" viewBox="0 0 97 97" fill="none" xmlns="http://www.w3.org/2000/svg">
<path d="M14.7428 40.2511C18.5154 40.2511 21.5737 37.1928 21.5737 33.4202C21.5737 29.6475 18.5154 26.5892 14.7428 26.5892C10.9702 26.5892 7.91187 29.6475 7.91187 33.4202C7.91187 37.1928 10.9702 40.2511 14.7428 40.2511Z" stroke="#F42535" stroke-width="2.5" stroke-miterlimit="10" stroke-linecap="round" stroke-linejoin="round"/>
<path d="M16.5278 43.6387L20.1858 52.601H31.2521C32.7164 52.601 33.9035 53.7881 33.9035 55.2524C33.9035 56.7166 32.7164 57.9038 31.2521 57.9038H18.8977C18.0876 57.9038 17.2957 57.6639 16.6217 57.2145C15.9478 56.765 15.422 56.126 15.1107 55.3782L12.3017 48.5633M4.19043 61.7642L4.67638 50.8451C4.98536 46.1962 6.6181 41.7328 9.38182 37.9818" stroke="#F42535" stroke-width="2.5" stroke-miterlimit="10" stroke-linecap="round" stroke-linejoin="round"/>
<path d="M82.7958 40.2511C86.5684 40.2511 89.6267 37.1928 89.6267 33.4202C89.6267 29.6475 86.5684 26.5892 82.7958 26.5892C79.0232 26.5892 75.9648 29.6475 75.9648 33.4202C75.9648 37.1928 79.0232 40.2511 82.7958 40.2511Z" stroke="#F42535" stroke-width="2.5" stroke-miterlimit="10" stroke-linecap="round" stroke-linejoin="round"/>
<path d="M81.0107 43.6387L77.3527 52.601H66.2864C64.8221 52.601 63.635 53.7881 63.635 55.2524C63.635 56.7166 64.8221 57.9038 66.2864 57.9038H78.6408C79.4509 57.9038 80.2429 57.6639 80.9168 57.2145C81.5908 56.765 82.1165 56.126 82.4278 55.3782L85.2368 48.5633M93.3481 61.7642L92.8621 50.8451C92.5532 46.1962 90.9204 41.7328 88.1567 37.9818" stroke="#F42535" stroke-width="2.5" stroke-miterlimit="10" stroke-linecap="round" stroke-linejoin="round"/>
<path d="M48.6269 19.6514C51.9495 19.6514 54.643 16.9579 54.643 13.6353C54.643 10.3128 51.9495 7.61926 48.6269 7.61926C45.3043 7.61926 42.6108 10.3128 42.6108 13.6353C42.6108 16.9579 45.3043 19.6514 48.6269 19.6514Z" stroke="#F42535" stroke-width="2.5" stroke-miterlimit="10" stroke-linecap="round" stroke-linejoin="round"/>
<path d="M59.6255 37.3466L58.4844 29.4399C58.4708 29.3519 58.4555 29.2641 58.4386 29.1766C57.8079 25.9127 54.8765 23.5999 51.5523 23.5999H45.7679C42.4438 23.5999 39.5124 25.9129 38.8817 29.1766C38.8648 29.2639 38.8495 29.3516 38.8359 29.4399L37.6287 37.719" stroke="#F42535" stroke-width="2.5" stroke-miterlimit="10" stroke-linecap="round" stroke-linejoin="round"/>
<path d="M48.6269 65.6887C51.9495 65.6887 54.643 62.9952 54.643 59.6726C54.643 56.35 51.9495 53.6565 48.6269 53.6565C45.3043 53.6565 42.6108 56.35 42.6108 59.6726C42.6108 62.9952 45.3043 65.6887 48.6269 65.6887Z" stroke="#F42535" stroke-width="2.5" stroke-miterlimit="10" stroke-linecap="round" stroke-linejoin="round"/>
<path d="M58.4843 75.4769C58.4706 75.3889 58.4553 75.3011 58.4384 75.2136C57.8077 71.9497 54.8763 69.6368 51.5522 69.6368H45.7678C42.4436 69.6368 39.5122 71.9499 38.8815 75.2136C38.8647 75.3009 38.8493 75.3886 38.8357 75.4769" stroke="#F42535" stroke-width="2.5" stroke-miterlimit="10" stroke-linecap="round" stroke-linejoin="round"/>
<path d="M28.271 89.719L28.9403 82.7378C29.3128 78.8539 32.5757 75.8889 36.4775 75.8889H61.3605C65.184 75.8889 68.4074 78.7394 68.8753 82.5342L69.7612 89.719M74.8765 45.9553L72.2247 40.7188C71.8268 39.903 71.2078 39.2154 70.438 38.7344C69.6683 38.2534 68.7789 37.9983 67.8712 37.9983H28.6522C27.6974 37.9983 26.7639 38.2805 25.969 38.8095C25.1741 39.3384 24.5532 40.0905 24.1845 40.9712L22.2087 45.5764M72.5473 76.4573H85.6025C87.4736 76.4573 88.698 74.4978 87.8779 72.816L82.6069 62.0077M15.1987 62.0077L10.7951 72.9478C10.0966 74.616 11.3217 76.4573 13.1303 76.4573H25.6226" stroke="#F42535" stroke-width="2.5" stroke-miterlimit="10" stroke-linecap="round" stroke-linejoin="round"/>
</svg>
