<svg width="60" height="48" viewBox="0 0 60 48" fill="none" xmlns="http://www.w3.org/2000/svg">
<path d="M59.0625 12.75H41.7371C39.3768 12.75 37.2482 14.2496 36.4389 16.4854L33.0524 25.9785L30.3246 26.4316C28.5068 26.7328 27.1875 28.2883 27.1875 30.1313V30.5625H24.375V9.9375C24.375 7.86932 22.6927 6.1875 20.625 6.1875H17.8125V2.4375C17.8125 1.40387 16.9716 0.5625 15.9375 0.5625H8.4375C7.40341 0.5625 6.5625 1.40387 6.5625 2.4375V6.1875H3.75C1.68228 6.1875 0 7.86932 0 9.9375V43.6875C0 45.7557 1.68228 47.4375 3.75 47.4375H20.625C22.6927 47.4375 24.375 45.7557 24.375 43.6875V32.4375H27.1875V38.0625C26.6698 38.0625 26.25 38.4818 26.25 39V43.6875C26.25 44.2057 26.6698 44.625 27.1875 44.625H35.4046C36.7805 46.3372 38.8878 47.4375 41.25 47.4375C44.0187 47.4375 46.4359 45.9254 47.7352 43.6875H59.0625C59.5807 43.6875 60 43.2682 60 42.75V13.6875C60 13.1693 59.5807 12.75 59.0625 12.75ZM8.4375 2.4375H15.9375V6.1875H8.4375V2.4375ZM22.5 43.6875C22.5 44.7211 21.6591 45.5625 20.625 45.5625H3.75C2.71591 45.5625 1.875 44.7211 1.875 43.6875V9.9375C1.875 8.90387 2.71591 8.0625 3.75 8.0625H20.625C21.6591 8.0625 22.5 8.90387 22.5 9.9375V43.6875ZM29.0625 34.3125H30.9375V38.0625H29.0625V34.3125ZM28.125 42.75V39.9375H33.75C33.75 40.9323 33.9489 41.8805 34.3022 42.75H28.125ZM41.25 45.5625C38.1482 45.5625 35.625 43.0393 35.625 39.9375C35.625 36.8357 38.1482 34.3125 41.25 34.3125C44.3518 34.3125 46.875 36.8357 46.875 39.9375C46.875 43.0393 44.3518 45.5625 41.25 45.5625ZM48.5032 41.8125C48.6586 41.212 48.75 40.5859 48.75 39.9375C48.75 35.8021 45.3854 32.4375 41.25 32.4375C37.763 32.4375 34.8327 34.8331 33.9968 38.0625H32.8125V33.375C32.8125 32.8568 32.3932 32.4375 31.875 32.4375H29.0625V30.1313C29.0625 29.2103 29.7221 28.4321 30.6317 28.281L33.9038 27.7372C34.2398 27.6813 34.519 27.4479 34.6326 27.1274L38.2031 17.1198C38.7433 15.6275 40.1633 14.625 41.7371 14.625H58.125V16.5H54.375C53.8568 16.5 53.4375 16.9193 53.4375 17.4375V26.8125C53.4375 27.3307 53.8568 27.75 54.375 27.75H58.125V41.8125H48.5032ZM58.125 25.875H55.3125V18.375H58.125V25.875Z" fill="white"/>
<path d="M50.6249 16.5H41.0815C40.685 16.5 40.3316 16.749 40.1989 17.1226L36.8517 26.4976C36.7492 26.7841 36.7922 27.1036 36.968 27.3527C37.1438 27.6017 37.4294 27.75 37.7343 27.75H50.6249C51.1431 27.75 51.5624 27.3307 51.5624 26.8125V17.4375C51.5624 16.9193 51.1431 16.5 50.6249 16.5ZM49.6874 25.875H39.0646L41.7425 18.375H49.6874V25.875ZM41.2499 37.125C39.699 37.125 38.4374 38.3866 38.4374 39.9375C38.4374 41.4884 39.699 42.75 41.2499 42.75C42.8008 42.75 44.0624 41.4884 44.0624 39.9375C44.0624 38.3866 42.8008 37.125 41.2499 37.125ZM41.2499 40.875C40.7327 40.875 40.3124 40.4548 40.3124 39.9375C40.3124 39.4202 40.7327 39 41.2499 39C41.7672 39 42.1874 39.4202 42.1874 39.9375C42.1874 40.4548 41.7672 40.875 41.2499 40.875ZM50.6249 30.5625H48.7499C48.2317 30.5625 47.8124 30.9818 47.8124 31.5C47.8124 32.0182 48.2317 32.4375 48.7499 32.4375H50.6249C51.1431 32.4375 51.5624 32.0182 51.5624 31.5C51.5624 30.9818 51.1431 30.5625 50.6249 30.5625ZM56.2499 30.5625H54.3749C53.8567 30.5625 53.4374 30.9818 53.4374 31.5C53.4374 32.0182 53.8567 32.4375 54.3749 32.4375H56.2499C56.7681 32.4375 57.1874 32.0182 57.1874 31.5C57.1874 30.9818 56.7681 30.5625 56.2499 30.5625ZM17.2942 25.9739L14.0624 24.358V18.375C14.0624 17.9621 13.7919 17.5977 13.3964 17.4778C13.0018 17.3578 12.5742 17.5117 12.3449 17.855L6.71989 26.2925C6.57066 26.5159 6.52488 26.7933 6.59401 27.0533C6.66267 27.3133 6.84028 27.5312 7.08061 27.6511L10.3124 29.267V35.25C10.3124 35.6629 10.583 36.0273 10.9785 36.1472C11.0682 36.1747 11.1593 36.1875 11.2499 36.1875C11.5575 36.1875 11.8528 36.0355 12.03 35.77L17.655 27.3325C17.8042 27.1091 17.85 26.8317 17.7808 26.5717C17.7122 26.3117 17.5346 26.0938 17.2942 25.9739ZM12.1874 32.1537V28.6875C12.1874 28.3323 11.9869 28.0082 11.6692 27.8489L8.86909 26.449L12.1874 21.4713V24.9375C12.1874 25.2927 12.3879 25.6168 12.7056 25.7761L15.5057 27.176L12.1874 32.1537Z" fill="white"/>
</svg>
