<svg width="60" height="60" viewBox="0 0 60 60" fill="none" xmlns="http://www.w3.org/2000/svg">
<path d="M25.2704 46.717L17.3433 57.2517L17.2742 51.1876C17.2721 51.0503 17.2391 50.9151 17.1774 50.7924C17.1157 50.6696 17.027 50.5624 16.9181 50.4788C16.8075 50.394 16.6797 50.3344 16.5438 50.3042C16.4078 50.274 16.2668 50.2738 16.1307 50.3038L9.24884 51.8199L15.9307 44.3032C15.6649 43.618 15.4631 42.9097 15.3278 42.1874L6.8882 51.6821C6.7075 51.8948 6.59661 52.158 6.57057 52.4358C6.54453 52.7137 6.6046 52.9929 6.74263 53.2354C6.88082 53.4783 7.08803 53.6747 7.33798 53.7996C7.58793 53.9245 7.86935 53.9724 8.14654 53.9371C8.177 53.9336 8.20725 53.9286 8.23717 53.9219L15.412 52.3409L15.4848 58.6721C15.4965 58.9562 15.596 59.2297 15.7695 59.4549C15.9431 59.6801 16.1822 59.8459 16.4539 59.9296C16.7317 60.0197 17.0305 60.0221 17.3098 59.9365C17.589 59.8509 17.8352 59.6815 18.0148 59.4512L26.6047 48.0369C26.114 47.6459 25.6667 47.2034 25.2704 46.717ZM48.0424 48.0843L46.5107 48.0823H45.5572L48.8798 51.82L41.9975 50.3038C41.8614 50.2736 41.7204 50.2736 41.5844 50.3038C41.4483 50.3341 41.3206 50.3938 41.2101 50.4788C41.1011 50.5624 41.0125 50.6696 40.9508 50.7924C40.8891 50.9151 40.856 51.0503 40.854 51.1876L40.7853 57.2504L33.0525 46.9751C32.6511 47.4549 32.1887 47.8802 31.6771 48.2401L40.1376 59.4808C40.2698 59.6432 40.4366 59.774 40.6258 59.8638C40.815 59.9536 41.0218 60.0001 41.2312 59.9999C41.3813 59.9998 41.5305 59.9762 41.6734 59.9301C41.9491 59.8438 42.191 59.6735 42.3651 59.443C42.5392 59.2124 42.6368 58.9332 42.6443 58.6444L42.7161 52.3413L49.891 53.9219C49.9209 53.9286 49.9512 53.9336 49.9816 53.9371C50.259 53.9729 50.5407 53.9252 50.7908 53.8002C51.041 53.6751 51.2482 53.4783 51.386 53.235C51.525 52.9881 51.5839 52.7042 51.5546 52.4225C51.5254 52.1407 51.4093 51.875 51.2226 51.662L48.0424 48.0843ZM29.0636 9.84351C26.375 9.84343 23.7469 10.6406 21.5114 12.1342C19.2759 13.6278 17.5335 15.7508 16.5046 18.2346C15.4756 20.7185 15.2063 23.4517 15.7308 26.0886C16.2552 28.7255 17.5498 31.1477 19.4508 33.0488C21.3518 34.95 23.7739 36.2447 26.4108 36.7693C29.0477 37.2939 31.7809 37.0248 34.2648 35.996C36.7487 34.9672 38.8718 33.225 40.3655 30.9896C41.8593 28.7542 42.6566 26.1261 42.6567 23.4375C42.6527 19.8335 41.2193 16.3783 38.671 13.8298C36.1227 11.2813 32.6676 9.84773 29.0636 9.84351ZM29.0636 35.1556C26.7458 35.1557 24.4801 34.4684 22.553 33.1808C20.6258 31.8932 19.1238 30.063 18.2368 27.9217C17.3498 25.7804 17.1177 23.4241 17.5699 21.1509C18.022 18.8777 19.1381 16.7896 20.777 15.1507C22.4159 13.5118 24.504 12.3958 26.7773 11.9436C29.0505 11.4915 31.4067 11.7236 33.548 12.6106C35.6893 13.4976 37.5195 14.9997 38.8071 16.9269C40.0947 18.854 40.7819 21.1198 40.7818 23.4375C40.7783 26.5443 39.5425 29.5228 37.3457 31.7196C35.1489 33.9164 32.1704 35.1521 29.0636 35.1556Z" fill="white"/>
<path d="M35.288 21.1809L31.561 20.6554L29.8994 17.3874C29.821 17.2332 29.7014 17.1036 29.5538 17.0131C29.4063 16.9227 29.2366 16.8748 29.0636 16.8748C28.8905 16.8748 28.7208 16.9227 28.5733 17.0131C28.4258 17.1036 28.3062 17.2332 28.2277 17.3874L26.5661 20.6554L22.8392 21.1809C22.6644 21.2056 22.5002 21.279 22.3654 21.3929C22.2306 21.5067 22.1306 21.6563 22.077 21.8244C22.0234 21.9925 22.0184 22.1724 22.0624 22.3432C22.1065 22.5141 22.1978 22.6691 22.326 22.7903L25.0057 25.3259L24.3744 28.8991C24.3442 29.0708 24.3624 29.2475 24.4271 29.4094C24.4917 29.5713 24.6002 29.712 24.7403 29.8157C24.8805 29.9193 25.0468 29.9818 25.2205 29.9962C25.3943 30.0106 25.5686 29.9762 25.7239 29.897L29.0636 28.1928L32.4033 29.897C32.5586 29.9762 32.7329 30.0106 32.9066 29.9962C33.0803 29.9818 33.2466 29.9193 33.3868 29.8157C33.527 29.712 33.6355 29.5713 33.7001 29.4094C33.7647 29.2475 33.7829 29.0708 33.7527 28.8991L33.1215 25.3259L35.8011 22.7903C35.9293 22.6691 36.0207 22.5141 36.0647 22.3432C36.1088 22.1724 36.1037 21.9925 36.0501 21.8244C35.9965 21.6563 35.8965 21.5067 35.7617 21.3929C35.6269 21.279 35.4627 21.2056 35.288 21.1809ZM31.4662 24.3106C31.3534 24.4171 31.2688 24.55 31.2201 24.6974C31.1713 24.8447 31.16 25.0018 31.187 25.1547L31.5788 27.3716L29.4897 26.3055C29.3578 26.2381 29.2117 26.2029 29.0635 26.2029C28.9154 26.2029 28.7693 26.2381 28.6374 26.3055L26.5482 27.3716L26.9401 25.1547C26.9671 25.0018 26.9558 24.8447 26.907 24.6974C26.8583 24.55 26.7737 24.4171 26.6608 24.3106L25.0281 22.7656L27.3113 22.4438C27.4606 22.4228 27.6027 22.366 27.7254 22.2784C27.8481 22.1907 27.9479 22.0748 28.0162 21.9403L29.0636 19.8804L30.1109 21.9403C30.1792 22.0748 30.279 22.1907 30.4017 22.2784C30.5244 22.3661 30.6665 22.4228 30.8158 22.4438L33.099 22.7656L31.4662 24.3106Z" fill="white"/>
<path d="M33.8292 42.992C34.1821 42.9092 34.9669 43.2721 35.6258 43.5974V41.531C34.942 41.1784 34.1642 41.0505 33.4035 41.1656C32.3351 41.4151 31.5693 42.44 30.8286 43.4315C30.3636 44.054 29.6605 44.9952 29.2861 44.9993H29.2842C28.9135 44.9993 28.1664 44.0421 27.7201 43.47C26.9571 42.4922 26.1679 41.481 25.0904 41.2526C24.9341 41.2197 24.7749 41.2035 24.6152 41.204C23.6998 41.204 22.7417 41.7053 21.8106 42.1928C21.1053 42.5627 20.0374 43.1202 19.684 42.9568C19.3759 42.8153 19.1333 41.6572 18.9882 40.9651C18.7319 39.7424 18.4668 38.4776 17.5756 37.7969C16.6908 37.1208 15.3821 37.1744 14.1132 37.2266C13.433 37.2554 12.1655 37.3067 11.9467 37.0453C11.7146 36.7661 12.0181 35.5887 12.1999 34.8847C12.5056 33.6996 12.8215 32.4737 12.3358 31.5069C11.8437 30.5324 10.6508 30.0279 9.49686 29.5404C8.86517 29.2735 7.68969 28.7764 7.60775 28.4413C7.52673 28.1076 8.34563 27.1468 8.78553 26.6309C9.59116 25.6852 10.4243 24.7074 10.4133 23.617C10.4009 22.534 9.54996 21.5773 8.72648 20.6517C8.27331 20.1427 7.42969 19.1942 7.50476 18.8536C7.57754 18.5258 8.73518 18.01 9.35726 17.733C10.5057 17.2212 11.6936 16.6921 12.1696 15.7019C12.6356 14.7352 12.2964 13.5207 11.9687 12.3461C11.7719 11.6421 11.4428 10.4634 11.6757 10.1709C11.9192 9.86601 13.1835 9.89301 13.9393 9.91086C15.1743 9.93879 16.4472 9.9658 17.2799 9.30112C18.1473 8.60947 18.3858 7.34836 18.6165 6.12888C18.7492 5.42853 18.9708 4.25575 19.2853 4.10422C19.6276 3.93851 20.7427 4.49422 21.4087 4.82703C22.5188 5.38139 23.664 5.95402 24.7246 5.70774C25.7921 5.45875 26.5574 4.43427 27.2981 3.44325C27.7631 2.82024 28.4667 1.87866 28.842 1.87499H28.8443C29.2151 1.87499 29.9617 2.83171 30.408 3.40435C31.1706 4.38165 31.9593 5.39285 33.0368 5.6217C34.0974 5.84692 35.2239 5.25369 36.3175 4.68057C37.0228 4.31115 38.0862 3.75546 38.4423 3.91565C38.7513 4.05801 38.9939 5.21707 39.1394 5.90964C39.3958 7.13187 39.6604 8.39618 40.552 9.07779C41.4364 9.75251 42.7446 9.69666 44.0126 9.64677C44.6937 9.61747 45.9603 9.5662 46.1795 9.8285C46.4125 10.1073 46.1086 11.2855 45.9273 11.9891C45.6215 13.1742 45.3057 14.4001 45.7919 15.366C46.2835 16.3406 47.4768 16.8455 48.6312 17.3334C49.2625 17.6003 50.438 18.0974 50.5194 18.4316C50.6004 18.7648 49.7815 19.7261 49.3417 20.242C48.536 21.1877 47.7029 22.1655 47.7144 23.2545C47.7263 24.3389 48.5781 25.2966 49.4016 26.2221C49.8543 26.7312 50.6975 27.6787 50.622 28.0193C50.5496 28.348 49.3911 28.8643 48.7686 29.1413C48.6236 29.2059 48.4781 29.2708 48.3334 29.3368C48.4587 29.381 48.5836 29.4263 48.7055 29.481C49.2741 29.731 49.7875 30.0912 50.2161 30.5408C51.2712 30.0416 52.2252 29.4552 52.4529 28.4244C52.7354 27.1486 51.7526 26.0441 50.8023 24.9761C50.2919 24.4026 49.5934 23.6171 49.5893 23.2344C49.5852 22.8471 50.269 22.0447 50.7689 21.4583C51.6931 20.3738 52.6484 19.2523 52.3413 17.988C52.0364 16.7374 50.6764 16.1625 49.3613 15.6063C48.6381 15.3005 47.6475 14.8817 47.4658 14.5224C47.2969 14.1864 47.5546 13.1871 47.7428 12.4574C48.0829 11.1391 48.4678 9.64494 47.6196 8.62736C46.809 7.65507 45.3478 7.71549 43.9352 7.77317C43.1324 7.80613 42.0356 7.85098 41.6905 7.58777C41.3527 7.32962 41.1339 6.28638 40.9741 5.52469C40.688 4.16055 40.3923 2.74975 39.226 2.21234C38.0335 1.66577 36.7194 2.35333 35.4477 3.01937C34.7607 3.37918 33.8195 3.87216 33.4263 3.78793C33.0171 3.70098 32.3635 2.86282 31.886 2.25079C31.0177 1.13753 30.1224 -0.00592998 28.8228 2.31451e-05C27.5196 0.0137575 26.6435 1.18652 25.7958 2.32127C25.3334 2.94017 24.6999 3.78792 24.2989 3.88174C23.8998 3.97238 22.9436 3.49725 22.246 3.14935C20.9661 2.51031 19.6423 1.84933 18.47 2.41555C17.3046 2.97815 17.035 4.40268 16.7746 5.78052C16.6308 6.53903 16.4345 7.57721 16.1104 7.83539C15.8083 8.07663 14.7518 8.05328 13.9805 8.03635C12.5322 8.00476 11.0322 7.97135 10.2101 9.00177C9.37879 10.0436 9.79534 11.535 10.1629 12.8506C10.3529 13.5303 10.6399 14.558 10.4801 14.889C10.3021 15.2593 9.31517 15.6992 8.59422 16.0201C7.29515 16.5991 5.95167 17.1974 5.67428 18.448C5.39185 19.7247 6.37508 20.8297 7.32581 21.8982C7.83574 22.4712 8.53425 23.2563 8.53838 23.6372C8.5425 24.0253 7.85817 24.8283 7.35831 25.4146C6.43413 26.4991 5.47882 27.6205 5.78596 28.8849C6.09128 30.1364 7.45169 30.7113 8.76724 31.2675C9.49002 31.5728 10.4801 31.9917 10.6614 32.3506C10.8303 32.6866 10.5726 33.6867 10.3845 34.4164C10.0444 35.7343 9.65893 37.2284 10.5071 38.2465C11.3187 39.2178 12.7794 39.1574 14.1906 39.1002C14.9921 39.0672 16.0907 39.0214 16.4372 39.2869C16.775 39.5447 16.9934 40.5879 17.1531 41.3496C17.4392 42.7137 17.7344 44.1241 18.9003 44.6601C20.0927 45.2108 21.4078 44.5205 22.6804 43.854C23.3661 43.4947 24.3063 43.0016 24.7013 43.0863C25.1101 43.1733 25.7642 44.0114 26.2421 44.6235C27.1054 45.7303 27.9985 46.8743 29.2838 46.8743H29.3058C30.6081 46.8601 31.4837 45.6873 32.331 44.5534C32.7938 43.9341 33.4277 43.0854 33.8292 42.992Z" fill="white"/>
<path d="M54.0109 39.6471C54.2511 39.2396 54.3769 38.7747 54.375 38.3016C54.3731 37.8286 54.2435 37.3648 53.9999 36.9592C53.7564 36.5536 53.4079 36.2213 52.9912 35.9972C52.5745 35.7732 52.1051 35.6658 51.6325 35.6863L49.9794 35.685C50.0264 35.4232 50.0438 35.1569 50.0313 34.8912C49.9428 34.089 49.7096 31.9748 47.9475 31.1959C47.5747 31.0267 47.1703 30.9385 46.7609 30.937C46.7159 30.937 46.6709 30.9381 46.6259 30.9404C46.0359 30.9741 45.4714 31.1926 45.0125 31.5651C44.6267 31.8979 44.33 32.3216 44.1494 32.798C43.9688 33.2744 43.91 33.7883 43.9782 34.2932C43.9817 34.3615 43.986 34.4294 43.986 34.4957V34.727C43.7409 35.2247 43.0342 36.3309 42.785 36.7208L42.7725 36.7404C42.628 36.7835 42.4636 36.8316 42.2945 36.8805C41.9861 36.6725 41.6225 36.5616 41.2505 36.5619H39.3756C38.8785 36.5624 38.4019 36.7601 38.0504 37.1116C37.6989 37.4632 37.5012 37.9398 37.5007 38.4369V44.0618C37.5012 44.5589 37.6989 45.0355 38.0504 45.387C38.4019 45.7386 38.8785 45.9363 39.3756 45.9368H41.2505C41.6853 45.9349 42.1056 45.7805 42.4383 45.5006C42.4725 45.5011 42.505 45.5029 42.5401 45.5029C42.7049 45.5029 42.9007 45.497 43.0974 45.4907C43.1927 45.4877 43.2883 45.4845 43.3786 45.4824C43.6439 45.6532 43.9333 45.7833 44.2371 45.8686C44.3948 45.9109 44.5572 45.9325 44.7204 45.9328L50.3469 45.9343C51.0681 45.9392 51.7617 45.6578 52.2756 45.1519C52.7896 44.6461 53.0819 43.957 53.0885 43.2359C53.0885 43.2212 53.0884 43.2068 53.0882 43.1922C53.437 42.7304 53.6256 42.1674 53.6254 41.5887C53.6254 41.5128 53.622 41.4384 53.6157 41.3657C53.8861 40.9402 54.0295 40.4465 54.0292 39.9425C54.0292 39.8437 54.0231 39.7451 54.0109 39.6471ZM41.2505 44.0618H39.3756V38.4369H41.2505V44.0618ZM51.6325 39.1284C51.6325 39.1284 52.1542 39.5288 52.1542 39.9425C52.1481 40.1668 52.0532 40.3795 51.8904 40.534C51.7275 40.6884 51.51 40.7718 51.2857 40.7659C51.5395 40.9712 51.7056 41.2654 51.7505 41.5887C51.7448 41.8128 51.6504 42.0255 51.488 42.1801C51.3256 42.3347 51.1085 42.4185 50.8844 42.4132C51.0781 42.6459 51.1933 42.9338 51.2136 43.2358C51.2108 43.3468 51.1861 43.4562 51.141 43.5576C51.0959 43.6591 51.0313 43.7506 50.9508 43.8271C50.8703 43.9036 50.7756 43.9635 50.672 44.0033C50.5683 44.0431 50.4579 44.0622 50.3469 44.0594L44.7236 44.0578C44.4214 43.9766 44.1987 43.7369 43.9094 43.6347C43.7892 43.6089 43.666 43.5991 43.5432 43.6053C43.4176 43.6053 43.2724 43.6095 43.1255 43.6141V38.5913C43.4266 38.5144 43.7223 38.4175 44.0105 38.3011C44.1219 38.0656 45.8609 35.5188 45.8609 35.0165V34.4957C45.8609 33.9821 45.7202 33.4009 46.1775 33.0342C46.3306 32.9056 46.5203 32.8282 46.7197 32.813C46.7334 32.8123 46.7472 32.812 46.7609 32.812C46.9091 32.8146 47.0551 32.8482 47.1895 32.9108C47.9266 33.2365 48.0924 34.4142 48.167 35.0905C48.06 35.9333 47.8572 36.7612 47.5625 37.558L51.6325 37.5613C51.7389 37.5496 51.8466 37.5598 51.9489 37.5914C52.0512 37.6229 52.146 37.6751 52.2273 37.7448C52.3086 37.8144 52.3748 37.9 52.4217 37.9962C52.4687 38.0925 52.4953 38.1973 52.5001 38.3043C52.4942 38.5286 52.3996 38.7414 52.2369 38.8959C52.0742 39.0505 51.8568 39.1341 51.6325 39.1284Z" fill="white"/>
</svg>
