<svg width="86" height="85" viewBox="0 0 86 85" fill="none" xmlns="http://www.w3.org/2000/svg">
<path d="M63.3535 0H13.4492C11.1416 0 9.28223 1.87598 9.28223 4.16699V5.76074H7.22363C4.91602 5.76074 3.05664 7.63672 3.05664 9.92773V69.0791V77.0644V80.8164C3.05664 83.124 4.93262 84.9834 7.22363 84.9834H57.1279C59.4356 84.9834 61.2949 83.1074 61.2949 80.8164V79.2226H63.3369C65.6445 79.2226 67.5039 77.3467 67.5039 75.0557V29.2187V4.16699C67.5205 1.87598 65.6445 0 63.3535 0ZM58.8047 80.833C58.8047 81.7627 58.0576 82.5098 57.1279 82.5098H7.22363C6.29395 82.5098 5.54688 81.7627 5.54688 80.833V77.081V69.0957V9.92773C5.54688 8.99805 6.29395 8.25098 7.22363 8.25098H57.1279C58.0576 8.25098 58.8047 8.99805 58.8047 9.92773V80.833ZM65.0303 75.0723C65.0303 76.0019 64.2832 76.749 63.3535 76.749H61.7598V9.92773C61.7598 7.62012 59.8838 5.76074 57.5928 5.76074C56.9121 5.76074 12.0879 5.76074 11.7725 5.76074V4.16699C11.7725 3.2373 12.5195 2.49023 13.4492 2.49023H63.3535C64.2832 2.49023 65.0303 3.2373 65.0303 4.16699V19.9883V75.0723ZM80.1377 24.7031H73.4971C71.9531 24.7031 70.6914 25.9648 70.6914 27.5088V62.8535C70.6914 62.8701 70.6914 62.9033 70.6914 62.9199C70.6914 62.9365 70.6914 62.9531 70.6914 62.9531C70.708 63.0527 70.7246 63.1523 70.7578 63.2353C70.7578 63.2519 70.7578 63.2519 70.7744 63.2686C70.791 63.3018 70.8076 63.3516 70.8242 63.3848V63.4014L74.9082 71.5859C75.3066 72.3828 76.0205 72.8643 76.8174 72.8643C77.6143 72.8643 78.3281 72.3828 78.7266 71.5859L82.8105 63.4014C82.8105 63.4014 82.8105 63.3848 82.8271 63.3848C82.8438 63.3516 82.8604 63.3184 82.877 63.2852C82.877 63.2686 82.8936 63.2686 82.8936 63.2519C82.9102 63.2021 82.9268 63.1689 82.9268 63.1191C82.9268 63.1191 82.9268 63.1191 82.9268 63.1025C82.9434 63.0527 82.9434 63.0029 82.9434 62.9531C82.9434 62.9365 82.9434 62.9199 82.9434 62.9033C82.9434 62.8867 82.9434 62.8535 82.9434 62.8369C82.9434 61.542 82.9434 29.252 82.9434 27.4922C82.9434 25.9648 81.6816 24.7031 80.1377 24.7031ZM76.8174 69.8594L73.9453 64.0986H79.6895L76.8174 69.8594ZM80.4531 61.6084H73.1816V34.9795H80.4531V61.6084ZM80.4531 32.4893H73.1816V27.5088C73.1816 27.3262 73.3311 27.1934 73.4971 27.1934H80.1377C80.3203 27.1934 80.4531 27.3428 80.4531 27.5088V32.4893Z" fill="white"/>
<path d="M24.9541 64.4141C24.4561 63.9492 23.6592 63.9658 23.1943 64.4639L21.0361 66.7549C20.6211 66.4727 20.123 66.3066 19.5918 66.3066H12.7354C11.3242 66.3066 10.1621 67.4687 10.1621 68.8799V75.7363C10.1621 77.1475 11.3242 78.3096 12.7354 78.3096H19.5918C21.0029 78.3096 22.165 77.1475 22.165 75.7363V69.1787L25.0039 66.1572C25.4854 65.6592 25.4688 64.8789 24.9541 64.4141ZM12.7354 75.8359C12.6855 75.8359 12.6523 75.8027 12.6523 75.7529V73.3291C14.2295 75.7363 14.1465 75.6533 14.3789 75.8359H12.7354ZM13.084 69.4443C12.9678 69.2783 12.8184 69.1455 12.6523 69.0459V68.8799C12.6523 68.8301 12.6855 68.7969 12.7354 68.7969H19.1104L15.3086 72.8476L13.084 69.4443ZM19.6914 75.7529C19.6914 75.8027 19.6582 75.8359 19.6084 75.8359H15.9063C15.9561 75.8027 16.0059 75.7529 16.0391 75.7031L19.6748 71.835V75.7529H19.6914ZM52.8945 71.0713H26.4482C25.7676 71.0713 25.2031 71.6357 25.2031 72.3164C25.2031 72.9971 25.7676 73.5615 26.4482 73.5615H52.8945C53.5752 73.5615 54.1396 72.9971 54.1396 72.3164C54.1396 71.6357 53.5918 71.0713 52.8945 71.0713ZM13.0674 40.3252H35.1475C36.7412 40.3252 38.0527 39.0137 38.0527 37.4199V15.3398C38.0527 13.7461 36.7412 12.4346 35.1475 12.4346H13.0674C11.4736 12.4346 10.1621 13.7461 10.1621 15.3398V37.4199C10.1621 39.0303 11.4736 40.3252 13.0674 40.3252ZM12.6523 15.3564C12.6523 15.124 12.835 14.9414 13.0674 14.9414H35.1475C35.3799 14.9414 35.5625 15.124 35.5625 15.3564V37.4365C35.5625 37.6689 35.3799 37.8516 35.1475 37.8516H13.0674C12.835 37.8516 12.6523 37.6689 12.6523 37.4365V15.3564Z" fill="white"/>
<path d="M19.2598 35.8428C19.3262 35.8428 19.376 35.8428 19.4424 35.8262C19.5088 35.8428 19.5586 35.8428 19.625 35.8428H25.0703H28.9551C29.2871 35.8428 29.6025 35.71 29.835 35.4775C30.0674 35.2451 30.2002 34.9297 30.2002 34.5977V31.9082C30.2002 30.2812 29.5693 28.7539 28.4072 27.5918C28.1914 27.376 27.959 27.1768 27.71 26.9941C28.9717 25.9482 29.7852 24.3711 29.7852 22.6113C29.7852 19.4736 27.2285 16.917 24.0908 16.917C20.9531 16.917 18.3965 19.4736 18.3965 22.6113C18.3965 24.3711 19.21 25.9482 20.4717 26.9941C20.2227 27.1768 20.0068 27.376 19.7744 27.5918C18.6289 28.7373 17.998 30.2646 17.998 31.9082V34.5977C17.998 34.9297 18.1309 35.2451 18.3633 35.4775C18.6123 35.71 18.9277 35.8428 19.2598 35.8428ZM24.1074 19.4238C25.8672 19.4238 27.3115 20.8516 27.3115 22.6279C27.3115 24.3877 25.8838 25.8154 24.124 25.832C24.124 25.832 24.124 25.832 24.1074 25.832C24.1074 25.832 24.1074 25.832 24.0908 25.832C22.3311 25.832 20.9033 24.3877 20.9033 22.6279C20.9033 20.8516 22.3477 19.4238 24.1074 19.4238ZM24.0908 28.3057C24.1074 28.3057 24.124 28.3057 24.124 28.3057C26.0996 28.3223 27.71 29.9326 27.71 31.9082V33.3525H20.5049V31.9082C20.5049 29.9326 22.1152 28.3223 24.0908 28.3057ZM52.8945 18.5273H41.8877C41.207 18.5273 40.6426 19.0918 40.6426 19.7725C40.6426 20.4531 41.207 21.0176 41.8877 21.0176H52.8945C53.5752 21.0176 54.1396 20.4531 54.1396 19.7725C54.1396 19.0918 53.5918 18.5273 52.8945 18.5273ZM52.8945 25.583H41.8877C41.207 25.583 40.6426 26.1475 40.6426 26.8281C40.6426 27.5088 41.207 28.0732 41.8877 28.0732H52.8945C53.5752 28.0732 54.1396 27.5088 54.1396 26.8281C54.1396 26.1475 53.5918 25.583 52.8945 25.583ZM52.8945 33.1035H41.8877C41.207 33.1035 40.6426 33.668 40.6426 34.3486C40.6426 35.0293 41.207 35.5937 41.8877 35.5937H52.8945C53.5752 35.5937 54.1396 35.0293 54.1396 34.3486C54.1396 33.668 53.5918 33.1035 52.8945 33.1035ZM52.8945 45.1396H11.4072C10.7266 45.1396 10.1621 45.7041 10.1621 46.3848C10.1621 47.0654 10.7266 47.6299 11.4072 47.6299H52.8945C53.5752 47.6299 54.1396 47.0654 54.1396 46.3848C54.1396 45.7041 53.5918 45.1396 52.8945 45.1396ZM52.8945 52.1953H11.4072C10.7266 52.1953 10.1621 52.7598 10.1621 53.4404C10.1621 54.1211 10.7266 54.6855 11.4072 54.6855H52.8945C53.5752 54.6855 54.1396 54.1211 54.1396 53.4404C54.1396 52.7598 53.5918 52.1953 52.8945 52.1953ZM52.8945 59.251H11.4072C10.7266 59.251 10.1621 59.8154 10.1621 60.4961C10.1621 61.1768 10.7266 61.7412 11.4072 61.7412H52.8945C53.5752 61.7412 54.1396 61.1768 54.1396 60.4961C54.1396 59.8154 53.5918 59.251 52.8945 59.251Z" fill="white"/>
</svg>
