<svg width="85" height="85" viewBox="0 0 85 85" fill="none" xmlns="http://www.w3.org/2000/svg">
<path d="M62.8535 0H12.9492C10.6416 0 8.78223 1.87598 8.78223 4.16699V5.76074H6.72363C4.41602 5.76074 2.55664 7.63672 2.55664 9.92773V69.0791V77.0644V80.8164C2.55664 83.124 4.43262 84.9834 6.72363 84.9834H56.6279C58.9356 84.9834 60.7949 83.1074 60.7949 80.8164V79.2226H62.8369C65.1445 79.2226 67.0039 77.3467 67.0039 75.0557V29.2187V4.16699C67.0205 1.87598 65.1445 0 62.8535 0ZM58.3047 80.833C58.3047 81.7627 57.5576 82.5098 56.6279 82.5098H6.72363C5.79395 82.5098 5.04688 81.7627 5.04688 80.833V77.081V69.0957V9.92773C5.04688 8.99805 5.79395 8.25098 6.72363 8.25098H56.6279C57.5576 8.25098 58.3047 8.99805 58.3047 9.92773V80.833ZM64.5303 75.0723C64.5303 76.0019 63.7832 76.749 62.8535 76.749H61.2598V9.92773C61.2598 7.62012 59.3838 5.76074 57.0928 5.76074C56.4121 5.76074 11.5879 5.76074 11.2725 5.76074V4.16699C11.2725 3.2373 12.0195 2.49023 12.9492 2.49023H62.8535C63.7832 2.49023 64.5303 3.2373 64.5303 4.16699V19.9883V75.0723ZM79.6377 24.7031H72.9971C71.4531 24.7031 70.1914 25.9648 70.1914 27.5088V62.8535C70.1914 62.8701 70.1914 62.9033 70.1914 62.9199C70.1914 62.9365 70.1914 62.9531 70.1914 62.9531C70.208 63.0527 70.2246 63.1523 70.2578 63.2353C70.2578 63.2519 70.2578 63.2519 70.2744 63.2686C70.291 63.3018 70.3076 63.3516 70.3242 63.3848V63.4014L74.4082 71.5859C74.8066 72.3828 75.5205 72.8643 76.3174 72.8643C77.1143 72.8643 77.8281 72.3828 78.2266 71.5859L82.3105 63.4014C82.3105 63.4014 82.3105 63.3848 82.3271 63.3848C82.3438 63.3516 82.3604 63.3184 82.377 63.2852C82.377 63.2686 82.3936 63.2686 82.3936 63.2519C82.4102 63.2021 82.4268 63.1689 82.4268 63.1191C82.4268 63.1191 82.4268 63.1191 82.4268 63.1025C82.4434 63.0527 82.4434 63.0029 82.4434 62.9531C82.4434 62.9365 82.4434 62.9199 82.4434 62.9033C82.4434 62.8867 82.4434 62.8535 82.4434 62.8369C82.4434 61.542 82.4434 29.252 82.4434 27.4922C82.4434 25.9648 81.1816 24.7031 79.6377 24.7031ZM76.3174 69.8594L73.4453 64.0986H79.1895L76.3174 69.8594ZM79.9531 61.6084H72.6816V34.9795H79.9531V61.6084ZM79.9531 32.4893H72.6816V27.5088C72.6816 27.3262 72.8311 27.1934 72.9971 27.1934H79.6377C79.8203 27.1934 79.9531 27.3428 79.9531 27.5088V32.4893Z" fill="#2E2E2E"/>
<path d="M24.4541 64.4141C23.9561 63.9492 23.1592 63.9658 22.6943 64.4639L20.5361 66.7549C20.1211 66.4727 19.623 66.3066 19.0918 66.3066H12.2354C10.8242 66.3066 9.66211 67.4687 9.66211 68.8799V75.7363C9.66211 77.1475 10.8242 78.3096 12.2354 78.3096H19.0918C20.5029 78.3096 21.665 77.1475 21.665 75.7363V69.1787L24.5039 66.1572C24.9854 65.6592 24.9688 64.8789 24.4541 64.4141ZM12.2354 75.8359C12.1855 75.8359 12.1523 75.8027 12.1523 75.7529V73.3291C13.7295 75.7363 13.6465 75.6533 13.8789 75.8359H12.2354ZM12.584 69.4443C12.4678 69.2783 12.3184 69.1455 12.1523 69.0459V68.8799C12.1523 68.8301 12.1855 68.7969 12.2354 68.7969H18.6104L14.8086 72.8476L12.584 69.4443ZM19.1914 75.7529C19.1914 75.8027 19.1582 75.8359 19.1084 75.8359H15.4063C15.4561 75.8027 15.5059 75.7529 15.5391 75.7031L19.1748 71.835V75.7529H19.1914ZM52.3945 71.0713H25.9482C25.2676 71.0713 24.7031 71.6357 24.7031 72.3164C24.7031 72.9971 25.2676 73.5615 25.9482 73.5615H52.3945C53.0752 73.5615 53.6396 72.9971 53.6396 72.3164C53.6396 71.6357 53.0918 71.0713 52.3945 71.0713ZM12.5674 40.3252H34.6475C36.2412 40.3252 37.5527 39.0137 37.5527 37.4199V15.3398C37.5527 13.7461 36.2412 12.4346 34.6475 12.4346H12.5674C10.9736 12.4346 9.66211 13.7461 9.66211 15.3398V37.4199C9.66211 39.0303 10.9736 40.3252 12.5674 40.3252ZM12.1523 15.3564C12.1523 15.124 12.335 14.9414 12.5674 14.9414H34.6475C34.8799 14.9414 35.0625 15.124 35.0625 15.3564V37.4365C35.0625 37.6689 34.8799 37.8516 34.6475 37.8516H12.5674C12.335 37.8516 12.1523 37.6689 12.1523 37.4365V15.3564Z" fill="#2E2E2E"/>
<path d="M18.7598 35.8428C18.8262 35.8428 18.876 35.8428 18.9424 35.8262C19.0088 35.8428 19.0586 35.8428 19.125 35.8428H24.5703H28.4551C28.7871 35.8428 29.1025 35.71 29.335 35.4775C29.5674 35.2451 29.7002 34.9297 29.7002 34.5977V31.9082C29.7002 30.2812 29.0693 28.7539 27.9072 27.5918C27.6914 27.376 27.459 27.1768 27.21 26.9941C28.4717 25.9482 29.2852 24.3711 29.2852 22.6113C29.2852 19.4736 26.7285 16.917 23.5908 16.917C20.4531 16.917 17.8965 19.4736 17.8965 22.6113C17.8965 24.3711 18.71 25.9482 19.9717 26.9941C19.7227 27.1768 19.5068 27.376 19.2744 27.5918C18.1289 28.7373 17.498 30.2646 17.498 31.9082V34.5977C17.498 34.9297 17.6309 35.2451 17.8633 35.4775C18.1123 35.71 18.4277 35.8428 18.7598 35.8428ZM23.6074 19.4238C25.3672 19.4238 26.8115 20.8516 26.8115 22.6279C26.8115 24.3877 25.3838 25.8154 23.624 25.832C23.624 25.832 23.624 25.832 23.6074 25.832C23.6074 25.832 23.6074 25.832 23.5908 25.832C21.8311 25.832 20.4033 24.3877 20.4033 22.6279C20.4033 20.8516 21.8477 19.4238 23.6074 19.4238ZM23.5908 28.3057C23.6074 28.3057 23.624 28.3057 23.624 28.3057C25.5996 28.3223 27.21 29.9326 27.21 31.9082V33.3525H20.0049V31.9082C20.0049 29.9326 21.6152 28.3223 23.5908 28.3057ZM52.3945 18.5273H41.3877C40.707 18.5273 40.1426 19.0918 40.1426 19.7725C40.1426 20.4531 40.707 21.0176 41.3877 21.0176H52.3945C53.0752 21.0176 53.6396 20.4531 53.6396 19.7725C53.6396 19.0918 53.0918 18.5273 52.3945 18.5273ZM52.3945 25.583H41.3877C40.707 25.583 40.1426 26.1475 40.1426 26.8281C40.1426 27.5088 40.707 28.0732 41.3877 28.0732H52.3945C53.0752 28.0732 53.6396 27.5088 53.6396 26.8281C53.6396 26.1475 53.0918 25.583 52.3945 25.583ZM52.3945 33.1035H41.3877C40.707 33.1035 40.1426 33.668 40.1426 34.3486C40.1426 35.0293 40.707 35.5937 41.3877 35.5937H52.3945C53.0752 35.5937 53.6396 35.0293 53.6396 34.3486C53.6396 33.668 53.0918 33.1035 52.3945 33.1035ZM52.3945 45.1396H10.9072C10.2266 45.1396 9.66211 45.7041 9.66211 46.3848C9.66211 47.0654 10.2266 47.6299 10.9072 47.6299H52.3945C53.0752 47.6299 53.6396 47.0654 53.6396 46.3848C53.6396 45.7041 53.0918 45.1396 52.3945 45.1396ZM52.3945 52.1953H10.9072C10.2266 52.1953 9.66211 52.7598 9.66211 53.4404C9.66211 54.1211 10.2266 54.6855 10.9072 54.6855H52.3945C53.0752 54.6855 53.6396 54.1211 53.6396 53.4404C53.6396 52.7598 53.0918 52.1953 52.3945 52.1953ZM52.3945 59.251H10.9072C10.2266 59.251 9.66211 59.8154 9.66211 60.4961C9.66211 61.1768 10.2266 61.7412 10.9072 61.7412H52.3945C53.0752 61.7412 53.6396 61.1768 53.6396 60.4961C53.6396 59.8154 53.0918 59.251 52.3945 59.251Z" fill="#2E2E2E"/>
</svg>
