<svg width="43" height="44" viewBox="0 0 43 44" fill="none" xmlns="http://www.w3.org/2000/svg">
<g filter="url(#filter0_d_59_16)">
<rect x="4" y="0.5" width="34" height="34" rx="17.5"/>
<rect x="4.5" y="1" width="33" height="33" rx="17" stroke="#E0E0E0"/>
<path d="M27.8411 23.5942L25.6068 21.4098L25.5544 21.3301C25.4571 21.2332 25.3239 21.1786 25.185 21.1786C25.046 21.1786 24.9129 21.2332 24.8155 21.3301C22.9167 23.0722 19.9908 23.1669 17.9783 21.5514C15.9658 19.936 15.4912 17.1117 16.8692 14.9516C18.2472 12.7915 21.0502 11.966 23.4194 13.0224C25.7885 14.0788 26.9885 16.6895 26.2236 19.1229C26.1685 19.2987 26.2135 19.4899 26.3417 19.6245C26.4699 19.759 26.6617 19.8165 26.845 19.7752C27.0282 19.7339 27.1751 19.6002 27.2302 19.4244C28.1446 16.5366 26.7635 13.4289 23.9805 12.1117C21.1974 10.7945 17.8475 11.663 16.0979 14.1555C14.3482 16.648 14.7239 20.0164 16.9818 22.0817C19.2397 24.147 22.7024 24.2893 25.1297 22.4167L27.108 24.3508C27.3123 24.5497 27.6426 24.5497 27.8469 24.3508C28.051 24.1491 28.051 23.8244 27.8469 23.6227L27.8411 23.5942Z" fill="#2D2D2D"/>
</g>
<defs>
<filter id="filter0_d_59_16" x="0" y="0.5" width="43" height="43" filterUnits="userSpaceOnUse" color-interpolation-filters="sRGB">
<feFlood flood-opacity="0" result="BackgroundImageFix"/>
<feColorMatrix in="SourceAlpha" type="matrix" values="0 0 0 0 0 0 0 0 0 0 0 0 0 0 0 0 0 0 127 0" result="hardAlpha"/>
<feOffset dy="4"/>
<feGaussianBlur stdDeviation="2"/>
<feComposite in2="hardAlpha" operator="out"/>
<feColorMatrix type="matrix" values="0 0 0 0 0 0 0 0 0 0 0 0 0 0 0 0 0 0 0.05 0"/>
<feBlend mode="multiply" in2="BackgroundImageFix" result="effect1_dropShadow_59_16"/>
<feBlend mode="normal" in="SourceGraphic" in2="effect1_dropShadow_59_16" result="shape"/>
</filter>
</defs>
</svg>
