<svg width="216" height="24" viewBox="0 0 216 24" fill="none" xmlns="http://www.w3.org/2000/svg">
<path d="M17.304 16.312C17.304 20.088 14.36 23.224 9.112 23.224C4.28 23.224 0.504 20.824 0.344 16.28H6.168C6.328 18.008 7.416 18.84 8.952 18.84C10.552 18.84 11.576 18.04 11.576 16.728C11.576 12.568 0.344 14.808 0.408 6.84C0.408 2.584 3.896 0.216 8.6 0.216C13.496 0.216 16.792 2.648 17.016 6.936H11.096C11 5.496 9.976 4.632 8.504 4.6C7.192 4.568 6.2 5.24 6.2 6.648C6.2 10.552 17.304 8.792 17.304 16.312ZM20.6715 23V0.535999H27.1355L33.4395 16.088L39.6795 0.535999H46.1115V23H40.6395V9.528L35.6155 23H31.1995L26.1435 9.496V23H20.6715ZM63.8065 0.535999V4.92H55.5185V9.464H62.8465V13.688H55.5185V18.616H63.8065V23H50.0465V0.535999H63.8065Z" fill="#5DC0CC"/>
<path d="M66.911 11.8C66.911 5.08 71.647 0.375999 77.855 0.375999C82.847 0.375999 86.559 2.872 88.159 7.16H85.535C84.287 4.184 81.663 2.328 77.855 2.328C72.959 2.328 69.215 5.944 69.215 11.8C69.215 17.624 72.959 21.24 77.855 21.24C81.663 21.24 84.287 19.384 85.535 16.472H88.159C86.559 20.696 82.847 23.192 77.855 23.192C71.647 23.192 66.911 18.52 66.911 11.8ZM113.743 11.8C113.743 18.52 108.975 23.224 102.671 23.224C96.3985 23.224 91.5985 18.52 91.5985 11.8C91.5985 5.112 96.3985 0.375999 102.671 0.375999C108.975 0.375999 113.743 5.112 113.743 11.8ZM93.9025 11.8C93.9025 17.656 97.7105 21.272 102.671 21.272C107.631 21.272 111.439 17.656 111.439 11.8C111.439 5.944 107.631 2.36 102.671 2.36C97.7105 2.36 93.9025 5.944 93.9025 11.8ZM132.465 0.631998H134.705V23H132.465L120.081 4.184V23H117.841V0.631998H120.081L132.465 19.416V0.631998ZM154.403 0.631998H156.643V23H154.403L142.019 4.184V23H139.779V0.631998H142.019L154.403 19.416V0.631998ZM173.396 0.599998V2.456H163.956V10.808H172.436V12.664H163.956V21.144H173.396V23H161.716V0.599998H173.396ZM176.786 11.8C176.786 5.08 181.522 0.375999 187.73 0.375999C192.722 0.375999 196.434 2.872 198.034 7.16H195.41C194.162 4.184 191.538 2.328 187.73 2.328C182.834 2.328 179.09 5.944 179.09 11.8C179.09 17.624 182.834 21.24 187.73 21.24C191.538 21.24 194.162 19.384 195.41 16.472H198.034C196.434 20.696 192.722 23.192 187.73 23.192C181.522 23.192 176.786 18.52 176.786 11.8ZM200.898 2.488V0.631998H215.586V2.488H209.378V23H207.138V2.488H200.898Z" fill="#2E2E2E"/>
</svg>
