<svg width="62" height="62" viewBox="0 0 62 62" fill="none" xmlns="http://www.w3.org/2000/svg">
<path d="M44.2547 38.0275C53.0991 31.1713 54.6648 17.3807 47.6049 8.73177C46.7154 7.63152 45.0311 8.9417 45.8984 10.0728C52.2254 17.8261 50.8224 30.1909 42.8931 36.3372C40.5513 38.1374 39.6017 40.7506 39.3308 43.48C39.3306 43.4799 22.7642 43.4799 22.7642 43.4799C22.4901 40.768 21.6358 38.214 19.2822 36.4094C14.6294 32.7098 12.0465 27.1657 12.1948 21.1981C12.5273 6.27358 30.2498 -2.58514 42.2132 6.48796C42.6957 6.84225 43.3743 6.73996 43.7302 6.25763C44.0857 5.77477 43.9824 5.09527 43.5003 4.73962C21.2387 -10.7705 -2.91274 20.5347 17.9288 38.1058C19.8882 39.5848 20.377 41.6622 20.6259 43.8519C19.3144 44.6327 19.7289 46.5556 19.6696 47.8225C19.6696 48.76 20.2696 49.5528 21.103 49.8561V57.0386C21.103 59.4688 23.0794 61.4463 25.5081 61.4463H36.5749C39.0094 61.4463 40.9906 59.4688 40.9906 57.0386V49.8527C41.8185 49.5467 42.4134 48.7561 42.4134 47.8225C42.3547 46.552 42.764 44.6383 41.4668 43.8601C41.7061 41.6384 42.2992 39.5122 44.2547 38.0275ZM27.6021 47.8225C26.1778 47.8461 26.1749 49.9693 27.6021 49.9935C27.6021 49.9935 38.8209 49.9935 38.8209 49.9935V53.5489H23.2727V48.9074C23.2727 48.308 22.787 47.8219 22.1879 47.8219C22.1788 47.8236 21.8497 47.8219 21.8393 47.8225C21.8393 47.8225 21.8393 45.6509 21.8393 45.6509H40.2437V47.8225C40.241 47.8219 27.6023 47.8221 27.6021 47.8225ZM36.5749 59.2753H25.5081C24.2755 59.2753 23.2727 58.272 23.2727 57.0386V55.7199H38.8209V57.0386C38.8209 58.272 37.8133 59.2753 36.5749 59.2753Z" fill="white"/>
<path d="M42.5432 24.4066C43.256 24.3464 44.0022 24.0962 44.0089 23.2436C44.0089 23.2436 44.0089 18.8274 44.0089 18.8274C43.9321 17.1938 41.8526 18.184 41.3829 16.7211C41.0567 16.0295 41.4319 15.3274 41.8758 14.7955C42.1838 14.3646 42.1351 13.7733 41.7603 13.3985L38.6372 10.2755C38.0319 9.6846 37.3303 10.0193 36.7782 10.4904C35.9317 11.1415 34.5111 10.5782 34.3708 9.49361C34.3114 8.78042 34.0611 8.03369 33.2083 8.02689C33.2084 8.02686 28.7916 8.02686 28.7916 8.02686C27.1587 8.10362 28.1479 10.183 26.6859 10.6528C25.9941 10.9784 25.2916 10.6026 24.7591 10.1595C24.3282 9.85095 23.737 9.90122 23.3627 10.2755L20.2397 13.3985C19.1393 14.6058 21.3151 15.384 20.6038 16.7529C20.1471 18.1609 18.0527 17.2123 17.9911 18.8274C17.9911 18.8274 17.9911 23.2436 17.9911 23.2436C18.0087 24.0995 18.727 24.343 19.4579 24.4065C20.518 24.5411 21.1206 25.9502 20.4551 26.813C19.9944 27.3511 19.6426 28.0754 20.2397 28.6725C20.2397 28.6725 23.3627 31.7956 23.3627 31.7956C23.9685 32.3873 24.6699 32.0511 25.2217 31.5806C26.0667 30.9288 27.4891 31.4931 27.6292 32.5769C27.6887 33.2904 27.9381 34.038 28.7916 34.0447C28.7916 34.0447 33.2084 34.0447 33.2084 34.0447C34.0637 34.0272 34.3075 33.3093 34.3707 32.5784C34.5059 31.5162 35.9145 30.9146 36.7782 31.5812C37.3167 32.0412 38.0416 32.3933 38.6372 31.7955C38.6372 31.7956 41.7603 28.6725 41.7603 28.6725C42.1351 28.2977 42.1838 27.7065 41.8757 27.2756L41.5449 26.8135C40.8936 25.9701 41.4569 24.5455 42.5432 24.4066ZM39.382 24.5151C38.9326 25.5907 39.0141 26.7859 39.5895 27.7774L37.7416 29.6253C35.7675 28.3939 32.8361 29.5889 32.3064 31.8766C32.3064 31.8765 29.6936 31.8765 29.6936 31.8765C29.1682 29.607 26.2451 28.3833 24.2584 29.6254C24.2584 29.6253 22.4105 27.7774 22.4105 27.7774C22.9859 26.7859 23.0663 25.5886 22.6079 24.4902C22.1649 23.4183 21.2639 22.6349 20.1592 22.3422V19.7289C21.2645 19.4356 22.1659 18.6506 22.618 17.5565C23.0674 16.4803 22.9859 15.2851 22.4105 14.2936L24.2584 12.4457C25.2498 13.0201 26.4456 13.1016 27.5455 12.6432C28.6164 12.2001 29.3998 11.3003 29.6931 10.195H32.3069C32.8323 12.4646 35.754 13.687 37.7416 12.4457C37.7416 12.4457 39.5895 14.2936 39.5895 14.2936C38.3584 16.2682 39.5537 19.2008 41.8408 19.7288C41.8408 19.7288 41.8408 22.3422 41.8408 22.3422C40.7355 22.6354 39.834 23.421 39.382 24.5151Z" fill="white"/>
<path d="M31 15.2231C27.6423 15.2231 24.9107 17.9028 24.9107 21.1964C25.1966 29.1021 36.8046 29.1001 37.0893 21.1963C37.0893 17.9028 34.3576 15.2231 31 15.2231ZM31 24.9976C25.8791 24.8377 25.8802 17.5545 31.0001 17.3952C36.1209 17.5552 36.1197 24.8384 31 24.9976Z" fill="white"/>
</svg>
