<svg width="60" height="60" viewBox="0 0 60 60" fill="none" xmlns="http://www.w3.org/2000/svg">
<g clip-path="url(#clip0_261_227)">
<path d="M37.145 0.0910214C36.8 0.0500214 36.448 0.0220214 36.1 2.13594e-05C35.8297 -0.0147133 35.5592 0.0258406 35.305 0.119204C35.0509 0.212567 34.8185 0.356779 34.622 0.543021C34.4253 0.731255 34.2687 0.95741 34.1618 1.20783C34.0549 1.45825 33.9999 1.72774 34 2.00002V7.18202C33.9993 7.43105 34.0636 7.67594 34.1867 7.89245C34.3097 8.10897 34.4871 8.28962 34.7014 8.4165C34.9156 8.54339 35.1593 8.61212 35.4083 8.61589C35.6573 8.61967 35.903 8.55836 36.121 8.43802C36.7003 8.13565 37.3467 7.98496 38 8.00002C38.2902 8.00343 38.5762 8.0692 38.8387 8.19286C39.1012 8.31652 39.3341 8.49518 39.5215 8.71673C39.7089 8.93828 39.8465 9.19755 39.9249 9.47693C40.0033 9.75632 40.0208 10.0493 39.976 10.336C39.8663 10.8493 39.569 11.3032 39.1424 11.6089C38.7157 11.9146 38.1903 12.0502 37.669 11.989C37.1258 11.9549 36.5954 11.8092 36.111 11.561C35.8951 11.4409 35.6514 11.3798 35.4044 11.3838C35.1574 11.3879 34.9158 11.4569 34.704 11.584C34.4906 11.7119 34.314 11.8929 34.1914 12.1093C34.0687 12.3258 34.0042 12.5703 34.004 12.819V18C34.004 18.5305 34.2147 19.0392 34.5898 19.4142C34.9649 19.7893 35.4736 20 36.004 20H40.319C40.1047 20.6449 39.997 21.3205 40 22C40.0133 23.0581 40.44 24.0691 41.1891 24.8166C41.9381 25.5641 42.9499 25.9889 44.008 26C44.5737 26.0006 45.133 25.8812 45.6491 25.6498C46.1652 25.4183 46.6264 25.08 47.0021 24.6572C47.3779 24.2343 47.6597 23.7366 47.8289 23.1969C47.9982 22.6572 48.051 22.0877 47.984 21.526C47.9489 21.0067 47.8481 20.494 47.684 20H52C52.2717 20.0004 52.5407 19.9454 52.7904 19.8384C53.0402 19.7314 53.2655 19.5746 53.4527 19.3776C53.6398 19.1806 53.7849 18.9476 53.879 18.6927C53.9731 18.4378 54.0143 18.1664 54 17.895C53.991 17.73 53.981 17.564 53.967 17.388C53.5973 13.0038 51.7185 8.88357 48.6511 5.72947C45.5836 2.57537 41.5172 0.582675 37.145 0.0910214ZM46.82 18C46.5705 18.0006 46.3254 18.066 46.1087 18.1898C45.8921 18.3135 45.7113 18.4914 45.584 18.706C45.4583 18.9156 45.3897 19.1545 45.3849 19.3989C45.3802 19.6433 45.4395 19.8847 45.557 20.099C45.8088 20.5873 45.9562 21.1227 45.99 21.671C46.0536 22.1918 45.9189 22.7174 45.6129 23.1434C45.3069 23.5695 44.8518 23.8649 44.338 23.971C44.0516 24.016 43.7588 23.999 43.4795 23.921C43.2002 23.843 42.9409 23.7059 42.7192 23.519C42.4975 23.3321 42.3186 23.0998 42.1945 22.8377C42.0704 22.5756 42.0041 22.29 42 22C41.9836 21.3479 42.1333 20.7024 42.435 20.124C42.5554 19.9059 42.6168 19.6601 42.6132 19.411C42.6095 19.1619 42.5409 18.9181 42.4142 18.7036C42.2874 18.4891 42.1069 18.3113 41.8905 18.188C41.674 18.0646 41.4291 17.9998 41.18 18H36V13.683C36.4936 13.8471 37.006 13.9479 37.525 13.983C38.5475 14.0906 39.5726 13.8064 40.3938 13.1879C41.215 12.5693 41.7711 11.6624 41.95 10.65C42.0443 10.0772 42.0129 9.49069 41.8577 8.93125C41.7026 8.37181 41.4276 7.85284 41.0517 7.41038C40.6759 6.96792 40.2082 6.61258 39.6812 6.36903C39.1542 6.12548 38.5806 5.99956 38 6.00002C37.3206 5.9957 36.645 6.10244 36 6.31602V2.00002C36.3 2.01702 36.609 2.04202 36.925 2.07802C40.8199 2.55623 44.4347 4.34984 47.1715 7.16207C49.9083 9.9743 51.6029 13.6366 51.975 17.543C51.985 17.694 51.996 17.843 52.001 17.999L46.82 18Z" fill="white"/>
<path d="M42.18 27.9999H36.82C36.5705 28.0005 36.3254 28.0659 36.1087 28.1897C35.8921 28.3134 35.7113 28.4913 35.584 28.7059C35.4584 28.9142 35.3896 29.1518 35.3843 29.3949C35.3791 29.6381 35.4376 29.8784 35.554 30.0919C35.8076 30.5822 35.9561 31.12 35.99 31.6709C36.0533 32.1916 35.9186 32.7171 35.6126 33.1431C35.3066 33.5692 34.8516 33.8646 34.338 33.9709C34.0517 34.0151 33.7592 33.9974 33.4803 33.9191C33.2013 33.8408 32.9424 33.7037 32.7209 33.5169C32.4994 33.3302 32.3205 33.0982 32.1961 32.8365C32.0718 32.5749 32.0049 32.2896 32 31.9999C31.9843 31.3476 32.1339 30.7019 32.435 30.1229C32.5558 29.9049 32.6175 29.6591 32.614 29.4099C32.6105 29.1607 32.542 28.9168 32.4151 28.7022C32.2883 28.4877 32.1076 28.31 31.891 28.1868C31.6743 28.0636 31.4292 27.9992 31.18 27.9999H26V23.6819C26.4933 23.8459 27.0053 23.9467 27.524 23.9819C28.324 24.0762 29.1339 23.9273 29.8481 23.5546C30.5622 23.1818 31.1475 22.6026 31.5277 21.8924C31.9079 21.1821 32.0652 20.3738 31.9793 19.5729C31.8934 18.7719 31.5681 18.0154 31.046 17.4019C30.67 16.9617 30.2029 16.6084 29.677 16.3663C29.1511 16.1243 28.5789 15.9993 28 15.9999C27.3206 15.9956 26.6451 16.102 26 16.3149V11.8209C25.9994 11.5764 25.9494 11.3344 25.853 11.1096C25.7566 10.8849 25.6158 10.6819 25.439 10.5129C25.2654 10.3476 25.0603 10.2187 24.836 10.134C24.6116 10.0493 24.3726 10.0105 24.133 10.0199C20.5018 10.1869 16.9947 11.3921 14.0279 13.4923C11.061 15.5926 8.75892 18.4999 7.39471 21.8692C6.0305 25.2385 5.66143 28.9285 6.33131 32.5013C7.00118 36.074 8.68188 39.3797 11.174 42.0259C12.6027 43.5249 13.5464 45.4196 13.882 47.4629C13.9795 48.0798 14.2652 48.6515 14.7 49.0999C14.386 49.4731 14.1689 49.9181 14.0679 50.3952C13.967 50.8724 13.9853 51.3671 14.1213 51.8355C14.2573 52.3039 14.5068 52.7316 14.8475 53.0805C15.1883 53.4294 15.6099 53.6889 16.075 53.8359C16.606 57.2999 20.4 59.9999 25 59.9999C29.6 59.9999 33.394 57.2999 33.929 53.8379C34.3945 53.6912 34.8165 53.4317 35.1577 53.0827C35.4989 52.7337 35.7486 52.3058 35.8847 51.8371C36.0208 51.3684 36.0391 50.8733 35.938 50.3958C35.8369 49.9184 35.6194 49.4732 35.305 49.0999C35.7367 48.6557 36.0204 48.0888 36.117 47.4769C36.4721 45.3993 37.4378 43.4746 38.891 41.9479C41.9705 38.6545 43.7748 34.3711 43.98 29.8669C43.9918 29.6272 43.9542 29.3875 43.8695 29.1629C43.7849 28.9382 43.655 28.7333 43.488 28.5609C43.319 28.3841 43.116 28.2433 42.8913 28.1469C42.6665 28.0505 42.4246 28.0005 42.18 27.9999ZM24 12.0289V17.1799C23.9993 17.429 24.0636 17.6738 24.1866 17.8904C24.3096 18.1069 24.4871 18.2875 24.7013 18.4144C24.9156 18.5413 25.1593 18.61 25.4083 18.6138C25.6573 18.6176 25.903 18.5563 26.121 18.4359C26.7004 18.1342 27.3469 17.9843 28 17.9999C28.2915 17.9993 28.5797 18.0623 28.8443 18.1848C29.1089 18.3072 29.3436 18.486 29.5318 18.7086C29.7201 18.9312 29.8574 19.1923 29.9341 19.4736C30.0108 19.7549 30.0251 20.0495 29.976 20.3369C29.8679 20.8511 29.5711 21.3061 29.144 21.6121C28.7169 21.9181 28.1906 22.0529 27.669 21.9899C27.1266 21.9571 26.5968 21.8124 26.113 21.5649C25.8977 21.4436 25.654 21.3815 25.4069 21.3848C25.1598 21.3882 24.918 21.4569 24.706 21.5839C24.4914 21.7112 24.3135 21.892 24.1897 22.1087C24.066 22.3253 24.0006 22.5704 24 22.8199V27.9999H19.682C19.8509 27.4929 19.9537 26.9662 19.988 26.4329C20.0778 25.4214 19.788 24.4127 19.1751 23.6031C18.5622 22.7935 17.6699 22.2409 16.672 22.0529C16.0978 21.9551 15.5091 21.9838 14.9472 22.1371C14.3852 22.2904 13.8635 22.5646 13.4186 22.9405C12.9736 23.3164 12.6162 23.785 12.3711 24.3134C12.1261 24.8419 11.9994 25.4174 12 25.9999C11.9957 26.6793 12.1021 27.3548 12.315 27.9999H8.04799C8.28074 23.8431 10.0356 19.9175 12.9777 16.9718C15.9199 14.0261 19.8435 12.2666 24 12.0289ZM12.628 40.6529C9.8909 37.7543 8.26807 33.9805 8.04699 29.9999H13.18C13.429 30.0006 13.6739 29.9363 13.8904 29.8133C14.1069 29.6903 14.2876 29.5128 14.4145 29.2986C14.5414 29.0843 14.6101 28.8406 14.6139 28.5916C14.6176 28.3426 14.5563 28.0969 14.436 27.8789C14.1342 27.2995 13.9842 26.653 14 25.9999C14.0054 25.7095 14.0729 25.4236 14.198 25.1614C14.3231 24.8992 14.5028 24.6668 14.7251 24.4798C14.9474 24.2928 15.2072 24.1556 15.4869 24.0773C15.7667 23.999 16.0599 23.9815 16.347 24.0259C16.8534 24.1353 17.3015 24.428 17.6052 24.8478C17.9088 25.2675 18.0466 25.7847 17.992 26.2999C17.9602 26.8517 17.8149 27.391 17.565 27.8839C17.4437 28.0993 17.3815 28.3429 17.3849 28.59C17.3882 28.8371 17.4569 29.079 17.584 29.2909C17.7109 29.5061 17.8915 29.6846 18.1082 29.8089C18.3249 29.9332 18.5702 29.999 18.82 29.9999H24V34.3149C23.3549 34.102 22.6793 33.9956 22 33.9999C21.4175 33.9995 20.8419 34.1263 20.3135 34.3714C19.7851 34.6166 19.3166 34.9742 18.9408 35.4192C18.565 35.8643 18.2909 36.3861 18.1377 36.9481C17.9846 37.5101 17.956 38.0987 18.054 38.6729C18.2433 39.6707 18.7967 40.5625 19.6066 41.1751C20.4166 41.7877 21.4254 42.0774 22.437 41.9879C22.9691 41.9535 23.4944 41.8504 24 41.6809V47.9999H16.77C16.5405 47.9935 16.3211 47.9037 16.1531 47.7472C15.985 47.5908 15.8798 47.3784 15.857 47.1499C15.4593 44.7086 14.3338 42.4441 12.628 40.6529ZM25 57.9999C21.62 57.9999 18.792 56.2789 18.141 53.9999H31.859C31.208 56.2789 28.38 57.9999 25 57.9999ZM33 51.9999H17C16.7348 51.9999 16.4804 51.8946 16.2929 51.707C16.1053 51.5195 16 51.2651 16 50.9999C16 50.7347 16.1053 50.4804 16.2929 50.2928C16.4804 50.1053 16.7348 49.9999 17 49.9999H33C33.2652 49.9999 33.5196 50.1053 33.7071 50.2928C33.8946 50.4804 34 50.7347 34 50.9999C34 51.2651 33.8946 51.5195 33.7071 51.707C33.5196 51.8946 33.2652 51.9999 33 51.9999ZM37.43 40.5869C35.7054 42.4046 34.5608 44.6945 34.142 47.1649C34.1148 47.3901 34.0079 47.5982 33.8406 47.7514C33.6733 47.9045 33.4567 47.9927 33.23 47.9999H26V40.8199C25.9994 40.5704 25.934 40.3253 25.8103 40.1087C25.6865 39.892 25.5086 39.7112 25.294 39.5839C25.0857 39.4584 24.8481 39.3895 24.605 39.3843C24.3618 39.379 24.1215 39.4375 23.908 39.5539C23.4107 39.8092 22.8659 39.9583 22.308 39.9919C21.7918 40.0484 21.273 39.9116 20.8517 39.608C20.4305 39.3044 20.1367 38.8555 20.027 38.3479C19.9822 38.0608 19.9995 37.7675 20.0776 37.4876C20.1557 37.2078 20.2928 36.9479 20.4797 36.7254C20.6667 36.503 20.899 36.3231 21.1613 36.198C21.4235 36.0728 21.7095 36.0053 22 35.9999C22.6523 35.9842 23.2981 36.1338 23.877 36.4349C24.095 36.5557 24.3408 36.6174 24.59 36.6139C24.8392 36.6104 25.0831 36.5419 25.2977 36.4151C25.5122 36.2882 25.6899 36.1075 25.8131 35.8909C25.9363 35.6742 26.0007 35.4292 26 35.1799V29.9999H30.315C30.1021 30.6451 29.9957 31.3206 30 31.9999C30.0001 32.5459 30.1119 33.0861 30.3284 33.5873C30.5449 34.0885 30.8616 34.5402 31.259 34.9145C31.6564 35.2889 32.1261 35.5781 32.6393 35.7644C33.1525 35.9507 33.6984 36.0301 34.2434 35.9977C34.7884 35.9653 35.3211 35.8219 35.8086 35.5762C36.2962 35.3306 36.7284 34.9878 37.0787 34.569C37.429 34.1503 37.69 33.6643 37.8457 33.141C38.0014 32.6177 38.0484 32.0681 37.984 31.5259C37.9494 31.0066 37.8486 30.4937 37.684 29.9999H41.974C41.7406 33.9509 40.1332 37.696 37.43 40.5869Z" fill="white"/>
</g>
<defs>
<clipPath id="clip0_261_227">
<rect width="60" height="60" fill="white"/>
</clipPath>
</defs>
</svg>
