<svg width="52" height="52" viewBox="0 0 52 52" fill="none" xmlns="http://www.w3.org/2000/svg">
<g clip-path="url(#clip0_261_198)">
<path d="M4.87698 28.0508V29.6744C4.87788 30.428 5.17788 31.1504 5.71107 31.683C6.24425 32.2156 6.96703 32.5147 7.72062 32.5147C8.47421 32.5147 9.19699 32.2156 9.73018 31.683C10.2634 31.1504 10.5634 30.428 10.5643 29.6744V28.0508C10.5634 27.2972 10.2634 26.5748 9.73018 26.0422C9.19699 25.5097 8.47421 25.2105 7.72062 25.2105C6.96703 25.2105 6.24425 25.5097 5.71107 26.0422C5.17788 26.5748 4.87788 27.2972 4.87698 28.0508ZM8.93931 28.0508V29.6744C8.93872 29.9973 8.81006 30.3067 8.58158 30.5347C8.35309 30.7628 8.04345 30.8909 7.72062 30.8909C7.39779 30.8909 7.08815 30.7628 6.85967 30.5347C6.63118 30.3067 6.50252 29.9973 6.50194 29.6744V28.0508C6.50252 27.728 6.63118 27.4185 6.85967 27.1905C7.08815 26.9624 7.39779 26.8343 7.72062 26.8343C8.04345 26.8343 8.35309 26.9624 8.58158 27.1905C8.81006 27.4185 8.93872 27.728 8.93931 28.0508ZM12.5954 20.5413C12.3801 20.5413 12.1736 20.6268 12.0214 20.779C11.8691 20.9313 11.7836 21.1378 11.7836 21.3531C11.7836 21.5684 11.8691 21.7749 12.0214 21.9271C12.1736 22.0794 12.3801 22.1649 12.5954 22.1649H13.4079C13.6232 22.1649 13.8297 22.0794 13.9819 21.9271C14.1342 21.7749 14.2197 21.5684 14.2197 21.3531C14.2197 21.1378 14.1342 20.9313 13.9819 20.779C13.8297 20.6268 13.6232 20.5413 13.4079 20.5413H12.5954ZM51.9927 40.5617L51.9901 38.0811C51.9893 37.3186 51.8369 36.5638 51.542 35.8607C51.247 35.1576 50.8153 34.5201 50.2719 33.9852C49.0438 32.778 47.389 32.1041 45.6669 32.11H42.2504V28.0508C42.2495 27.4048 41.9923 26.7856 41.5353 26.329C41.0784 25.8724 40.459 25.6157 39.813 25.6152H25.1886C24.5427 25.6157 23.9232 25.8724 23.4663 26.329C23.0093 26.7856 22.7522 27.4048 22.7512 28.0508V47.5349C22.7522 48.1809 23.0094 48.8001 23.4663 49.2567C23.9233 49.7133 24.5427 49.97 25.1886 49.9705H26.5271C26.7021 50.5569 27.0618 51.0712 27.5525 51.4369C28.0433 51.8026 28.6389 52.0001 29.251 52.0001C29.863 52.0001 30.4586 51.8026 30.9494 51.4369C31.4402 51.0712 31.7998 50.5569 31.9748 49.9705H43.5889C43.7639 50.5569 44.1235 51.0712 44.6143 51.4369C45.1051 51.8026 45.7007 52.0001 46.3127 52.0001C46.9248 52.0001 47.5204 51.8026 48.0112 51.4369C48.5019 51.0712 48.8616 50.5569 49.0366 49.9705H49.492C50.1421 49.9842 50.7711 49.7397 51.2413 49.2904C51.7114 48.8412 51.9842 48.2239 52 47.5738L51.9928 40.7054C51.9949 40.6816 52 40.6586 52 40.6343C52 40.6094 51.9949 40.586 51.9927 40.5617ZM29.251 50.3764C29.0102 50.3762 28.7748 50.3046 28.5747 50.1707C28.3745 50.0368 28.2186 49.8465 28.1266 49.624C28.0346 49.4015 28.0106 49.1566 28.0577 48.9205C28.1048 48.6843 28.2208 48.4674 28.3912 48.2972C28.5615 48.127 28.7785 48.0111 29.0147 47.9642C29.2509 47.9173 29.4957 47.9415 29.7181 48.0337C29.9406 48.1259 30.1307 48.2819 30.2645 48.4822C30.3983 48.6824 30.4697 48.9178 30.4697 49.1586C30.4692 49.4816 30.3406 49.7912 30.1121 50.0195C29.8837 50.2478 29.574 50.3762 29.251 50.3764ZM40.6255 48.3468H31.9748C31.7998 47.7603 31.4401 47.246 30.9494 46.8804C30.4586 46.5147 29.863 46.3172 29.251 46.3172C28.639 46.3172 28.0433 46.5147 27.5525 46.8804C27.0618 47.246 26.7021 47.7603 26.5271 48.3468H25.1886C24.9733 48.3466 24.7669 48.261 24.6145 48.1088C24.4622 47.9566 24.3765 47.7503 24.3762 47.5349V44.6935H40.6255V48.3468ZM40.6255 43.0698H24.3762V28.0508C24.3765 27.8355 24.4622 27.6291 24.6145 27.4769C24.7668 27.3247 24.9733 27.2391 25.1886 27.2389H39.813C40.0283 27.2391 40.2348 27.3247 40.3871 27.4769C40.5394 27.6291 40.6251 27.8355 40.6255 28.0508V43.0698ZM42.2504 33.7336H45.6669C46.9578 33.7267 48.1993 34.2293 49.1218 35.1322C49.514 35.5167 49.8258 35.9754 50.0393 36.4815C50.2527 36.9876 50.3635 37.531 50.3651 38.0803L50.367 39.8225H42.2504V33.7336ZM46.3127 50.3764C46.0719 50.3762 45.8366 50.3046 45.6364 50.1707C45.4363 50.0368 45.2804 49.8465 45.1883 49.624C45.0963 49.4015 45.0723 49.1566 45.1194 48.9205C45.1665 48.6843 45.2826 48.4674 45.4529 48.2972C45.6233 48.127 45.8403 48.0111 46.0764 47.9642C46.3126 47.9173 46.5574 47.9415 46.7799 48.0337C47.0024 48.1259 47.1925 48.2819 47.3263 48.4822C47.46 48.6824 47.5314 48.9178 47.5314 49.1586C47.531 49.4816 47.4024 49.7912 47.1739 50.0195C46.9454 50.2478 46.6357 50.3762 46.3127 50.3764ZM49.492 48.3468H49.0366C48.8615 47.7603 48.5019 47.246 48.0112 46.8804C47.5204 46.5147 46.9247 46.3172 46.3127 46.3172C45.7007 46.3172 45.105 46.5147 44.6143 46.8804C44.1235 47.246 43.7639 47.7603 43.5888 48.3468H42.2504V41.4461H50.3687L50.3751 47.5746C50.3591 47.7936 50.2575 47.9975 50.0921 48.1421C49.9268 48.2866 49.7112 48.3602 49.492 48.3468Z" fill="white"/>
<path d="M19.0951 26.8329C19.8306 26.8333 20.5519 27.0348 21.1811 27.4155C21.3182 26.5592 21.7261 25.7694 22.345 25.162V16.279C22.3441 15.6331 22.0869 15.0138 21.6299 14.5572C21.173 14.1006 20.5536 13.844 19.9076 13.8435H11.783C11.137 13.844 10.5176 14.1006 10.0606 14.5572C9.60367 15.0138 9.34651 15.6331 9.34555 16.279V23.8956C9.96212 24.1381 10.5171 24.5145 10.9705 24.9976V16.279C10.9708 16.0637 11.0565 15.8573 11.2088 15.7051C11.3612 15.5529 11.5676 15.4674 11.783 15.4672H19.9076C20.1229 15.4674 20.3294 15.5529 20.4817 15.7051C20.634 15.8573 20.7197 16.0637 20.7201 16.279V26.8329H19.0951Z" fill="white"/>
<path d="M51.1875 26.8329H47.1252V11.8668C48.7995 11.0122 49.9688 9.10274 49.9688 7.45026C49.9656 7.23434 49.8777 7.02832 49.7242 6.8765C49.5706 6.72468 49.3636 6.63919 49.1477 6.63841C48.6496 6.59895 48.1814 6.38543 47.825 6.03528C47.2438 5.46328 46.9463 4.53111 46.9404 3.2648C46.9387 2.40223 46.5964 1.57524 45.9879 0.963799C45.3795 0.35236 44.5542 0.00596488 43.6917 0L8.31055 0C7.448 0.00596385 6.62271 0.352359 6.01429 0.963799C5.40588 1.57524 5.06358 2.40223 5.06189 3.2648C5.04641 6.51175 3.06999 6.63505 2.84586 6.63841C2.63182 6.64265 2.42771 6.72953 2.27626 6.88085C2.12482 7.03218 2.03779 7.23622 2.03339 7.45026C2.03339 9.10274 3.20272 11.0122 4.87701 11.8668V24.6091C5.35394 24.2162 5.90728 23.9266 6.50196 23.7587V12.3084C6.56981 12.312 6.63645 12.3213 6.70506 12.3213C7.44023 12.3343 8.16889 12.1815 8.83698 11.8744C9.50506 11.5674 10.0954 11.1138 10.5643 10.5474C11.0331 11.1138 11.6235 11.5674 12.2916 11.8745C12.9597 12.1815 13.6883 12.3343 14.4235 12.3213C15.1587 12.3343 15.8873 12.1815 16.5554 11.8745C17.2235 11.5674 17.8138 11.1138 18.2827 10.5474C18.7515 11.1138 19.3419 11.5674 20.01 11.8744C20.6781 12.1815 21.4067 12.3343 22.1419 12.3213C23.2378 12.329 24.3067 11.9817 25.1887 11.3312V23.9915H26.8136V19.5264H45.5003V26.8329H43.688C43.8123 27.2269 43.8755 27.6376 43.8754 28.0507V28.4566H51.1875C51.4028 28.4566 51.6093 28.3711 51.7616 28.2188C51.9138 28.0666 51.9994 27.8601 51.9994 27.6448C51.9994 27.4295 51.9138 27.223 51.7616 27.0707C51.6093 26.9185 51.4029 26.8329 51.1875 26.8329ZM48.2046 8.26209C47.8099 9.486 46.6142 10.6976 45.2972 10.6976C43.6171 10.6976 42.2504 9.60512 42.2504 8.26209H48.2046ZM6.70505 10.6976C5.38801 10.6976 4.19227 9.486 3.7976 8.26209H9.7518C9.7518 9.60512 8.38512 10.6976 6.70505 10.6976ZM14.4235 10.6976C12.7434 10.6976 11.3767 9.60512 11.3767 8.26209H17.4702C17.4702 9.60512 16.1035 10.6976 14.4235 10.6976ZM22.1419 10.6976C20.4618 10.6976 19.0952 9.60512 19.0952 8.26209H25.1887C25.1887 9.60512 23.822 10.6976 22.1419 10.6976ZM5.77556 6.63841C6.41667 5.6361 6.73473 4.46118 6.68678 3.27234C6.68549 2.839 6.85536 2.42267 7.15944 2.11393C7.46352 1.80518 7.87721 1.62899 8.31052 1.62368H43.6916C44.125 1.62898 44.5387 1.80517 44.8427 2.11392C45.1468 2.42266 45.3167 2.83899 45.3154 3.27234C45.2675 4.46119 45.5856 5.63611 46.2267 6.63841L5.77556 6.63841ZM40.6255 8.2621C40.6255 9.60512 39.2588 10.6976 37.5788 10.6976C35.8987 10.6976 34.532 9.60512 34.532 8.2621H40.6255ZM32.9071 8.2621C32.9071 9.60512 31.5404 10.6976 29.8603 10.6976C28.1803 10.6976 26.8136 9.60512 26.8136 8.2621H32.9071ZM45.5003 17.9027H26.8136V11.3312C27.6956 11.9817 28.7645 12.329 29.8603 12.3213C30.5955 12.3343 31.3242 12.1815 31.9922 11.8745C32.6603 11.5674 33.2507 11.1138 33.7195 10.5474C34.1969 11.1038 34.7889 11.5504 35.4551 11.8566C36.1212 12.1628 36.8456 12.3213 37.5788 12.3213C38.3119 12.3213 39.0363 12.1628 39.7025 11.8566C40.3686 11.5504 40.9606 11.1038 41.438 10.5474C41.9068 11.1138 42.4972 11.5674 43.1653 11.8744C43.8334 12.1815 44.562 12.3343 45.2972 12.3213C45.3658 12.3213 45.4324 12.312 45.5003 12.3084L45.5003 17.9027ZM3.25207 28.4566V28.0507C3.25305 27.6387 3.31136 27.2289 3.42532 26.8329H0.81467C0.599356 26.8329 0.39286 26.9185 0.24061 27.0707C0.0883593 27.223 0.00282594 27.4295 0.00282594 27.6448C0.00282594 27.8601 0.0883593 28.0666 0.24061 28.2188C0.39286 28.3711 0.599356 28.4566 0.81467 28.4566H3.25207ZM0.819825 51.3691C1.20875 51.6849 1.69505 51.8562 2.19603 51.8539C2.52479 51.8534 2.84925 51.7792 3.1456 51.6368C3.44195 51.4945 3.70268 51.2876 3.90863 51.0314L7.41913 46.3774C7.46626 46.3156 7.50495 46.2478 7.53418 46.1758C7.54291 46.154 7.55043 46.1316 7.55759 46.109L8.08918 44.3491L10.6087 46.016L11.8266 50.2909C11.9489 50.7515 12.211 51.1628 12.5768 51.4682C12.9427 51.7736 13.3942 51.958 13.8693 51.996C13.9153 51.9988 13.9613 52 14.0069 52C14.5768 52.0017 15.1255 51.7839 15.539 51.3917C15.8119 51.1369 16.0161 50.8173 16.1327 50.4626C16.2492 50.1079 16.2744 49.7295 16.2059 49.3625L15.2966 44.3612C15.2226 43.9463 15.0421 43.5576 14.7726 43.2335C14.7552 43.2123 14.7366 43.1922 14.7171 43.173L11.787 40.2923C11.7862 40.0045 11.7856 39.5458 11.7851 39.0105H18.6889C19.3349 39.0101 19.9543 38.7534 20.4113 38.2968C20.8682 37.8402 21.1254 37.221 21.1263 36.575V30.8921C21.1254 30.2462 20.8682 29.6269 20.4113 29.1704C19.9543 28.7138 19.3349 28.4571 18.6889 28.4566H14.6266C13.9806 28.4571 13.3612 28.7138 12.9043 29.1704C12.4473 29.6269 12.1902 30.2462 12.1892 30.8921V34.1395H11.4399C11.2763 33.7052 11.0534 33.2956 10.7774 32.9224C10.38 33.2975 9.91729 33.5966 9.41212 33.805C9.59316 34.0338 9.74395 34.285 9.86075 34.5523C9.7902 34.6735 9.75264 34.8111 9.7518 34.9513C9.75189 35.1667 9.83753 35.3733 9.9899 35.5255C10.1423 35.6778 10.3489 35.7633 10.5643 35.7632H15.0979C15.3016 35.78 15.4915 35.8729 15.63 36.0233C15.7685 36.1737 15.8453 36.3706 15.8453 36.575C15.8453 36.7794 15.7685 36.9764 15.63 37.1268C15.4915 37.2772 15.3016 37.37 15.0979 37.3869H9.32375C9.24905 37.3871 9.17573 37.3667 9.11193 37.3278C9.04813 37.289 8.99635 37.2332 8.96233 37.1667L7.63061 34.5799C7.53187 34.3887 7.36131 34.2445 7.15635 34.179C6.9514 34.1134 6.7288 34.1318 6.53743 34.2302C6.34605 34.3286 6.20154 34.4989 6.13561 34.7038C6.06968 34.9086 6.08772 35.1312 6.18577 35.3228L7.51754 37.9093C7.68765 38.2417 7.94643 38.5205 8.26523 38.7149C8.58403 38.9092 8.9504 39.0116 9.32377 39.0105H10.1635C10.1753 40.9448 10.2156 40.9973 10.3635 41.167C10.377 41.1828 10.3917 41.1981 10.4068 41.213L13.5432 44.2968C13.622 44.3997 13.6748 44.52 13.6971 44.6477L14.6072 49.6529C14.6144 49.6906 14.6183 49.729 14.6187 49.7674C14.6181 49.8505 14.6006 49.9327 14.5672 50.0088C14.5339 50.0849 14.4854 50.1534 14.4247 50.2102C14.3639 50.2683 14.2916 50.3129 14.2124 50.3413C14.1333 50.3697 14.0491 50.3812 13.9653 50.3751C13.8271 50.3555 13.6981 50.2945 13.5954 50.2001C13.4926 50.1057 13.4209 49.9823 13.3897 49.8463L12.0813 45.2577C12.0201 45.0807 11.9034 44.9283 11.7485 44.823L8.09872 42.4079C7.96228 42.3199 7.80331 42.2732 7.64092 42.2733C7.54394 42.2732 7.44768 42.29 7.35647 42.3229C7.23467 42.3689 7.12485 42.4418 7.03526 42.5363C6.94567 42.6308 6.87863 42.7443 6.83916 42.8684L6.04255 45.5051L2.63399 50.0255C2.53942 50.1378 2.40532 50.2095 2.25939 50.2258C2.11347 50.2421 1.96686 50.2017 1.84985 50.113C1.73284 50.0243 1.65437 49.894 1.63064 49.7491C1.60692 49.6042 1.63975 49.4557 1.72237 49.3344C1.73149 49.3205 1.74022 49.306 1.74855 49.2916L4.35136 44.7111C4.42835 44.5806 4.46955 44.4321 4.47077 44.2806V34.787C4.47101 34.2209 4.68389 33.6754 5.06723 33.2587C4.62763 32.9335 4.25107 32.5307 3.95608 32.0702C3.24441 32.7954 2.84576 33.771 2.84585 34.787V44.0727L0.346544 48.4702C0.0545823 48.9269 -0.0585746 49.4752 0.0287611 50.0102C0.116097 50.5451 0.397781 51.029 0.819825 51.3691ZM15.0979 34.1395H13.8141V30.8921C13.8145 30.6768 13.9002 30.4704 14.0525 30.3182C14.2048 30.166 14.4113 30.0805 14.6266 30.0803H18.6889C18.9043 30.0805 19.1107 30.166 19.263 30.3182C19.4153 30.4704 19.5011 30.6768 19.5014 30.8921V36.575C19.5011 36.7903 19.4153 36.9967 19.263 37.1489C19.1107 37.3011 18.9043 37.3867 18.6889 37.3869H17.3318C17.4229 37.1259 17.4697 36.8515 17.4702 36.575C17.4778 35.9377 17.2322 35.3234 16.7875 34.8669C16.3428 34.4103 15.7352 34.1487 15.0979 34.1395Z" fill="white"/>
</g>
<defs>
<clipPath id="clip0_261_198">
<rect width="52" height="52" fill="white"/>
</clipPath>
</defs>
</svg>
