<svg width="61" height="51" viewBox="0 0 61 51" fill="none" xmlns="http://www.w3.org/2000/svg">
<path d="M45.8701 2.96426L37.3331 1C37.3331 1.22665 37.3331 1.45329 37.3331 1.67994C37.5598 5.60847 35.3688 10.8969 30.2315 10.6702C25.2453 10.4436 22.8278 5.60847 23.13 1.67994C23.13 1.45329 23.13 1.22665 23.13 1L15.3485 2.96426C14.4419 2.96426 13.6864 3.71975 13.6864 4.55079C14.9707 8.32822 15.3485 13.1633 13.6108 17.1674V47.9912C13.6108 48.8978 14.4419 49.4267 15.2729 49.4267H45.7946C46.7011 49.4267 47.5322 48.8978 47.5322 47.9912V17.5452C45.8701 13.6922 46.1723 8.70596 47.4566 4.55079C47.5322 3.6442 46.7767 2.96426 45.8701 2.96426Z" stroke="white" stroke-width="2" stroke-miterlimit="10" stroke-linecap="round" stroke-linejoin="round"/>
<path d="M47.532 3.64423L59.0909 10.4436L53.5759 19.8116L47.6831 17.3185" stroke="white" stroke-width="2" stroke-miterlimit="10" stroke-linecap="round" stroke-linejoin="round"/>
<path d="M13.8374 3.41754L1.8252 10.4436L7.34024 19.8116L13.233 17.3185" stroke="white" stroke-width="2" stroke-miterlimit="10" stroke-linecap="round" stroke-linejoin="round"/>
<path d="M23.2056 1C26.983 4.09749 33.6313 3.71975 37.031 1" stroke="white" stroke-width="2" stroke-miterlimit="10" stroke-linecap="round" stroke-linejoin="round"/>
<path d="M14.895 43.6094H46.5499" stroke="white" stroke-width="2" stroke-miterlimit="10" stroke-linecap="round" stroke-linejoin="round"/>
</svg>
