<svg width="78" height="78" viewBox="0 0 78 78" fill="none" xmlns="http://www.w3.org/2000/svg">
<g clip-path="url(#clip0_90_1703)">
<path d="M70.6875 8.53125C71.3606 8.53125 71.9062 7.9856 71.9062 7.3125C71.9062 6.6394 71.3606 6.09375 70.6875 6.09375C70.0144 6.09375 69.4688 6.6394 69.4688 7.3125C69.4688 7.9856 70.0144 8.53125 70.6875 8.53125Z" fill="#F42535"/>
<path d="M65.8125 8.53125C66.4856 8.53125 67.0312 7.9856 67.0312 7.3125C67.0312 6.6394 66.4856 6.09375 65.8125 6.09375C65.1394 6.09375 64.5938 6.6394 64.5938 7.3125C64.5938 7.9856 65.1394 8.53125 65.8125 8.53125Z" fill="#F42535"/>
<path d="M60.9375 8.53125C61.6106 8.53125 62.1562 7.9856 62.1562 7.3125C62.1562 6.6394 61.6106 6.09375 60.9375 6.09375C60.2644 6.09375 59.7188 6.6394 59.7188 7.3125C59.7188 7.9856 60.2644 8.53125 60.9375 8.53125Z" fill="#F42535"/>
<path d="M73.7344 0H4.26562C3.13431 0 2.04933 0.449413 1.24937 1.24937C0.449413 2.04933 0 3.13431 0 4.26562L0 73.7344C0 74.8657 0.449413 75.9507 1.24937 76.7506C2.04933 77.5506 3.13431 78 4.26562 78H73.7344C74.8657 78 75.9507 77.5506 76.7506 76.7506C77.5506 75.9507 78 74.8657 78 73.7344V4.26562C78 3.13431 77.5506 2.04933 76.7506 1.24937C75.9507 0.449413 74.8657 0 73.7344 0ZM4.26562 2.4375H73.7344C74.2192 2.4375 74.6842 2.63011 75.0271 2.97295C75.3699 3.31579 75.5625 3.78078 75.5625 4.26562V12.1875H2.4375V4.26562C2.4375 3.78078 2.63011 3.31579 2.97295 2.97295C3.31579 2.63011 3.78078 2.4375 4.26562 2.4375ZM73.7344 75.5625H4.26562C3.78078 75.5625 3.31579 75.3699 2.97295 75.0271C2.63011 74.6842 2.4375 74.2192 2.4375 73.7344V14.625H75.5625V73.7344C75.5625 74.2192 75.3699 74.6842 75.0271 75.0271C74.6842 75.3699 74.2192 75.5625 73.7344 75.5625Z" fill="#F42535"/>
<path d="M22.5469 49.9688C25.5599 49.9688 28.5054 49.0753 31.0106 47.4013C33.5159 45.7273 35.4685 43.348 36.6216 40.5643C37.7747 37.7806 38.0763 34.7175 37.4885 31.7623C36.9007 28.8071 35.4498 26.0926 33.3192 23.9621C31.1886 21.8315 28.4741 20.3806 25.519 19.7927C22.5638 19.2049 19.5007 19.5066 16.7169 20.6597C13.9332 21.8127 11.5539 23.7653 9.87995 26.2706C8.20598 28.7759 7.3125 31.7213 7.3125 34.7344C7.3125 38.7748 8.91755 42.6497 11.7745 45.5067C14.6315 48.3637 18.5065 49.9688 22.5469 49.9688ZM14.948 45.0084C15.1011 43.0982 15.9681 41.3157 17.3762 40.0159C18.7844 38.7161 20.6305 37.9943 22.5469 37.9943C24.4632 37.9943 26.3093 38.7161 27.7175 40.0159C29.1257 41.3157 29.9927 43.0982 30.1458 45.0084C27.9509 46.6464 25.2855 47.5313 22.5469 47.5313C19.8082 47.5313 17.1428 46.6464 14.948 45.0084ZM18.8906 31.8398C18.8906 31.1167 19.1051 30.4098 19.5068 29.8085C19.9086 29.2073 20.4796 28.7386 21.1477 28.4619C21.8158 28.1852 22.5509 28.1128 23.2602 28.2539C23.9694 28.3949 24.6209 28.7432 25.1322 29.2545C25.6436 29.7658 25.9918 30.4173 26.1329 31.1265C26.2739 31.8358 26.2015 32.5709 25.9248 33.239C25.6481 33.9071 25.1794 34.4782 24.5782 34.8799C23.9769 35.2817 23.27 35.4961 22.5469 35.4961C21.5772 35.4961 20.6472 35.1109 19.9615 34.4252C19.2758 33.7395 18.8906 32.8095 18.8906 31.8398ZM22.5469 21.9375C24.9908 21.9367 27.3838 22.6356 29.443 23.9518C31.5022 25.2679 33.1415 27.1462 34.167 29.3645C35.1925 31.5828 35.5614 34.0484 35.23 36.4697C34.8986 38.891 33.8807 41.1668 32.2969 43.028C31.9106 41.5702 31.2027 40.2175 30.2252 39.0691C29.2477 37.9208 28.0253 37.006 26.648 36.3919C27.564 35.5673 28.2086 34.4844 28.4964 33.286C28.7843 32.0875 28.702 30.83 28.2604 29.6793C27.8189 28.5286 27.0387 27.5389 26.023 26.8408C25.0073 26.1426 23.8038 25.7689 22.5713 25.7689C21.3387 25.7689 20.1352 26.1426 19.1195 26.8408C18.1038 27.5389 17.3236 28.5286 16.8821 29.6793C16.4405 30.83 16.3582 32.0875 16.6461 33.286C16.9339 34.4844 17.5785 35.5673 18.4945 36.3919C17.1081 37.0001 15.8761 37.9123 14.8899 39.061C13.9036 40.2097 13.1883 41.5655 12.7969 43.028C11.213 41.1668 10.1952 38.891 9.86378 36.4697C9.53238 34.0484 9.90124 31.5828 10.9268 29.3645C11.9523 27.1462 13.5915 25.2679 15.6508 23.9518C17.71 22.6356 20.103 21.9367 22.5469 21.9375ZM69.4688 24.9844H42.6562C42.333 24.9844 42.023 25.1128 41.7945 25.3413C41.5659 25.5699 41.4375 25.8799 41.4375 26.2031C41.4375 26.5264 41.5659 26.8364 41.7945 27.0649C42.023 27.2935 42.333 27.4219 42.6562 27.4219H69.4688C69.792 27.4219 70.102 27.2935 70.3305 27.0649C70.5591 26.8364 70.6875 26.5264 70.6875 26.2031C70.6875 25.8799 70.5591 25.5699 70.3305 25.3413C70.102 25.1128 69.792 24.9844 69.4688 24.9844ZM42.6562 35.3438H59.6395C59.9628 35.3438 60.2728 35.2154 60.5013 34.9868C60.7299 34.7582 60.8583 34.4482 60.8583 34.125C60.8583 33.8018 60.7299 33.4918 60.5013 33.2632C60.2728 33.0347 59.9628 32.9063 59.6395 32.9063H42.6562C42.333 32.9063 42.023 33.0347 41.7945 33.2632C41.5659 33.4918 41.4375 33.8018 41.4375 34.125C41.4375 34.4482 41.5659 34.7582 41.7945 34.9868C42.023 35.2154 42.333 35.3438 42.6562 35.3438ZM69.4688 40.8281H42.6562C42.333 40.8281 42.023 40.9565 41.7945 41.1851C41.5659 41.4137 41.4375 41.7236 41.4375 42.0469C41.4375 42.3701 41.5659 42.6801 41.7945 42.9087C42.023 43.1372 42.333 43.2656 42.6562 43.2656H69.4688C69.792 43.2656 70.102 43.1372 70.3305 42.9087C70.5591 42.6801 70.6875 42.3701 70.6875 42.0469C70.6875 41.7236 70.5591 41.4137 70.3305 41.1851C70.102 40.9565 69.792 40.8281 69.4688 40.8281ZM69.4688 54.8438H8.53125C8.20802 54.8438 7.89802 54.9722 7.66946 55.2007C7.4409 55.4293 7.3125 55.7393 7.3125 56.0625V69.4688C7.3125 69.792 7.4409 70.102 7.66946 70.3305C7.89802 70.5591 8.20802 70.6875 8.53125 70.6875H69.4688C69.792 70.6875 70.102 70.5591 70.3305 70.3305C70.5591 70.102 70.6875 69.792 70.6875 69.4688V56.0625C70.6875 55.7393 70.5591 55.4293 70.3305 55.2007C70.102 54.9722 69.792 54.8438 69.4688 54.8438ZM68.25 68.25H9.75V57.2813H68.25V68.25Z" fill="#F42535"/>
</g>
<defs>
<clipPath id="clip0_90_1703">
<rect width="78" height="78" fill="white"/>
</clipPath>
</defs>
</svg>
