<svg width="79" height="78" viewBox="0 0 79 78" fill="none" xmlns="http://www.w3.org/2000/svg">
<g clip-path="url(#clip0_90_1744)">
<path d="M71.1875 8.53125C71.8606 8.53125 72.4062 7.9856 72.4062 7.3125C72.4062 6.6394 71.8606 6.09375 71.1875 6.09375C70.5144 6.09375 69.9688 6.6394 69.9688 7.3125C69.9688 7.9856 70.5144 8.53125 71.1875 8.53125Z" fill="white"/>
<path d="M66.3125 8.53125C66.9856 8.53125 67.5312 7.9856 67.5312 7.3125C67.5312 6.6394 66.9856 6.09375 66.3125 6.09375C65.6394 6.09375 65.0938 6.6394 65.0938 7.3125C65.0938 7.9856 65.6394 8.53125 66.3125 8.53125Z" fill="white"/>
<path d="M61.4375 8.53125C62.1106 8.53125 62.6562 7.9856 62.6562 7.3125C62.6562 6.6394 62.1106 6.09375 61.4375 6.09375C60.7644 6.09375 60.2188 6.6394 60.2188 7.3125C60.2188 7.9856 60.7644 8.53125 61.4375 8.53125Z" fill="white"/>
<path d="M74.2344 0H4.76562C3.63431 0 2.54933 0.449413 1.74937 1.24937C0.949413 2.04933 0.5 3.13431 0.5 4.26562L0.5 73.7344C0.5 74.8657 0.949413 75.9507 1.74937 76.7506C2.54933 77.5506 3.63431 78 4.76562 78H74.2344C75.3657 78 76.4507 77.5506 77.2506 76.7506C78.0506 75.9507 78.5 74.8657 78.5 73.7344V4.26562C78.5 3.13431 78.0506 2.04933 77.2506 1.24937C76.4507 0.449413 75.3657 0 74.2344 0ZM4.76562 2.4375H74.2344C74.7192 2.4375 75.1842 2.63011 75.5271 2.97295C75.8699 3.31579 76.0625 3.78078 76.0625 4.26562V12.1875H2.9375V4.26562C2.9375 3.78078 3.13011 3.31579 3.47295 2.97295C3.81579 2.63011 4.28078 2.4375 4.76562 2.4375ZM74.2344 75.5625H4.76562C4.28078 75.5625 3.81579 75.3699 3.47295 75.0271C3.13011 74.6842 2.9375 74.2192 2.9375 73.7344V14.625H76.0625V73.7344C76.0625 74.2192 75.8699 74.6842 75.5271 75.0271C75.1842 75.3699 74.7192 75.5625 74.2344 75.5625Z" fill="white"/>
<path d="M23.0469 49.9688C26.0599 49.9688 29.0054 49.0753 31.5106 47.4013C34.0159 45.7273 35.9685 43.348 37.1216 40.5643C38.2747 37.7806 38.5763 34.7175 37.9885 31.7623C37.4007 28.8071 35.9498 26.0926 33.8192 23.9621C31.6886 21.8315 28.9741 20.3806 26.019 19.7927C23.0638 19.2049 20.0007 19.5066 17.2169 20.6597C14.4332 21.8127 12.0539 23.7653 10.38 26.2706C8.70598 28.7759 7.8125 31.7213 7.8125 34.7344C7.8125 38.7748 9.41755 42.6497 12.2745 45.5067C15.1315 48.3637 19.0065 49.9688 23.0469 49.9688ZM15.448 45.0084C15.6011 43.0982 16.4681 41.3157 17.8762 40.0159C19.2844 38.7161 21.1305 37.9943 23.0469 37.9943C24.9632 37.9943 26.8093 38.7161 28.2175 40.0159C29.6257 41.3157 30.4927 43.0982 30.6458 45.0084C28.4509 46.6464 25.7855 47.5313 23.0469 47.5313C20.3082 47.5313 17.6428 46.6464 15.448 45.0084ZM19.3906 31.8398C19.3906 31.1167 19.6051 30.4098 20.0068 29.8085C20.4086 29.2073 20.9796 28.7386 21.6477 28.4619C22.3158 28.1852 23.0509 28.1128 23.7602 28.2539C24.4694 28.3949 25.1209 28.7432 25.6322 29.2545C26.1436 29.7658 26.4918 30.4173 26.6329 31.1265C26.7739 31.8358 26.7015 32.5709 26.4248 33.239C26.1481 33.9071 25.6794 34.4782 25.0782 34.8799C24.4769 35.2817 23.77 35.4961 23.0469 35.4961C22.0772 35.4961 21.1472 35.1109 20.4615 34.4252C19.7758 33.7395 19.3906 32.8095 19.3906 31.8398ZM23.0469 21.9375C25.4908 21.9367 27.8838 22.6356 29.943 23.9518C32.0022 25.2679 33.6415 27.1462 34.667 29.3645C35.6925 31.5828 36.0614 34.0484 35.73 36.4697C35.3986 38.891 34.3807 41.1668 32.7969 43.028C32.4106 41.5702 31.7027 40.2175 30.7252 39.0691C29.7477 37.9208 28.5253 37.006 27.148 36.3919C28.064 35.5673 28.7086 34.4844 28.9964 33.286C29.2843 32.0875 29.202 30.83 28.7604 29.6793C28.3189 28.5286 27.5387 27.5389 26.523 26.8408C25.5073 26.1426 24.3038 25.7689 23.0713 25.7689C21.8387 25.7689 20.6352 26.1426 19.6195 26.8408C18.6038 27.5389 17.8236 28.5286 17.3821 29.6793C16.9405 30.83 16.8582 32.0875 17.1461 33.286C17.4339 34.4844 18.0785 35.5673 18.9945 36.3919C17.6081 37.0001 16.3761 37.9123 15.3899 39.061C14.4036 40.2097 13.6883 41.5655 13.2969 43.028C11.713 41.1668 10.6952 38.891 10.3638 36.4697C10.0324 34.0484 10.4012 31.5828 11.4268 29.3645C12.4523 27.1462 14.0915 25.2679 16.1508 23.9518C18.21 22.6356 20.603 21.9367 23.0469 21.9375ZM69.9688 24.9844H43.1562C42.833 24.9844 42.523 25.1128 42.2945 25.3413C42.0659 25.5699 41.9375 25.8799 41.9375 26.2031C41.9375 26.5264 42.0659 26.8364 42.2945 27.0649C42.523 27.2935 42.833 27.4219 43.1562 27.4219H69.9688C70.292 27.4219 70.602 27.2935 70.8305 27.0649C71.0591 26.8364 71.1875 26.5264 71.1875 26.2031C71.1875 25.8799 71.0591 25.5699 70.8305 25.3413C70.602 25.1128 70.292 24.9844 69.9688 24.9844ZM43.1562 35.3438H60.1395C60.4628 35.3438 60.7728 35.2154 61.0013 34.9868C61.2299 34.7582 61.3583 34.4482 61.3583 34.125C61.3583 33.8018 61.2299 33.4918 61.0013 33.2632C60.7728 33.0347 60.4628 32.9063 60.1395 32.9063H43.1562C42.833 32.9063 42.523 33.0347 42.2945 33.2632C42.0659 33.4918 41.9375 33.8018 41.9375 34.125C41.9375 34.4482 42.0659 34.7582 42.2945 34.9868C42.523 35.2154 42.833 35.3438 43.1562 35.3438ZM69.9688 40.8281H43.1562C42.833 40.8281 42.523 40.9565 42.2945 41.1851C42.0659 41.4137 41.9375 41.7236 41.9375 42.0469C41.9375 42.3701 42.0659 42.6801 42.2945 42.9087C42.523 43.1372 42.833 43.2656 43.1562 43.2656H69.9688C70.292 43.2656 70.602 43.1372 70.8305 42.9087C71.0591 42.6801 71.1875 42.3701 71.1875 42.0469C71.1875 41.7236 71.0591 41.4137 70.8305 41.1851C70.602 40.9565 70.292 40.8281 69.9688 40.8281ZM69.9688 54.8438H9.03125C8.70802 54.8438 8.39802 54.9722 8.16946 55.2007C7.9409 55.4293 7.8125 55.7393 7.8125 56.0625V69.4688C7.8125 69.792 7.9409 70.102 8.16946 70.3305C8.39802 70.5591 8.70802 70.6875 9.03125 70.6875H69.9688C70.292 70.6875 70.602 70.5591 70.8305 70.3305C71.0591 70.102 71.1875 69.792 71.1875 69.4688V56.0625C71.1875 55.7393 71.0591 55.4293 70.8305 55.2007C70.602 54.9722 70.292 54.8438 69.9688 54.8438ZM68.75 68.25H10.25V57.2813H68.75V68.25Z" fill="white"/>
</g>
<defs>
<clipPath id="clip0_90_1744">
<rect width="78" height="78" fill="white" transform="translate(0.5)"/>
</clipPath>
</defs>
</svg>
