<svg width="62" height="62" viewBox="0 0 62 62" fill="none" xmlns="http://www.w3.org/2000/svg">
<g clip-path="url(#clip0_261_205)">
<path d="M36.9869 28.4377C36.8723 28.4306 36.7575 28.4306 36.643 28.4377C36.3625 28.0987 36.0053 27.8314 35.601 27.6579C35.1967 27.4844 34.7569 27.4096 34.318 27.4399C34.0914 27.108 33.7949 26.8297 33.4493 26.6247C33.1037 26.4197 32.7174 26.2929 32.3175 26.2532V20.1549C32.3175 19.8025 32.2481 19.4535 32.1132 19.128C31.9784 18.8024 31.7807 18.5066 31.5315 18.2574C31.2824 18.0082 30.9865 17.8106 30.661 17.6757C30.3354 17.5408 29.9865 17.4714 29.6341 17.4714C29.2817 17.4714 28.9327 17.5408 28.6072 17.6757C28.2816 17.8106 27.9858 18.0082 27.7366 18.2574C27.4874 18.5066 27.2897 18.8024 27.1549 19.128C27.02 19.4535 26.9506 19.8025 26.9506 20.1549V27.7789C26.392 27.2718 25.6704 26.9815 24.9162 26.9603C24.2672 26.9604 23.6391 27.1904 23.1434 27.6094C21.3948 29.0964 22.7027 31.5425 23.5697 33.1652C23.7832 33.5409 23.9741 33.9291 24.1412 34.3277C24.3931 35.0058 24.6256 35.7082 24.9259 36.3378C25.3922 37.6537 26.0203 38.9066 26.7956 40.0675C27.5028 41.1816 27.8903 41.7919 27.8903 43.2257C27.8897 43.401 27.9237 43.5747 27.9903 43.7369C28.057 43.8991 28.155 44.0465 28.2787 44.1707C28.4025 44.2949 28.5496 44.3934 28.7115 44.4607C28.8734 44.5279 29.047 44.5625 29.2223 44.5625H36.3669C36.7206 44.5625 37.0599 44.4223 37.3105 44.1727C37.5611 43.923 37.7025 43.5842 37.7037 43.2305C37.8344 42.6272 38.0635 42.0495 38.3819 41.5207C38.9777 40.3339 39.7139 38.8566 39.7139 37.1032V31.0872C39.7024 30.3746 39.409 29.6956 38.8978 29.199C38.3867 28.7024 37.6995 28.4286 36.9869 28.4377ZM37.7812 37.108C37.7812 38.4013 37.2097 39.5299 36.6478 40.6633C36.3022 41.2826 36.0322 41.9413 35.8438 42.625H29.8036C29.6873 41.0121 29.0964 40.0869 28.4231 39.0261C27.7239 37.9816 27.1576 36.854 26.7375 35.6694L26.7084 35.5967C26.4517 35.0107 26.1998 34.3228 25.9431 33.6592C25.7487 33.1835 25.5238 32.7208 25.2698 32.2739C24.7322 31.2664 23.8167 29.5808 24.3883 29.111C24.5342 28.9864 24.7196 28.9177 24.9114 28.9172C25.6331 28.9172 26.5631 30.0797 26.878 31.0824C26.9216 31.319 27.0458 31.5332 27.2294 31.6886C27.4131 31.844 27.6449 31.931 27.8855 31.9349H28.3069L28.5927 31.6346C28.6989 31.5155 28.7793 31.3757 28.8285 31.2239C28.8777 31.0721 28.8947 30.9117 28.8784 30.753V20.1549C28.8725 20.0542 28.8872 19.9533 28.9219 19.8586C28.9565 19.7638 29.0102 19.6772 29.0797 19.6041C29.1492 19.531 29.233 19.4729 29.3258 19.4335C29.4187 19.3941 29.5187 19.3742 29.6195 19.375C29.7216 19.3737 29.823 19.393 29.9174 19.4319C30.0118 19.4708 30.0974 19.5284 30.1689 19.6013C30.2404 19.6742 30.2965 19.7608 30.3336 19.856C30.3707 19.9511 30.3881 20.0528 30.3848 20.1549V28.7864L31.7072 28.2633C31.8136 28.219 31.928 28.1974 32.0432 28.1998C32.1584 28.2023 32.2718 28.2288 32.3762 28.2775C32.4806 28.3263 32.5737 28.3963 32.6495 28.4831C32.7253 28.5699 32.7821 28.6716 32.8164 28.7816L33.0586 29.9683L34.163 29.4839C34.3591 29.3975 34.5808 29.3896 34.7826 29.4616C34.9844 29.5337 35.151 29.6804 35.248 29.8714L35.5967 30.9807L36.6236 30.4721C36.7368 30.4171 36.8611 30.3889 36.9869 30.3897C37.1842 30.379 37.3779 30.446 37.5263 30.5764C37.6748 30.7068 37.7663 30.8902 37.7812 31.0872V37.108Z" fill="white"/>
<path d="M31 9.6875C31.958 9.6875 32.8945 9.40342 33.691 8.87118C34.4876 8.33894 35.1084 7.58246 35.475 6.69738C35.8417 5.8123 35.9376 4.83838 35.7507 3.89878C35.5638 2.95919 35.1025 2.09611 34.4251 1.4187C33.7476 0.741293 32.8846 0.279971 31.945 0.0930735C31.0054 -0.0938237 30.0315 0.00209872 29.1464 0.368711C28.2613 0.735323 27.5048 1.35616 26.9726 2.15271C26.4403 2.94926 26.1563 3.88575 26.1563 4.84375C26.1563 6.12839 26.6666 7.36042 27.575 8.2688C28.4833 9.17718 29.7154 9.6875 31 9.6875ZM31 1.9375C31.5748 1.9375 32.1367 2.10795 32.6146 2.42729C33.0926 2.74664 33.4651 3.20053 33.685 3.73158C33.905 4.26263 33.9626 4.84698 33.8504 5.41073C33.7383 5.97449 33.4615 6.49233 33.055 6.89878C32.6486 7.30523 32.1307 7.58202 31.567 7.69416C31.0032 7.8063 30.4189 7.74874 29.8878 7.52878C29.3568 7.30881 28.9029 6.93631 28.5835 6.45838C28.2642 5.98045 28.0938 5.41855 28.0938 4.84375C28.0938 4.07297 28.3999 3.33375 28.945 2.78872C29.49 2.2437 30.2292 1.9375 31 1.9375ZM31 52.3125C30.042 52.3125 29.1055 52.5966 28.309 53.1288C27.5124 53.6611 26.8916 54.4175 26.525 55.3026C26.1583 56.1877 26.0624 57.1616 26.2493 58.1012C26.4362 59.0408 26.8975 59.9039 27.575 60.5813C28.2524 61.2587 29.1154 61.72 30.055 61.9069C30.9946 62.0938 31.9685 61.9979 32.8536 61.6313C33.7387 61.2647 34.4952 60.6438 35.0274 59.8473C35.5597 59.0507 35.8438 58.1143 35.8438 57.1563C35.8438 55.8716 35.3334 54.6396 34.4251 53.7312C33.5167 52.8228 32.2846 52.3125 31 52.3125ZM31 60.0625C30.4252 60.0625 29.8633 59.8921 29.3854 59.5727C28.9074 59.2534 28.5349 58.7995 28.315 58.2684C28.095 57.7374 28.0375 57.153 28.1496 56.5893C28.2617 56.0255 28.5385 55.5077 28.945 55.1012C29.3514 54.6948 29.8693 54.418 30.433 54.3058C30.9968 54.1937 31.5811 54.2513 32.1122 54.4712C32.6432 54.6912 33.0971 55.0637 33.4165 55.5416C33.7358 56.0196 33.9063 56.5815 33.9063 57.1563C33.9063 57.927 33.6001 58.6663 33.055 59.2113C32.51 59.7563 31.7708 60.0625 31 60.0625ZM57.1563 26.1563C56.1982 26.1563 55.2618 26.4403 54.4652 26.9726C53.6687 27.5048 53.0478 28.2613 52.6812 29.1464C52.3146 30.0315 52.2187 31.0054 52.4056 31.945C52.5925 32.8846 53.0538 33.7476 53.7312 34.4251C54.4086 35.1025 55.2717 35.5638 56.2113 35.7507C57.1509 35.9376 58.1248 35.8417 59.0099 35.475C59.895 35.1084 60.6514 34.4876 61.1837 33.691C61.7159 32.8945 62 31.958 62 31C62 29.7154 61.4897 28.4833 60.5813 27.575C59.6729 26.6666 58.4409 26.1563 57.1563 26.1563ZM57.1563 33.9063C56.5815 33.9063 56.0196 33.7358 55.5416 33.4165C55.0637 33.0971 54.6912 32.6432 54.4712 32.1122C54.2513 31.5811 54.1937 30.9968 54.3058 30.433C54.418 29.8693 54.6948 29.3514 55.1012 28.945C55.5077 28.5385 56.0255 28.2617 56.5893 28.1496C57.153 28.0375 57.7374 28.095 58.2684 28.315C58.7995 28.5349 59.2534 28.9074 59.5727 29.3854C59.8921 29.8633 60.0625 30.4252 60.0625 31C60.0625 31.7708 59.7563 32.51 59.2113 33.055C58.6663 33.6001 57.927 33.9063 57.1563 33.9063ZM9.6875 31C9.6875 30.042 9.40342 29.1055 8.87118 28.309C8.33894 27.5124 7.58246 26.8916 6.69738 26.525C5.8123 26.1583 4.83838 26.0624 3.89878 26.2493C2.95919 26.4362 2.09611 26.8975 1.4187 27.575C0.741293 28.2524 0.279971 29.1154 0.0930735 30.055C-0.0938237 30.9946 0.00209872 31.9685 0.368711 32.8536C0.735323 33.7387 1.35616 34.4952 2.15271 35.0274C2.94926 35.5597 3.88575 35.8438 4.84375 35.8438C6.12839 35.8438 7.36042 35.3334 8.2688 34.4251C9.17718 33.5167 9.6875 32.2846 9.6875 31ZM4.84375 33.9063C4.26895 33.9063 3.70706 33.7358 3.22913 33.4165C2.7512 33.0971 2.37869 32.6432 2.15873 32.1122C1.93876 31.5811 1.88121 30.9968 1.99334 30.433C2.10548 29.8693 2.38228 29.3514 2.78872 28.945C3.19517 28.5385 3.71301 28.2617 4.27677 28.1496C4.84053 28.0375 5.42488 28.095 5.95593 28.315C6.48697 28.5349 6.94087 28.9074 7.26021 29.3854C7.57955 29.8633 7.75 30.4252 7.75 31C7.75 31.7708 7.44381 32.51 6.89878 33.055C6.35375 33.6001 5.61454 33.9063 4.84375 33.9063ZM49.4063 17.4375C50.3643 17.4375 51.3007 17.1534 52.0973 16.6212C52.8938 16.0889 53.5147 15.3325 53.8813 14.4474C54.2479 13.5623 54.3438 12.5884 54.1569 11.6488C53.97 10.7092 53.5087 9.84611 52.8313 9.1687C52.1539 8.49129 51.2908 8.02997 50.3512 7.84307C49.4116 7.65618 48.4377 7.7521 47.5526 8.11871C46.6675 8.48532 45.9111 9.10616 45.3788 9.90271C44.8466 10.6993 44.5625 11.6357 44.5625 12.5938C44.5625 13.8784 45.0728 15.1104 45.9812 16.0188C46.8896 16.9272 48.1216 17.4375 49.4063 17.4375ZM49.4063 9.6875C49.9811 9.6875 50.5429 9.85795 51.0209 10.1773C51.4988 10.4966 51.8713 10.9505 52.0913 11.4816C52.3112 12.0126 52.3688 12.597 52.2567 13.1607C52.1445 13.7245 51.8677 14.2423 51.4613 14.6488C51.0548 15.0552 50.537 15.332 49.9732 15.4442C49.4095 15.5563 48.8251 15.4987 48.2941 15.2788C47.763 15.0588 47.3091 14.6863 46.9898 14.2084C46.6705 13.7304 46.5 13.1686 46.5 12.5938C46.5 11.823 46.8062 11.0837 47.3512 10.5387C47.8963 9.9937 48.6355 9.6875 49.4063 9.6875ZM12.5938 44.5625C11.6357 44.5625 10.6993 44.8466 9.90271 45.3788C9.10616 45.9111 8.48532 46.6675 8.11871 47.5526C7.7521 48.4377 7.65618 49.4116 7.84307 50.3512C8.02997 51.2908 8.49129 52.1539 9.1687 52.8313C9.84611 53.5087 10.7092 53.97 11.6488 54.1569C12.5884 54.3438 13.5623 54.2479 14.4474 53.8813C15.3325 53.5147 16.0889 52.8938 16.6212 52.0973C17.1534 51.3007 17.4375 50.3643 17.4375 49.4063C17.4375 48.1216 16.9272 46.8896 16.0188 45.9812C15.1104 45.0728 13.8784 44.5625 12.5938 44.5625ZM12.5938 52.3125C12.0189 52.3125 11.4571 52.1421 10.9791 51.8227C10.5012 51.5034 10.1287 51.0495 9.90873 50.5184C9.68876 49.9874 9.63121 49.403 9.74334 48.8393C9.85548 48.2755 10.1323 47.7577 10.5387 47.3512C10.9452 46.9448 11.463 46.668 12.0268 46.5558C12.5905 46.4437 13.1749 46.5013 13.7059 46.7212C14.237 46.9412 14.6909 47.3137 15.0102 47.7916C15.3296 48.2696 15.5 48.8315 15.5 49.4063C15.5 50.177 15.1938 50.9163 14.6488 51.4613C14.1038 52.0063 13.3645 52.3125 12.5938 52.3125ZM49.4063 44.5625C48.4482 44.5625 47.5118 44.8466 46.7152 45.3788C45.9187 45.9111 45.2978 46.6675 44.9312 47.5526C44.5646 48.4377 44.4687 49.4116 44.6556 50.3512C44.8425 51.2908 45.3038 52.1539 45.9812 52.8313C46.6586 53.5087 47.5217 53.97 48.4613 54.1569C49.4009 54.3438 50.3748 54.2479 51.2599 53.8813C52.145 53.5147 52.9014 52.8938 53.4337 52.0973C53.9659 51.3007 54.25 50.3643 54.25 49.4063C54.25 48.1216 53.7397 46.8896 52.8313 45.9812C51.9229 45.0728 50.6909 44.5625 49.4063 44.5625ZM49.4063 52.3125C48.8315 52.3125 48.2696 52.1421 47.7916 51.8227C47.3137 51.5034 46.9412 51.0495 46.7212 50.5184C46.5013 49.9874 46.4437 49.403 46.5558 48.8393C46.668 48.2755 46.9448 47.7577 47.3512 47.3512C47.7577 46.9448 48.2755 46.668 48.8393 46.5558C49.403 46.4437 49.9874 46.5013 50.5184 46.7212C51.0495 46.9412 51.5034 47.3137 51.8227 47.7916C52.1421 48.2696 52.3125 48.8315 52.3125 49.4063C52.3125 50.177 52.0063 50.9163 51.4613 51.4613C50.9163 52.0063 50.177 52.3125 49.4063 52.3125ZM12.5938 7.75C11.6357 7.75 10.6993 8.03408 9.90271 8.56632C9.10616 9.09856 8.48532 9.85505 8.11871 10.7401C7.7521 11.6252 7.65618 12.5991 7.84307 13.5387C8.02997 14.4783 8.49129 15.3414 9.1687 16.0188C9.84611 16.6962 10.7092 17.1575 11.6488 17.3444C12.5884 17.5313 13.5623 17.4354 14.4474 17.0688C15.3325 16.7022 16.0889 16.0813 16.6212 15.2848C17.1534 14.4882 17.4375 13.5518 17.4375 12.5938C17.4375 11.3091 16.9272 10.0771 16.0188 9.1687C15.1104 8.26032 13.8784 7.75 12.5938 7.75ZM12.5938 15.5C12.0189 15.5 11.4571 15.3296 10.9791 15.0102C10.5012 14.6909 10.1287 14.237 9.90873 13.7059C9.68876 13.1749 9.63121 12.5905 9.74334 12.0268C9.85548 11.463 10.1323 10.9452 10.5387 10.5387C10.9452 10.1323 11.463 9.85548 12.0268 9.74334C12.5905 9.63121 13.1749 9.68876 13.7059 9.90873C14.237 10.1287 14.6909 10.5012 15.0102 10.9791C15.3296 11.4571 15.5 12.0189 15.5 12.5938C15.5 13.3645 15.1938 14.1038 14.6488 14.6488C14.1038 15.1938 13.3645 15.5 12.5938 15.5Z" fill="white"/>
</g>
<defs>
<clipPath id="clip0_261_205">
<rect width="62" height="62" fill="white"/>
</clipPath>
</defs>
</svg>
