<svg width="37" height="36" viewBox="0 0 37 36" fill="none" xmlns="http://www.w3.org/2000/svg">
<path d="M15.5738 21.6662L21.6848 17.9999L15.5738 14.3335V21.6662Z" fill="#535353"/>
<path d="M18.0151 0C8.07458 0 0.0150757 8.05838 0.0150757 18C0.0150757 27.9416 8.07458 36 18.0151 36C27.9556 36 36.0151 27.9405 36.0151 18C36.0151 8.0595 27.9556 0 18.0151 0ZM27.7891 18.7886C27.7891 20.4761 27.5933 22.1636 27.5933 22.1636C27.5933 22.1636 27.4021 23.6014 26.8171 24.2325C26.0735 25.0628 25.241 25.0672 24.8585 25.1168C22.1225 25.326 18.0151 25.3328 18.0151 25.3328C18.0151 25.3328 12.9323 25.2833 11.3686 25.1235C10.9332 25.0369 9.95783 25.0616 9.21308 24.2325C8.62695 23.6003 8.43683 22.1636 8.43683 22.1636C8.43683 22.1636 8.24108 20.4773 8.24108 18.7886V17.2069C8.24108 15.5194 8.43683 13.833 8.43683 13.833C8.43683 13.833 8.62808 12.3953 9.21308 11.7619C9.9567 10.9305 10.7892 10.926 11.1717 10.8787C13.9066 10.6672 18.0106 10.6673 18.0106 10.6673H18.0196C18.0196 10.6673 22.1236 10.6672 24.8585 10.8787C25.2398 10.926 26.0735 10.9305 26.8171 11.7608C27.4032 12.3941 27.5933 13.8319 27.5933 13.8319C27.5933 13.8319 27.7891 15.5194 27.7891 17.2069V18.7886Z" fill="#535353"/>
</svg>
